<svg width="20" height="20" viewBox="0 0 20 20" fill="none" xmlns="http://www.w3.org/2000/svg">
<g clip-path="url(#clip0_321_32)">
<path d="M10.5922 0L12.0446 0.207396C20.1584 1.93309 22.8621 12.2859 16.3912 17.6913C10.587 22.5396 1.73467 19.3269 0.21448 12.0368L0.00700293 10.5837C0.0239665 10.1963 -0.0151801 9.79847 0.00700293 9.41238C0.294078 4.41531 4.42405 0.286963 9.42046 0H10.5922ZM14.5669 5.90882C14.2616 5.94404 14.0254 6.07709 13.7944 6.26883L8.46397 11.5998L6.17912 9.31585C4.79594 8.23192 3.08654 9.97326 4.2244 11.3481C5.35965 12.3224 6.38398 13.7168 7.52707 14.6455C8.11426 15.1229 8.81499 15.1308 9.40219 14.6481C11.5879 12.3981 13.9106 10.2602 16.014 7.94235C16.4903 6.92232 15.7009 5.77969 14.5669 5.91013V5.90882Z" fill="white"/>
</g>
<defs>
<clipPath id="clip0_321_32">
<rect width="20" height="20" fill="white"/>
</clipPath>
</defs>
</svg>
