<svg width="431" height="186" viewBox="0 0 431 186" fill="none" xmlns="http://www.w3.org/2000/svg">
<path d="M384.35 95C392.71 95 400.389 96.8827 407.372 100.648C414.354 104.413 419.892 109.773 423.983 116.712C428.116 123.611 430.189 131.595 430.189 140.651C430.189 149.707 428.047 157.417 423.779 164.315C419.551 171.172 413.836 176.504 406.621 180.325C399.407 184.09 391.537 185.973 383 185.973C375.13 185.973 367.766 184.159 360.906 180.531C354.059 176.903 348.536 171.695 344.362 164.933C340.23 158.172 338.157 150.326 338.157 141.407C338.157 131.595 340.339 123.185 344.69 116.19C349.095 109.196 354.809 103.932 361.833 100.387C368.911 96.8002 376.399 95 384.323 95H384.35ZM386.559 180.806C391.892 180.806 396.706 179.376 400.975 176.504C405.244 173.632 408.585 169.496 410.986 164.068C413.427 158.64 414.654 152.25 414.654 144.911C414.654 136.57 413.277 129.025 410.522 122.251C407.767 115.434 403.894 110.061 398.916 106.117C393.979 102.173 388.346 100.195 382.031 100.195C376.822 100.195 372.062 101.555 367.752 104.303C363.483 106.997 360.074 111.023 357.537 116.41C355 121.783 353.732 128.27 353.732 135.841C353.732 144.265 355.137 151.906 357.932 158.777C360.728 165.634 364.629 171.035 369.607 174.979C374.639 178.882 380.286 180.833 386.559 180.833V180.806ZM292.686 147.783C291.623 146.176 290.709 144.98 289.945 144.224C289.222 143.455 288.322 142.85 287.34 142.479C286.317 142.08 284.912 141.833 283.139 141.737L278.939 141.462V167.352C278.939 170.581 279.212 172.959 279.744 174.484C280.316 176.01 281.08 177.013 282.007 177.507C282.989 178.002 284.435 178.401 286.344 178.717C287.572 178.909 288.799 179.157 290.013 179.459C291.077 179.72 292.195 180.16 293.355 180.737L293.218 184.227H250.98L250.844 180.737C252.044 180.063 253.162 179.596 254.185 179.321C255.385 178.978 256.613 178.703 257.854 178.511C259.627 178.236 260.95 177.865 261.795 177.37C262.682 176.834 263.377 175.694 263.868 173.948C264.359 172.203 264.605 169.427 264.605 165.607V114.637C264.605 111.449 264.332 109.072 263.8 107.505C263.268 105.884 262.491 104.798 261.468 104.207C260.486 103.575 258.931 102.929 256.79 102.256C254.526 101.624 252.535 100.937 250.857 100.167L250.994 96.6765H281.762C290.081 96.6765 297.351 97.0613 303.583 97.8171C309.816 98.5729 315.381 100.593 320.263 103.864C325.2 107.134 327.669 112.178 327.669 118.994C327.669 123.212 326.482 126.854 324.136 129.96C321.818 133.011 318.817 135.402 315.121 137.161C311.466 138.906 307.566 140.102 303.379 140.72C303.911 141.434 306.557 145.159 311.316 151.878C314.262 156.097 317.235 160.289 320.263 164.452C322.65 167.682 325.118 170.843 327.669 173.935C329.142 175.501 330.451 176.738 331.61 177.631C332.77 178.524 334.215 179.239 335.947 179.789C337.679 180.325 339.862 180.599 342.48 180.599V184.365C338.075 185.437 334.161 185.973 330.737 185.973C326.019 185.973 321.682 184.516 317.726 181.603C313.812 178.689 310.375 175.199 307.511 171.255C304.661 167.27 301.388 162.171 297.705 155.987C295.523 152.222 293.859 149.487 292.7 147.783H292.686ZM282.28 136.968C287.981 136.968 292.891 136.625 297.023 135.965C301.156 135.292 304.702 133.698 307.634 131.197C310.621 128.682 312.107 124.903 312.107 119.832C312.107 114.28 310.512 110.171 307.307 107.533C304.143 104.881 300.433 103.273 296.164 102.696C291.895 102.063 286.645 101.761 280.412 101.761H278.939V136.996H282.28V136.968Z" fill="black"/>
<path d="M176.865 112.218L175.27 108.123C174.738 106.763 174.179 105.416 173.606 104.083C173.074 103.629 171.246 102.805 168.137 101.596C165.695 100.606 163.936 99.864 162.872 99.3693C161.809 98.8746 161.263 98.4348 161.263 98.0226C161.263 97.9264 161.331 97.7065 161.468 97.3492C161.549 97.1156 161.631 96.8957 161.74 96.6759H204.579C204.619 96.8133 204.688 97.0331 204.783 97.3492C204.92 97.6653 204.988 97.8852 204.988 98.0226C204.988 99.0532 204.497 99.7266 203.515 100.043C202.587 100.359 201.087 100.606 199.041 100.785C196.777 100.963 195.059 101.279 193.9 101.719C192.74 102.118 192.168 102.997 192.168 104.344C192.168 105.278 194.663 113.689 199.641 129.561C204.674 145.433 207.988 155.698 209.584 160.357L211.452 154.64C221.858 123.308 227.068 106.57 227.068 104.413C227.068 103.025 226.4 102.063 225.063 101.527C223.727 100.95 221.777 100.469 219.185 100.111C218.135 99.974 217.085 99.7953 216.048 99.5754C215.026 99.3556 214.221 99.0807 213.648 98.7646L213.253 98.0226L213.648 96.6759H248.153C248.331 96.6759 248.549 96.772 248.821 96.9507C249.094 97.0881 249.272 97.2393 249.353 97.4179C249.353 98.0913 248.835 98.6272 247.826 99.0257C246.803 99.383 245.153 99.809 242.889 100.304C239.547 101.018 236.902 101.802 234.951 102.654C232.987 103.464 231.705 104.715 231.078 106.419C230.519 108.013 230.014 109.635 229.537 111.256C229.155 112.534 228.773 113.812 228.405 115.09C228.214 115.901 227.982 116.712 227.737 117.509L207.784 184.144C207.511 185.037 206.583 185.491 204.988 185.491C204.279 185.491 203.678 185.395 203.187 185.216C202.737 185.037 202.383 184.68 202.124 184.144C201.278 182.481 200.432 180.035 199.587 176.82L198.387 172.986L179.429 117.385L162.15 167.475C161.754 168.588 161.195 170.416 160.486 172.917C159.64 175.748 158.931 177.96 158.344 179.568C157.785 181.135 157.144 182.66 156.408 184.144C156.135 184.721 155.78 185.106 155.344 185.285C154.894 185.505 154.321 185.628 153.612 185.628C152.275 185.628 151.143 184.694 150.202 182.797C149.275 180.915 148.334 178.496 147.393 175.542L146.724 173.384L137.587 148.703C132.65 135.167 127.644 121.714 122.571 108.357C121.862 106.515 120.812 105.155 119.434 104.261C118.098 103.327 116.297 102.42 114.033 101.568C112.342 100.936 111.046 100.4 110.16 99.9602C109.246 99.493 108.414 98.8746 107.691 98.1463L108.155 96.6621H151.061C151.102 96.7995 151.171 97.0194 151.266 97.3355C151.362 97.6103 151.402 97.8302 151.402 98.0088C151.402 98.9021 150.952 99.5342 150.066 99.8915C149.22 100.208 147.925 100.469 146.193 100.702C144.051 100.977 142.415 101.376 141.255 101.912C140.137 102.406 139.592 103.341 139.592 104.729C139.592 105.361 141.978 112.479 146.738 126.111C151.539 139.744 155.617 151.191 158.944 160.467L176.893 112.191L176.865 112.218Z" fill="black"/>
<path d="M44.4105 100.182C42.583 100.855 40.2235 101.487 37.3322 102.065C34.9318 102.559 33.1997 103.123 32.1223 103.741C31.0994 104.318 30.2948 105.486 29.722 107.232C29.1901 108.936 28.9173 111.67 28.9173 115.436V144.143C28.9173 154.944 31.0722 163.423 35.3955 169.566C39.7598 175.667 47.1382 178.704 57.5443 178.704C76.6244 178.704 86.1713 166.804 86.1713 143.002V116.59C86.1713 112.605 85.8849 109.691 85.2984 107.85C84.7665 106.009 83.9209 104.758 82.7617 104.085C81.6024 103.37 79.6657 102.669 76.9517 101.996C74.374 101.322 72.2601 100.69 70.6099 100.113V96.6914H106.574L106.711 100.182C106.015 100.553 105.279 100.842 104.515 101.061C103.751 101.24 102.728 101.446 101.446 101.666C99.7551 101.982 98.3913 102.298 97.3684 102.614C96.3182 102.903 95.3363 103.398 94.5043 104.098C93.6587 104.772 93.0586 105.706 92.704 106.929C91.9949 109.389 91.6403 112.261 91.6403 115.532C91.6403 117.689 91.6812 121.097 91.7766 125.756C91.8721 130.414 91.913 133.919 91.913 136.241C91.913 146.465 91.0265 155.095 89.2399 162.131C87.5078 169.167 83.7845 174.911 78.0973 179.35C72.451 183.789 64.1043 186.001 53.0709 186.001C46.6608 186.001 40.7009 184.998 35.191 182.978C29.6674 180.917 25.0985 177.728 21.4435 173.427C17.8429 169.126 15.7017 163.753 15.0334 157.294C14.5015 152.635 14.2287 146.74 14.2287 139.608C14.2287 135.485 14.2969 131.404 14.4333 127.377C14.5152 121.991 14.5697 118.005 14.5697 115.408C14.5697 112.096 14.3515 109.513 13.9014 107.671C13.4514 105.885 12.3466 104.538 10.56 103.645C8.82794 102.752 6.4685 101.913 3.4817 101.158C2.32243 100.842 1.16317 100.512 0.00390625 100.141L0.208482 96.7189H44.2468L44.3832 100.209L44.4105 100.182Z" fill="black"/>
<path d="M406.954 54.2606H410.489V57.6258C411.537 56.2372 412.645 55.2425 413.818 54.6361C414.988 54.0311 416.29 53.7293 417.724 53.7293C420.866 53.7293 422.988 54.9025 424.09 57.2489C424.696 58.5326 425 60.3703 425 62.7606V77.9711H421.217V63.027C421.217 61.5818 421.017 60.4157 420.617 59.5301C419.956 58.0537 418.757 57.3155 417.02 57.3155C416.139 57.3155 415.416 57.4118 414.851 57.6031C413.831 57.929 412.935 58.5779 412.164 59.5513C411.543 60.3335 411.136 61.1454 410.944 61.987C410.764 62.8131 410.674 64.0018 410.674 65.5519V77.9711H406.954V54.2606ZM392.175 75.4037C394.642 75.4037 396.33 74.4076 397.239 72.414C398.162 70.4077 398.624 68.1775 398.624 65.7291C398.624 63.5144 398.293 61.7135 397.632 60.3264C396.584 58.1415 394.78 57.0505 392.216 57.0505C389.943 57.0505 388.29 57.98 387.255 59.839C386.222 61.6994 385.706 63.9423 385.706 66.5693C385.706 69.0942 386.222 71.1969 387.255 72.8788C388.29 74.5621 389.929 75.4037 392.175 75.4037ZM392.32 53.5734C395.173 53.5734 397.584 54.5936 399.554 56.6297C401.525 58.6658 402.511 61.6625 402.511 65.6171C402.511 69.4399 401.642 72.5996 399.906 75.0934C398.169 77.5872 395.476 78.834 391.823 78.834C388.778 78.834 386.36 77.7359 384.568 75.5355C382.777 73.3223 381.882 70.3553 381.882 66.6373C381.882 62.6515 382.825 59.4777 384.714 57.1157C386.602 54.7551 389.136 53.5734 392.32 53.5734ZM373.964 54.3711H377.747V77.9711H373.964V54.3711ZM373.964 45.4489H377.747V49.966H373.964V45.4489ZM362.927 47.6408H366.688V54.2606H370.223V57.5152H366.688V72.9907C366.688 73.8168 366.95 74.3708 367.474 74.6499C367.764 74.8129 368.246 74.8936 368.921 74.8936H369.5C369.707 74.8795 369.948 74.8568 370.223 74.827V77.9726C369.783 78.1075 369.334 78.2032 368.88 78.2588C368.386 78.3204 367.889 78.3502 367.392 78.348C365.655 78.348 364.477 77.8748 363.857 76.9311C363.237 75.9719 362.927 74.7321 362.927 73.2117V57.5152H359.929V54.2606H362.927V47.6408ZM341.471 71.6616C341.471 72.8136 341.864 73.7204 342.65 74.3849C343.434 75.0495 344.365 75.381 345.44 75.381C346.749 75.381 348.017 75.0551 349.243 74.4076C351.311 73.3308 352.344 71.5653 352.344 69.1155V65.9062C351.889 66.2151 351.303 66.4729 350.587 66.6798C349.895 66.8815 349.19 67.0297 348.478 67.1233L346.225 67.4336C344.875 67.6249 343.861 67.9281 343.187 68.3404C342.042 69.0347 341.471 70.1413 341.471 71.6616ZM350.483 63.6037C351.337 63.4847 351.91 63.1007 352.198 62.4517C352.364 62.0975 352.447 61.5874 352.447 60.9243C352.447 59.5669 351.992 58.585 351.083 57.98C350.188 57.3594 348.899 57.0505 347.218 57.0505C345.274 57.0505 343.896 57.6102 343.084 58.7324C342.628 59.353 342.332 60.2754 342.195 61.4996H338.722C338.791 58.5779 339.673 56.5475 341.368 55.4111C343.077 54.2606 345.053 53.6853 347.3 53.6853C349.904 53.6853 352.02 54.2167 353.646 55.2794C355.258 56.342 356.064 57.9942 356.064 60.2385V73.8975C356.064 74.3113 356.141 74.6428 356.291 74.8936C356.457 75.1444 356.794 75.2705 357.305 75.2705C357.47 75.2705 357.655 75.2634 357.863 75.2478C358.069 75.2195 358.29 75.1813 358.524 75.1373V78.0817C358.091 78.2235 357.649 78.3347 357.202 78.4146C356.897 78.4586 356.485 78.4812 355.961 78.4812C354.679 78.4812 353.749 77.9938 353.171 77.019C352.868 76.5032 352.653 75.7721 352.529 74.827C351.771 75.8897 350.684 76.8121 349.264 77.5957C347.845 78.3778 346.28 78.7689 344.572 78.7689C342.519 78.7689 340.837 78.1043 339.528 76.7753C338.233 75.4335 337.584 73.7573 337.584 71.7509C337.584 69.5505 338.226 67.8459 339.508 66.6359C340.788 65.4258 342.47 64.6805 344.551 64.4L350.483 63.6037ZM315.799 74.827L328.925 57.8241H316.77V54.2606H333.927V57.5152L320.884 74.4076H334.319V77.9711H315.799V74.827ZM308.027 54.3711H311.809V77.9711H308.027V54.3711ZM308.027 45.4489H311.809V49.966H308.027V45.4489ZM284.462 54.2606H287.997V57.6258C289.045 56.2372 290.153 55.2425 291.325 54.6361C292.496 54.0311 293.799 53.7293 295.232 53.7293C298.374 53.7293 300.496 54.9025 301.598 57.2489C302.205 58.5326 302.508 60.3703 302.508 62.7606V77.9711H298.725V63.027C298.725 61.5818 298.524 60.4157 298.125 59.5301C297.463 58.0537 296.265 57.3155 294.529 57.3155C293.647 57.3155 292.923 57.4118 292.358 57.6031C291.338 57.929 290.443 58.5779 289.672 59.5513C289.051 60.3335 288.645 61.1454 288.452 61.987C288.272 62.8131 288.183 64.0018 288.183 65.5519V77.9711H284.462V54.2606ZM263.751 71.6616C263.751 72.8136 264.144 73.7204 264.929 74.3849C265.714 75.0495 266.645 75.381 267.719 75.381C269.029 75.381 270.296 75.0551 271.523 74.4076C273.59 73.3308 274.624 71.5653 274.624 69.1155V65.9062C274.169 66.2151 273.583 66.4729 272.867 66.6798C272.175 66.8815 271.47 67.0297 270.758 67.1233L268.505 67.4336C267.155 67.6249 266.141 67.9281 265.467 68.3404C264.322 69.0347 263.751 70.1413 263.751 71.6616ZM272.762 63.6037C273.617 63.4847 274.19 63.1007 274.478 62.4517C274.643 62.0975 274.727 61.5874 274.727 60.9243C274.727 59.5669 274.272 58.585 273.363 57.98C272.467 57.3594 271.179 57.0505 269.497 57.0505C267.554 57.0505 266.176 57.6102 265.363 58.7324C264.908 59.353 264.612 60.2754 264.474 61.4996H261.002C261.071 58.5779 261.953 56.5475 263.648 55.4111C265.357 54.2606 267.333 53.6853 269.579 53.6853C272.184 53.6853 274.3 54.2167 275.925 55.2794C277.538 56.342 278.344 57.9942 278.344 60.2385V73.8975C278.344 74.3113 278.42 74.6428 278.571 74.8936C278.737 75.1444 279.074 75.2705 279.585 75.2705C279.75 75.2705 279.935 75.2634 280.143 75.2478C280.349 75.2195 280.57 75.1813 280.804 75.1373V78.0817C280.37 78.2235 279.929 78.3347 279.481 78.4146C279.177 78.4586 278.764 78.4812 278.24 78.4812C276.959 78.4812 276.029 77.9938 275.45 77.019C275.147 76.5032 274.933 75.7721 274.809 74.827C274.051 75.8897 272.963 76.8121 271.544 77.5957C270.124 78.3778 268.559 78.7689 266.852 78.7689C264.798 78.7689 263.117 78.1043 261.807 76.7753C260.512 75.4335 259.864 73.7573 259.864 71.7509C259.864 69.5505 260.506 67.8459 261.788 66.6359C263.068 65.4258 264.75 64.6805 266.83 64.4L272.762 63.6037ZM245.148 53.8398C246.884 53.8398 248.4 54.2975 249.695 55.2128C250.397 55.7285 251.114 56.4823 251.845 57.4699V54.4816H255.276V76.0456C255.276 79.0565 254.862 81.4326 254.035 83.174C252.493 86.3904 249.577 88 245.292 88C242.909 88 240.903 87.4248 239.277 86.2742C237.651 85.1379 236.741 83.3511 236.549 80.9155H240.331C240.51 81.9782 240.869 82.7985 241.406 83.3738C242.247 84.2594 243.57 84.7014 245.374 84.7014C248.228 84.7014 250.094 83.6246 250.977 81.4695C251.501 80.1999 251.741 77.9343 251.7 74.6726C250.956 75.8826 250.06 76.7838 249.012 77.3732C247.966 77.9641 246.581 78.2588 244.858 78.2588C242.46 78.2588 240.359 77.352 238.554 75.5355C236.762 73.7062 235.867 70.6882 235.867 66.4814C235.867 62.5113 236.769 59.4111 238.575 57.1823C240.394 54.9535 242.584 53.8398 245.148 53.8398ZM251.845 66.0167C251.845 63.0794 251.28 60.9017 250.15 59.4847C249.02 58.0678 247.58 57.3594 245.829 57.3594C243.211 57.3594 241.42 58.6729 240.456 61.3012C239.945 62.704 239.69 64.5403 239.69 66.813C239.69 69.4853 240.194 71.5214 241.199 72.9241C242.219 74.3113 243.583 75.0041 245.292 75.0041C247.966 75.0041 249.847 73.7133 250.935 71.1303C251.542 69.6695 251.845 67.9664 251.845 66.0167ZM223.34 54.2606H226.875V58.3555C227.165 57.5592 227.874 56.5928 229.004 55.4565C230.135 54.3045 231.436 53.7279 232.911 53.7279C232.98 53.7279 233.097 53.7364 233.262 53.7505C233.427 53.7647 233.71 53.7959 234.11 53.8398V58.0466C233.905 58.0043 233.698 57.9745 233.489 57.9573C233.29 57.9421 233.09 57.935 232.89 57.9361C231.016 57.9361 229.576 58.585 228.57 59.8843C227.58 61.1225 227.044 62.7036 227.062 64.3334V77.9711H223.34V54.2606ZM203.89 44.5633C209.25 44.5633 213.219 46.4081 215.796 50.0977C217.808 52.9769 218.813 56.658 218.813 61.1454C218.813 66.0011 217.662 70.0379 215.362 73.2557C212.66 77.0346 208.809 78.9233 203.808 78.9233C199.135 78.9233 195.463 77.2698 192.789 73.9641C190.405 70.7761 189.213 66.7464 189.213 61.8765C189.213 57.4784 190.233 53.7151 192.273 50.5851C194.891 46.571 198.763 44.5633 203.89 44.5633ZM204.302 74.9829C207.927 74.9829 210.545 73.5943 212.158 70.82C213.784 68.0315 214.597 64.8279 214.597 61.2134C214.597 57.3891 213.659 54.313 211.786 51.9794C209.925 49.6486 207.375 48.4825 204.138 48.4825C200.995 48.4825 198.433 49.6401 196.448 51.9581C194.464 54.2606 193.472 57.6626 193.472 62.1641C193.472 65.7659 194.32 68.8066 196.014 71.2862C197.724 73.7516 200.486 74.9829 204.302 74.9829ZM159.551 70.5324C159.663 71.8614 159.972 72.8788 160.483 73.5872C161.419 74.8724 163.045 75.5142 165.36 75.5142C166.739 75.5142 167.951 75.1968 168.998 74.5621C170.046 73.9131 170.569 72.917 170.569 71.5724C170.569 70.555 170.149 69.78 169.308 69.2487C168.771 68.9228 167.71 68.5473 166.125 68.1194L163.17 67.3231C161.282 66.8201 159.89 66.2604 158.993 65.6398C157.395 64.5629 156.596 63.0724 156.596 61.168C156.596 58.9237 157.347 57.1086 158.849 55.7214C160.365 54.3329 162.397 53.64 164.946 53.64C168.281 53.64 170.686 54.6885 172.161 56.7855C173.085 58.1132 173.532 59.5443 173.504 61.0788H169.99C169.924 60.1846 169.615 59.3307 169.101 58.6218C168.247 57.5733 166.767 57.0491 164.658 57.0491C163.252 57.0491 162.184 57.3381 161.454 57.9134C160.737 58.4887 160.378 59.2495 160.378 60.1946C160.378 61.2261 160.854 62.0536 161.806 62.6742C162.356 63.0426 163.17 63.3671 164.244 63.6476L166.704 64.2895C169.377 64.9838 171.169 65.6554 172.078 66.3043C173.525 67.3231 174.249 68.9242 174.249 71.1076C174.249 73.2188 173.497 75.041 171.996 76.5769C170.508 78.1114 168.234 78.8794 165.174 78.8794C161.881 78.8794 159.545 78.0817 158.168 76.4876C156.802 74.8794 156.072 72.8944 155.976 70.5324H159.551ZM133.776 54.2606H137.311V57.6258C138.359 56.2372 139.467 55.2425 140.639 54.6361C141.81 54.0311 143.112 53.7293 144.546 53.7293C147.688 53.7293 149.81 54.9025 150.912 57.2489C151.517 58.5326 151.822 60.3703 151.822 62.7606V77.9711H148.038V63.027C148.038 61.5818 147.839 60.4157 147.439 59.5301C146.778 58.0537 145.579 57.3155 143.842 57.3155C142.961 57.3155 142.237 57.4118 141.672 57.6031C140.653 57.929 139.757 58.5779 138.986 59.5513C138.365 60.3335 137.958 61.1454 137.766 61.987C137.586 62.8131 137.496 64.0018 137.496 65.5519V77.9711H133.776V54.2606ZM118.997 75.4037C121.464 75.4037 123.152 74.4076 124.061 72.414C124.984 70.4077 125.446 68.1775 125.446 65.7291C125.446 63.5144 125.115 61.7135 124.454 60.3264C123.406 58.1415 121.601 57.0505 119.038 57.0505C116.765 57.0505 115.111 57.98 114.077 59.839C113.044 61.6994 112.528 63.9423 112.528 66.5693C112.528 69.0942 113.044 71.1969 114.077 72.8788C115.111 74.5621 116.75 75.4037 118.997 75.4037ZM119.142 53.5734C121.994 53.5734 124.406 54.5936 126.376 56.6297C128.347 58.6658 129.332 61.6625 129.332 65.6171C129.332 69.4399 128.463 72.5996 126.728 75.0934C124.991 77.5872 122.297 78.834 118.645 78.834C115.6 78.834 113.181 77.7359 111.39 75.5355C109.599 73.3223 108.703 70.3553 108.703 66.6373C108.703 62.6515 109.646 59.4777 111.536 57.1157C113.423 54.7551 115.958 53.5734 119.142 53.5734ZM100.786 54.3711H104.569V77.9711H100.786V54.3711ZM100.786 45.4489H104.569V49.966H100.786V45.4489ZM85.0353 53.8398C86.7722 53.8398 88.2883 54.2975 89.5834 55.2128C90.2858 55.7285 91.0029 56.4823 91.7331 57.4699V54.4816H95.1634V76.0456C95.1634 79.0565 94.7506 81.4326 93.9238 83.174C92.38 86.3904 89.4656 88 85.1808 88C82.7969 88 80.7914 87.4248 79.1656 86.2742C77.5397 85.1379 76.6296 83.3511 76.4365 80.9155H80.2199C80.3985 81.9782 80.757 82.7985 81.2941 83.3738C82.1355 84.2594 83.4584 84.7014 85.2628 84.7014C88.115 84.7014 89.9829 83.6246 90.864 81.4695C91.3878 80.1999 91.6299 77.9343 91.5876 74.6726C90.8441 75.8826 89.9485 76.7838 88.9008 77.3732C87.853 77.9641 86.4693 78.2588 84.7469 78.2588C82.3485 78.2588 80.2464 77.352 78.4419 75.5355C76.6507 73.7062 75.7551 70.6882 75.7551 66.4814C75.7551 62.5113 76.6573 59.4111 78.4631 57.1823C80.2808 54.9535 82.4728 53.8398 85.0353 53.8398ZM91.7331 66.0167C91.7331 63.0794 91.1682 60.9017 90.0385 59.4847C88.9074 58.0678 87.4681 57.3594 85.7179 57.3594C83.0999 57.3594 81.3087 58.6729 80.343 61.3012C79.8337 62.704 79.5783 64.5403 79.5783 66.813C79.5783 69.4853 80.081 71.5214 81.0877 72.9241C82.1077 74.3113 83.4716 75.0041 85.1808 75.0041C87.853 75.0041 89.7342 73.7133 90.823 71.1303C91.4302 69.6695 91.7331 67.9664 91.7331 66.0167ZM67.7966 54.3711H71.5788V77.9711H67.7966V54.3711ZM67.7966 45.4489H71.5788V49.966H67.7966V45.4489ZM58.4742 45.4489H62.1954V77.9711H58.4742V45.4489ZM44.0255 53.7293C45.5971 53.7293 47.1197 54.1274 48.5934 54.9251C50.0685 55.7073 51.1916 56.7246 51.9629 57.98C52.7076 59.1759 53.2037 60.5701 53.4511 62.1641C53.672 63.2551 53.7818 64.9979 53.7818 67.3897H37.5565C37.6253 69.7942 38.1558 71.7283 39.1479 73.1891C40.1401 74.6357 41.676 75.3584 43.7569 75.3584C45.7003 75.3584 47.2507 74.6726 48.4082 73.2996C49.0697 72.5033 49.538 71.5809 49.8131 70.5324H53.4723C53.3757 71.4038 53.0516 72.3772 52.5 73.4555C51.9629 74.5181 51.3569 75.3881 50.6823 76.0668C49.5512 77.2485 48.1529 78.0448 46.486 78.4586C45.5904 78.6952 44.5771 78.8128 43.4473 78.8128C40.6904 78.8128 38.3555 77.743 36.44 75.6021C34.5244 73.4484 33.5666 70.4374 33.5666 66.5693C33.5666 62.7621 34.531 59.6689 36.4611 57.2928C38.3899 54.9166 40.9114 53.7293 44.0255 53.7293ZM49.9586 64.2229C49.8065 62.4957 49.4546 61.1156 48.9043 60.0827C47.8843 58.1642 46.1818 57.2049 43.7979 57.2049C42.0901 57.2049 40.6561 57.8695 39.4985 59.1971C38.341 60.5106 37.7285 62.1868 37.6597 64.2229H49.9586ZM18.8282 60.3491C20.7584 60.3491 22.281 59.9353 23.3962 59.1093C24.5273 58.2818 25.0921 56.7912 25.0921 54.6361C25.0921 52.3194 24.3064 50.7396 22.7348 49.8994C21.8947 49.4559 20.7716 49.2348 19.3666 49.2348H9.32057V60.3491H18.8282ZM5.20638 45.4489H19.2635C21.5785 45.4489 23.4861 45.8102 24.989 46.5342C27.8411 47.9214 29.2672 50.4817 29.2672 54.2167C29.2672 56.1649 28.8889 57.759 28.1308 58.9987C27.386 60.2385 26.3383 61.2346 24.989 61.987C26.173 62.5042 27.062 63.1829 27.6546 64.0245C28.2618 64.8647 28.5992 66.2306 28.6679 68.1194L28.8122 72.4806C28.8545 73.7204 28.9497 74.6428 29.1019 75.2478C29.3492 76.2822 29.7911 76.9453 30.4248 77.2414V77.9711H25.3806C25.2237 77.6281 25.1124 77.2633 25.0498 76.8872C24.9678 76.4437 24.899 75.5879 24.8435 74.3183L24.5961 68.8944C24.4995 66.7691 23.7626 65.3451 22.3842 64.621C21.5984 64.2243 20.3654 64.0231 18.684 64.0231H9.32057V77.9711H5.20638V45.4489ZM227.165 21.0553C227.165 23.5929 227.667 25.7183 228.673 27.4313C229.68 29.143 231.292 29.9988 233.511 29.9988C235.233 29.9988 236.645 29.2096 237.748 27.6297C238.864 26.0357 239.421 23.7559 239.421 20.7889C239.421 17.7921 238.85 15.5789 237.706 14.1464C236.563 12.7012 235.15 11.9785 233.468 11.9785C231.595 11.9785 230.072 12.7437 228.9 14.2796C227.743 15.8141 227.165 18.0741 227.165 21.0553ZM232.766 8.50145C234.46 8.50145 235.88 8.88401 237.024 9.65339C237.686 10.0955 238.437 10.8705 239.277 11.9771V0H242.853V32.6328H239.505V29.3342C238.637 30.7951 237.61 31.8507 236.425 32.501C235.24 33.15 233.882 33.4744 232.353 33.4744C229.886 33.4744 227.749 32.3678 225.945 30.1532C224.139 27.9244 223.237 24.9659 223.237 21.2763C223.237 17.8219 224.057 14.8336 225.696 12.3101C227.35 9.771 229.707 8.50145 232.766 8.50145ZM215.486 0.110519H219.206V32.6328H215.486V0.110519ZM201.388 8.92227H204.923V13.0171C205.213 12.2208 205.922 11.2545 207.053 10.1181C208.182 8.96619 209.484 8.38951 210.959 8.38951C211.028 8.38951 211.144 8.39801 211.31 8.41218C211.475 8.42635 211.758 8.45752 212.158 8.50145V12.7082C211.953 12.666 211.746 12.6362 211.537 12.619C211.338 12.6037 211.138 12.5966 210.938 12.5977C209.064 12.5977 207.624 13.2467 206.617 14.546C205.628 15.7841 205.092 17.3652 205.109 18.9951V32.6328H201.388V8.92227ZM186.505 30.0654C188.973 30.0654 190.661 29.0693 191.571 27.0757C192.493 25.0694 192.955 22.8391 192.955 20.3907C192.955 18.1761 192.624 16.3752 191.962 14.988C190.916 12.8032 189.11 11.7122 186.548 11.7122C184.274 11.7122 182.62 12.6416 181.587 14.5006C180.552 16.361 180.036 18.604 180.036 21.2309C180.036 23.7559 180.552 25.8586 181.587 27.5419C182.62 29.2237 184.259 30.0654 186.505 30.0654ZM186.651 8.23507C189.503 8.23507 191.915 9.25524 193.886 11.2913C195.856 13.3274 196.841 16.3242 196.841 20.2802C196.841 24.1016 195.973 27.2613 194.236 29.7551C192.501 32.2488 189.806 33.4957 186.155 33.4957C183.11 33.4957 180.691 32.3976 178.899 30.1971C177.108 27.9839 176.212 25.0169 176.212 21.299C176.212 17.3132 177.157 14.1393 179.044 11.7773C180.932 9.41677 183.467 8.23507 186.651 8.23507ZM140.99 0.110519L146.715 26.567L153.579 0.110519H158.043L164.905 26.567L170.631 0.110519H175.138L167.158 32.6328H162.839L155.831 5.66763L148.783 32.6328H144.462L136.525 0.110519H140.99ZM105.499 21.0553C105.499 23.5929 106.002 25.7183 107.009 27.4313C108.014 29.143 109.627 29.9988 111.845 29.9988C113.568 29.9988 114.98 29.2096 116.082 27.6297C117.199 26.0357 117.757 23.7559 117.757 20.7889C117.757 17.7921 117.184 15.5789 116.041 14.1464C114.897 12.7012 113.484 11.9785 111.804 11.9785C109.93 11.9785 108.407 12.7437 107.236 14.2796C106.077 15.8141 105.499 18.0741 105.499 21.0553ZM111.1 8.50145C112.796 8.50145 114.216 8.88401 115.359 9.65339C116.02 10.0955 116.772 10.8705 117.612 11.9771V0H121.187V32.6328H117.839V29.3342C116.971 30.7951 115.945 31.8507 114.759 32.501C113.574 33.15 112.217 33.4744 110.688 33.4744C108.22 33.4744 106.085 32.3678 104.279 30.1532C102.475 27.9244 101.571 24.9659 101.571 21.2763C101.571 17.8219 102.392 14.8336 104.032 12.3101C105.686 9.771 108.042 8.50145 111.1 8.50145ZM88.7976 8.39093C90.3692 8.39093 91.8919 8.78908 93.3656 9.5868C94.8406 10.3689 95.9637 11.3863 96.735 12.6417C97.4785 13.8375 97.9759 15.2318 98.2232 16.8258C98.4442 17.9168 98.554 19.6596 98.554 22.0513H82.3273C82.3961 24.4558 82.9266 26.3899 83.9188 27.8507C84.9109 29.2974 86.4481 30.0214 88.529 30.0214C90.4724 30.0214 92.0228 29.3342 93.179 27.9613C93.8405 27.165 94.3101 26.2425 94.5853 25.194H98.2444C98.1478 26.0654 97.8237 27.0389 97.2721 28.1171C96.735 29.1798 96.1291 30.0498 95.4531 30.7285C94.3233 31.9102 92.9251 32.7065 91.2569 33.1202C90.3613 33.3568 89.3493 33.4744 88.2182 33.4744C85.4626 33.4744 83.1276 32.4047 81.2121 30.2637C79.2965 28.11 78.3388 25.0991 78.3388 21.2309C78.3388 17.4237 79.3032 14.3306 81.232 11.9559C83.1621 9.5783 85.6835 8.39093 88.7976 8.39093ZM94.7295 18.8845C94.5787 17.1573 94.2268 15.7773 93.6764 14.7443C92.6565 12.8258 90.9539 11.8666 88.5701 11.8666C86.8609 11.8666 85.4282 12.5311 84.2706 13.8588C83.1131 15.1722 82.5006 16.8485 82.4318 18.8845H94.7295ZM68.5414 2.30248H72.3024V8.92227H75.8372V12.1769H72.3024V27.6524C72.3024 28.4784 72.5643 29.0324 73.0882 29.313C73.3779 29.4745 73.8594 29.5553 74.5354 29.5553H75.1136C75.3199 29.5411 75.562 29.5184 75.8372 29.4901V32.6328C75.3978 32.7682 74.9486 32.8644 74.4944 32.9204C74 32.9821 73.5026 33.0119 73.0049 33.0097C71.2692 33.0097 70.0905 32.5365 69.4714 31.5928C68.8509 30.6335 68.5414 29.3938 68.5414 27.8734V12.1769H65.5437V8.92227H68.5414V2.30248ZM58.371 9.03279H62.1531V32.6328H58.371V9.03279ZM58.371 0.110519H62.1531V4.62762H58.371V0.110519ZM34.8075 8.92227H38.341V12.2874C39.3887 10.8989 40.4986 9.90418 41.6694 9.29775C42.8401 8.69273 44.1432 8.39093 45.5759 8.39093C48.7178 8.39093 50.8397 9.56413 51.943 11.9105C52.5489 13.1957 52.8518 15.032 52.8518 17.4223V32.6328H49.0697V17.6887C49.0697 16.2434 48.8699 15.0773 48.4704 14.1918C47.8089 12.7153 46.6091 11.9771 44.8734 11.9771C43.9911 11.9771 43.2674 12.0735 42.7026 12.2648C41.6826 12.5906 40.787 13.2396 40.0158 14.213C39.3953 14.9951 38.9892 15.807 38.7961 16.6487C38.6175 17.4747 38.5275 18.6635 38.5275 20.2136V32.6328H34.8075V8.92227ZM9.17507 0.110519V20.2136C9.17507 22.5742 9.58912 24.538 10.4159 26.1023C11.6423 28.4628 13.7099 29.6445 16.6177 29.6445C20.1035 29.6445 22.4742 28.3679 23.7269 25.8146C24.4029 24.4261 24.7403 22.56 24.7403 20.2136V0.110519H28.9153V18.3745C28.9153 22.3758 28.4126 25.4519 27.4072 27.607C25.5605 31.5333 22.0733 33.4971 16.9484 33.4971C11.8208 33.4971 8.34163 31.5333 6.50941 27.607C5.50269 25.4533 5 22.3758 5 18.3759V0.111936L9.17507 0.110519Z" fill="black"/>
</svg>
