<svg width="159" height="154" viewBox="0 0 159 154" fill="none" xmlns="http://www.w3.org/2000/svg">
<g clip-path="url(#clip0_191_311)">
<path d="M59.3281 110.687C59.7744 111.877 60.9163 114.423 63.5541 116.434C66.0167 118.313 68.4686 118.727 69.9966 118.966C75.1249 119.77 79.1796 117.954 80.6366 117.282C82.2425 116.541 87.1629 114.175 89.6151 108.82C90.1024 107.758 90.3765 106.826 90.5394 106.165C91.3095 106.197 92.4582 106.314 93.7821 106.706C95.6269 107.25 96.7777 108.024 98.4441 109.061C99.7485 109.869 101.675 111.03 104.162 112.384C108.564 117.015 112.965 121.64 117.367 126.272C114.282 131.738 111.45 136.323 109.139 139.908C105.925 144.891 104.051 147.497 100.658 149.598C100.155 149.912 97.7961 151.34 94.2708 152.178C83.6668 154.699 74.0206 149.111 64.9404 143.851C61.7841 142.024 59.5181 140.412 57.775 137.675C55.4237 133.985 55.2813 130.296 55.1733 127.574C54.9715 122.651 54.2088 115.639 51.6796 106.495C54.078 107.004 56.47 107.507 58.8685 108.015C59.022 108.908 59.1746 109.794 59.3226 110.688L59.3281 110.687Z" fill="#1818D8"/>
<path d="M92.6127 153.123C82.5072 154.723 73.4334 149.468 64.6423 144.374C61.3161 142.449 59.0486 140.791 57.2678 137.996C54.833 134.177 54.6848 130.379 54.5744 127.607C54.3074 121.055 53.1398 114.01 51.1002 106.65L50.834 105.696L59.3874 107.504L59.4515 107.907C59.6097 108.792 59.7561 109.64 59.8978 110.494C60.479 112.029 61.6436 114.216 63.9171 115.948C66.3078 117.769 68.6738 118.145 70.0897 118.362C75.1245 119.152 79.0865 117.328 80.3892 116.726C84.5475 114.808 87.4719 112.059 89.0719 108.557C89.4453 107.748 89.7421 106.887 89.9621 106.01L90.0802 105.533L90.5686 105.553C91.7122 105.601 92.8558 105.793 93.9576 106.117C95.7303 106.638 96.8907 107.366 98.3622 108.29L98.7675 108.541C100.654 109.709 102.516 110.789 104.454 111.846L104.535 111.89L118.112 126.171L117.894 126.561C115.267 131.216 112.489 135.815 109.647 140.229C106.361 145.327 104.429 147.964 100.979 150.103C100.128 150.633 97.781 151.955 94.4154 152.757C93.81 152.899 93.2123 153.017 92.6165 153.111L92.6127 153.123ZM52.5207 107.291C54.423 114.397 55.5189 121.207 55.7761 127.554C55.8837 130.201 56.0247 133.811 58.2844 137.354C59.9293 139.941 62.0844 141.502 65.2416 143.334C74.3467 148.607 83.7593 154.055 94.1338 151.599C97.3296 150.841 99.5395 149.592 100.345 149.092C103.608 147.075 105.379 144.646 108.638 139.587C111.389 135.319 114.077 130.872 116.631 126.371L103.802 112.877C101.876 111.824 100.021 110.748 98.1395 109.58L97.7342 109.329C96.283 108.424 95.237 107.77 93.6254 107.292C92.7687 107.038 91.8919 106.873 91.008 106.807C90.7905 107.592 90.5064 108.353 90.1716 109.082C88.4483 112.85 85.327 115.796 80.8973 117.837C79.5146 118.474 75.3089 120.418 69.9167 119.57C68.4887 119.349 65.8366 118.932 63.2043 116.92C60.9114 115.175 59.6475 113.009 58.9632 111.364L58.8407 111.383L58.7463 110.791C58.6198 110.032 58.4885 109.279 58.3572 108.527L52.5272 107.295L52.5207 107.291Z" fill="black"/>
<path d="M6.00745 36.3229C6.59083 38.23 6.94094 38.1344 7.36823 39.9573C7.89744 42.2052 7.78376 44.108 7.62256 46.4652C7.39237 49.8587 6.96475 50.041 7.21678 51.7312C7.43968 53.2026 8.02098 54.3079 9.1789 56.525C11.0472 60.0848 11.777 60.187 12.6354 62.7093C13.4209 65.0255 13.6557 66.1054 13.6557 66.1054C13.957 67.4957 13.9771 68.2315 14.5638 69.0839C15.1661 69.9625 15.9597 70.3582 16.428 70.6106C18.281 71.6006 19.8359 73.0846 21.6307 74.1754C25.5177 76.5392 29.4184 82.6818 32.3725 87.3243C36.9127 94.4714 36.5023 95.5504 40.0308 99.8213C42.568 102.886 44.512 105.236 47.7512 107.009C55.4737 111.235 64.5396 108.878 64.5541 109.076C64.5592 109.144 63.3538 109.317 58.54 109.736C58.6208 110.135 58.7024 110.541 58.7832 110.94L59.269 114.278C59.8487 115.624 61.3345 118.574 64.5868 120.752C64.9956 121.025 67.0483 122.373 70.1525 122.976C75.6712 124.044 80.1785 121.916 81.6111 121.162C86.0874 118.804 88.2276 115.217 89.7856 112.598C92.3533 108.29 93.2296 104.187 93.5657 101.602C88.8533 100.973 81.8199 99.4969 74.2418 95.5691C63.3362 89.9222 56.9566 82.1211 49.8121 73.2093C37.3822 57.7037 41.0009 55.6586 31.2955 46.6881C26.7303 42.4667 18.962 36.4837 13.9539 29.1587C10.8426 24.604 9.2874 22.3295 8.4967 18.9772C8.28751 18.0937 7.82956 15.8632 6.54256 13.1223C6.20528 12.4023 4.47214 8.7237 3.7031 8.94855C3.02693 9.14724 3.49661 13.1003 4.46849 20.9955C5.16748 26.7111 5.24283 26.2523 5.32517 27.9522C5.50202 31.7511 5.10465 33.378 6.00099 36.3182L6.00745 36.3229Z" fill="#FFE3DC"/>
<path d="M76.0011 123.653C74.225 123.935 72.201 123.986 70.0393 123.566C67.0878 122.99 65.0075 121.756 64.2535 121.251C61.1923 119.197 59.5512 116.455 58.7169 114.513L58.6877 114.438L58.1894 111.022L58.0072 110.129C53.9976 110.041 50.4632 109.174 47.4623 107.535C44.1289 105.708 42.1214 103.282 39.5777 100.213C37.5353 97.7464 36.7654 96.2814 35.6952 94.2566C34.863 92.6869 33.8331 90.7359 31.8671 87.6385C28.9827 83.1109 25.0755 76.9636 21.3215 74.6819C20.4998 74.1818 19.7222 73.6002 18.9769 73.0422C18.0305 72.3327 17.1358 71.6608 16.1502 71.1351L16.0754 71.0954C15.5701 70.8259 14.7277 70.3749 14.0731 69.4187C13.5461 68.6542 13.4161 67.9816 13.2397 67.0528C13.1941 66.8022 13.1393 66.5302 13.0737 66.2255C13.0719 66.2143 12.8325 65.1408 12.0696 62.8955C11.6178 61.5635 11.2139 60.9629 10.6007 60.0516C10.1069 59.3163 9.48634 58.3948 8.64968 56.7971C7.45058 54.5006 6.86015 53.3738 6.62302 51.813C6.46775 50.7663 6.54823 50.2322 6.68847 49.3564C6.78812 48.7276 6.92457 47.8639 7.01946 46.4167C7.17039 44.2101 7.30078 42.3046 6.78247 40.0894C6.56883 39.178 6.38961 38.8053 6.16009 38.3318C5.96618 37.9385 5.75223 37.4912 5.49425 36.6956L5.48868 36.6965L5.42703 36.4885C4.7811 34.368 4.77956 32.9246 4.78257 30.9362C4.7845 30.088 4.78065 29.1319 4.72807 27.9773C4.68479 27.0961 4.64587 26.8158 4.50928 25.8865C4.39228 25.08 4.20009 23.7298 3.87295 21.0661C2.54122 10.266 2.42747 8.69143 3.5346 8.36723C4.1513 8.18941 4.9853 8.37248 7.08755 12.8634C8.29774 15.4446 8.79156 17.5778 9.02857 18.6001L9.08265 18.8322C9.84998 22.0736 11.384 24.3228 14.443 28.7998C18.3283 34.4865 23.8728 39.3378 28.329 43.2327C29.5557 44.3046 30.7096 45.3136 31.7074 46.2384C36.8143 50.9584 38.2623 53.7425 40.276 57.6059C42.0847 61.0777 44.3373 65.4016 50.2865 72.8298C57.089 81.3145 63.5145 89.3318 74.5254 95.0307C80.4175 98.0854 86.8505 100.092 93.6513 101.003L94.2459 101.081L94.1697 101.678C93.6469 105.707 92.3481 109.488 90.3065 112.905C88.7119 115.58 86.5332 119.248 81.8996 121.694C80.6251 122.366 78.5687 123.253 76.0131 123.657L76.0011 123.653ZM59.8514 114.11C60.633 115.9 62.1423 118.388 64.922 120.251C65.6179 120.714 67.5292 121.855 70.2677 122.384C75.1856 123.336 79.3133 121.691 81.3365 120.632C85.6706 118.348 87.7564 114.849 89.2732 112.295C91.1246 109.189 92.3441 105.77 92.893 102.12C86.175 101.156 79.8144 99.1376 73.9723 96.1094C62.7368 90.2914 56.2341 82.1831 49.3517 73.5908C43.3252 66.0717 41.0406 61.6898 39.2128 58.1695C37.2623 54.4164 35.849 51.707 30.8968 47.1343C29.9128 46.2245 28.7645 45.2147 27.5451 44.1531C23.0411 40.2084 17.4302 35.299 13.465 29.5046C10.3096 24.8882 8.73147 22.5772 7.91829 19.1196L7.86243 18.8764C7.63722 17.8923 7.16232 15.8421 6.00511 13.3785C5.05272 11.3408 4.37654 10.2849 3.99401 9.81839C3.88307 11.3083 4.43996 15.8089 5.06601 20.9231C5.39137 23.5756 5.58267 24.9203 5.69879 25.7211C5.83247 26.6681 5.88319 26.9866 5.92423 27.9254C5.98127 29.108 5.97665 30.0826 5.9765 30.942C5.9773 32.7751 5.97395 34.1162 6.52238 35.9829L6.57692 36.1461C6.83645 36.9873 7.04038 37.4076 7.23607 37.812C7.47472 38.307 7.70336 38.775 7.9495 39.8188C8.51298 42.2102 8.37121 44.295 8.22117 46.5072C8.11758 48.0073 7.98002 48.8999 7.87278 49.5528C7.74592 50.3692 7.68016 50.7806 7.80606 51.6429C8.01116 53.0026 8.56953 54.0714 9.67891 56.1988C10.5138 57.7853 11.1067 58.6768 11.585 59.386C12.2275 60.3384 12.6911 61.0269 13.1957 62.511C13.9821 64.8328 14.2251 65.9286 14.2323 65.9733C14.2997 66.2892 14.3553 66.5668 14.4027 66.8286C14.5658 67.6736 14.6635 68.1794 15.0435 68.738C15.5338 69.451 16.1896 69.8055 16.6201 70.0352L16.6949 70.075C17.7618 70.6451 18.734 71.3735 19.6739 72.0783C20.3999 72.6222 21.1516 73.1849 21.9225 73.653C25.9166 76.08 29.7532 82.1067 32.8302 86.9475C34.8494 90.1282 35.8949 92.1053 36.7353 93.691C37.8129 95.726 38.5233 97.0687 40.4747 99.4294C43.0404 102.529 44.8851 104.758 48.0181 106.474C52.1948 108.757 57.4944 109.454 63.7706 108.54C64.5185 108.433 64.6744 108.409 64.9096 108.595L65.1124 108.758L65.132 109.024C65.1811 109.726 65.1855 109.754 59.2392 110.266L59.3486 110.81L59.8274 114.103L59.8514 114.11Z" fill="black"/>
<path d="M33.809 76.721C33.6954 76.7963 32.3376 77.733 32.1038 77.4836C31.8967 77.2586 32.6982 76.1979 32.8207 76.0353C33.0762 75.6683 33.4035 75.1066 33.629 74.372C34.0593 72.9519 33.8419 71.7661 33.7442 71.2602C33.4265 69.5517 32.3696 68.0405 29.2346 64.8072C27.8619 63.3918 26.4288 61.9916 24.9685 60.6359C24.9245 61.2558 24.8278 61.8669 24.6718 62.4645C24.4244 63.4203 24.0336 64.3357 23.5173 65.1794C23.3288 65.6446 22.8263 65.7872 22.5613 65.6286C22.3028 65.4748 22.1864 64.9948 22.4662 64.601C22.8064 63.9055 23.2001 62.9725 23.4797 61.897C23.6995 61.0544 23.8047 60.2816 23.7843 59.5801C23.7812 59.489 23.7735 59.4043 23.7704 59.3131L23.7584 59.1661C23.7063 58.6243 23.5706 58.1302 23.3575 57.6884C22.839 56.619 21.0391 54.0624 20.9647 53.9539C20.7719 53.675 20.5791 53.3962 20.3919 53.1165C20.1596 52.7694 19.9227 52.4288 19.6803 52.0891C19.2623 51.5078 18.9016 50.9634 18.6022 50.4093C18.2896 50.9915 17.9143 51.5379 17.4817 52.0475C17.2222 52.461 16.8104 52.635 16.5941 52.5317C16.3474 52.4161 16.199 51.8782 16.5177 51.335C16.9666 50.6052 19.1663 46.854 17.9212 42.405C17.0185 39.1736 14.7098 37.0069 13.0063 36.1308C12.4714 35.8545 11.5706 35.3956 10.4626 35.5709L10.4459 35.5736C10.045 35.637 9.29001 35.8425 8.68236 36.4714C7.43721 37.757 7.92193 39.7255 7.94641 39.8076L6.78383 40.1062C6.7115 39.8312 6.14202 37.3662 7.8184 35.6343C8.66684 34.761 9.70603 34.4762 10.2517 34.3898L10.2795 34.3854C11.7773 34.1483 12.9773 34.7661 13.5612 35.0633C15.4763 36.0491 18.0789 38.4844 19.0867 42.0888C19.7486 44.4531 19.5534 46.6324 19.0894 48.3786L19.1947 48.7172C19.4769 49.6292 19.9888 50.4419 20.6647 51.389C20.9146 51.739 21.1532 52.0908 21.3919 52.4426C21.5783 52.7167 21.7646 52.9908 21.9501 53.2594C22.1485 53.5373 23.8914 56.0228 24.4382 57.1622C24.7024 57.7104 24.8727 58.3137 24.9387 58.9792C26.707 60.5841 28.4413 62.2631 30.0931 63.9609C33.4204 67.3986 34.5515 69.0529 34.9184 71.0342C35.0214 71.5736 35.2908 73.0148 34.7687 74.7187C34.5508 75.4292 34.2293 76.0988 33.8025 76.7163L33.809 76.721Z" fill="black"/>
<path d="M115.302 74.6046C113.235 74.3531 110.234 73.6423 107.807 71.3797C105.803 69.5142 105.191 67.5316 104.143 64.6095C103.68 63.3136 100.313 54.0331 96.0883 46.5038C94.0068 42.7887 92.9181 40.8986 90.7613 39.0401C88.0957 36.7466 84.5048 35.0234 82.1864 33.9066C79.6832 32.7045 78.7013 32.4532 76.9542 31.16C74.9552 29.6833 73.7241 28.1538 72.6347 26.7966C71.5452 25.4395 70.0026 23.4952 68.7386 20.6475C67.0224 16.7887 66.014 13.0011 66.014 13.0011C65.7019 11.8303 65.4091 10.5647 64.2845 9.74015C63.0631 8.845 61.5623 8.9909 61.0559 9.03669C59.1218 9.22251 57.8413 10.3934 57.3343 10.9377C56.34 12.0059 56.0082 13.1126 55.6599 14.3307C55.3134 15.5599 54.9028 17.6415 55.2631 20.3343C53.5956 18.5015 51.979 17.2392 50.7553 16.4017C50.0512 15.9231 49.0607 15.295 47.8208 14.6778C46.1032 13.8211 44.8552 13.44 43.4743 12.9769C42.0036 12.4878 40.0121 11.7031 36.0244 10.1402C32.8586 8.89968 31.2813 8.27856 30.1429 7.72546C28.7939 7.06821 20.7473 3.0656 18.7255 2.23413C18.4565 2.12203 17.8536 1.88518 17.0737 1.93415C17.0737 1.93415 16.4913 1.96905 15.876 2.22686C14.8321 2.66135 13.5174 4.22719 12.5233 6.51568C10.5574 5.49776 8.59063 4.47425 6.61919 3.45721C6.23903 3.47155 3.96896 3.59026 2.61193 5.39196C1.53268 6.82314 1.68874 8.44835 1.7714 9.54093C2.01673 12.6587 3.98577 14.736 4.707 15.4296C4.4071 16.1989 4.01536 17.5384 4.14246 19.1969C4.35355 22.0279 5.92442 23.8989 6.48955 24.5084C7.93606 25.5627 9.38258 26.617 10.8226 27.6666C10.6606 28.4771 10.5049 29.7219 10.7167 31.1951C11.1155 33.9506 12.5731 35.8625 13.8921 37.5499C15.4905 39.5942 15.9834 39.499 18.3235 42.3654C19.3166 43.5831 20.0514 44.6126 20.4352 45.1591C22.9503 48.7655 22.3828 49.073 23.8163 50.6908C25.6896 52.8118 26.6976 52.3315 29.7121 55.2744C30.8007 56.3395 31.5602 57.2734 31.9407 57.7632C34.1237 60.5742 35.1082 63.2084 35.4446 64.066C37.2949 68.8031 40.5804 73.5192 44.9484 79.7998C47.4946 83.4585 49.59 86.4725 53.0749 90.0399C56.1161 93.1506 61.3945 98.4449 69.7995 101.938C74.4087 103.855 78.4242 104.589 79.4112 104.765C83.9732 105.561 85.6004 105.097 88.7115 105.636C91.8634 106.18 96.2658 107.694 101.25 112.182C101.384 110.476 101.638 108.058 102.134 105.184C104.091 93.8922 108.06 86.1258 108.985 84.3696C110.343 81.7829 112.364 78.3465 115.293 74.5887L115.296 74.6055L115.302 74.6046Z" fill="#FFE3DC"/>
<path d="M101.752 113.442L100.846 112.629C96.9344 109.106 92.8189 106.956 88.6106 106.23C87.2485 105.993 86.1985 105.959 84.9807 105.911C83.5165 105.856 81.852 105.799 79.3094 105.354C76.0956 104.78 72.6345 103.764 69.5718 102.49C60.8793 98.8756 55.5262 93.3983 52.6489 90.4565C49.1363 86.8591 46.9757 83.758 44.4736 80.1611L44.4074 80.0684C39.9651 73.6793 36.7531 69.0661 34.8836 64.2805L34.8436 64.1723C34.4781 63.239 33.5128 60.7623 31.4659 58.1245C30.8271 57.3032 30.0772 56.4652 29.2925 55.6957C27.7857 54.227 26.8079 53.6428 25.9446 53.1321C25.1182 52.6384 24.337 52.1777 23.3691 51.082C22.6312 50.2479 22.3678 49.7052 22.0359 49.0187C21.6948 48.3108 21.2257 47.3366 19.9448 45.4942C19.6941 45.1386 18.9255 44.04 17.8617 42.7361C16.6562 41.2598 15.9496 40.5868 15.3288 39.9861C14.7559 39.4352 14.2106 38.9142 13.4228 37.9103C12.1461 36.2735 10.555 34.2395 10.1279 31.2708C9.96932 30.1673 9.98421 29.0421 10.1706 27.9184L6.05526 24.9091C5.20758 23.9949 3.76143 22.0468 3.54745 19.2334C3.4359 17.7444 3.71228 16.4689 4.01576 15.5788C2.94317 14.471 1.39861 12.4068 1.17728 9.58309L1.16304 9.49368C1.08172 8.33786 0.946839 6.59473 2.13458 5.02034C3.5767 3.10778 5.91427 2.87527 6.59486 2.84775L6.75343 2.83983L6.89662 2.91456C8.12807 3.55032 9.35396 4.18696 10.579 4.81802L12.2464 5.68266C13.2249 3.65444 14.5022 2.14036 15.653 1.6603C16.3539 1.36604 17.0151 1.32439 17.0429 1.31998C17.9926 1.26133 18.7201 1.56438 18.9586 1.66412C20.6384 2.35496 26.3743 5.18224 29.1305 6.5391C29.7191 6.82977 30.1709 7.05042 30.4065 7.16781C31.5079 7.70385 32.9937 8.28789 36.2446 9.56073L36.7623 9.76522C40.4339 11.2064 42.272 11.9237 43.6649 12.3907L44.0987 12.534C45.34 12.9447 46.5156 13.3373 48.09 14.1193C49.1128 14.6276 50.1008 15.2045 51.0938 15.8838C52.3109 16.7166 53.4597 17.6576 54.5328 18.6965C54.4903 17.1393 54.67 15.6156 55.0867 14.1461C55.4321 12.9456 55.7825 11.7043 56.8991 10.5078C57.5479 9.81505 58.9381 8.61537 61.0019 8.42046C61.5705 8.37056 63.2531 8.21881 64.6423 9.23633C65.8896 10.1503 66.2459 11.4918 66.5597 12.6738L66.6022 12.8332C66.6084 12.8723 67.6227 16.6246 69.295 20.3873C70.5499 23.2135 72.0889 25.1354 73.1076 26.4063C74.1686 27.7279 75.372 29.2274 77.3129 30.6618C78.5296 31.5634 79.3346 31.9229 80.6692 32.5252C81.1794 32.7538 81.7579 33.0174 82.45 33.349C84.8673 34.5131 88.447 36.2381 91.1587 38.5701C93.3552 40.4624 94.4827 42.3807 96.62 46.1959C100.789 53.6308 104.093 62.6578 104.718 64.3922L104.922 64.9557C105.85 67.5586 106.461 69.278 108.229 70.9229C109.959 72.534 112.243 73.5473 115.035 73.9419L115.685 73.1115L115.833 74.0447L119.663 74.5097L115.621 75.1495C113.326 78.1195 111.277 81.3139 109.528 84.6328C108.086 87.3703 104.541 94.8633 102.74 105.271C102.337 107.615 102.041 109.954 101.864 112.21L101.771 113.422L101.752 113.442ZM6.88967 24.0551L11.4875 27.4063L11.4109 27.7851C11.1893 28.9029 11.1559 30.0196 11.3119 31.1063C11.6947 33.7612 13.1774 35.6519 14.3677 37.1764C15.0993 38.1147 15.5903 38.5813 16.1568 39.1275C16.8034 39.747 17.5376 40.45 18.7918 41.9816C19.8842 43.3211 20.673 44.4394 20.932 44.8109C22.2717 46.7357 22.7655 47.7575 23.1239 48.5028C23.4476 49.1734 23.6433 49.5778 24.2707 50.292C25.1135 51.247 25.7506 51.6274 26.5632 52.1061C27.4395 52.6262 28.5299 53.2728 30.1389 54.8456C30.9642 55.6545 31.7546 56.532 32.4228 57.3944C34.5772 60.1699 35.5899 62.7651 35.9681 63.7422L36.0082 63.8504C37.8275 68.5007 41.0037 73.068 45.3955 79.3907L45.4469 79.4628C48.0372 83.1833 50.0665 86.1046 53.51 89.627C56.3265 92.5097 61.5701 97.8726 70.0362 101.391C73.0249 102.63 76.3907 103.622 79.5221 104.18C81.9822 104.61 83.6013 104.669 85.0304 104.717C86.2361 104.761 87.3779 104.798 88.8223 105.051C92.9372 105.763 96.9462 107.747 100.764 110.964C100.948 109.038 101.211 107.072 101.552 105.093C103.39 94.5128 106.999 86.8893 108.466 84.0962C110.122 80.9411 112.047 77.9037 114.196 75.0543C111.457 74.5597 109.178 73.4768 107.41 71.8319C105.432 69.9908 104.743 68.0605 103.792 65.3867L103.588 64.8231C102.972 63.1046 99.6975 54.1588 95.5758 46.808C93.4541 43.0191 92.4275 41.2681 90.3831 39.5064C87.7968 37.2805 84.2975 35.5944 81.9855 34.4823C81.2564 34.1337 80.6899 33.8739 80.1862 33.65C78.8267 33.0345 77.9292 32.6323 76.6092 31.6554C74.5392 30.1269 73.2852 28.5609 72.1754 27.1841C71.1145 25.8625 69.5185 23.8694 68.2014 20.9041C66.4852 17.0452 65.4568 13.2036 65.445 13.1653L65.4025 13.0059C65.1158 11.9227 64.8436 10.8945 63.9395 10.2356C62.9119 9.4816 61.6235 9.5996 61.1338 9.64275C59.4585 9.80479 58.3137 10.7881 57.7824 11.3591C56.8665 12.3462 56.5656 13.3964 56.2459 14.5068C55.7275 16.3419 55.6025 18.2809 55.8665 20.2614L56.1245 22.1683L54.8306 20.7462C53.5082 19.2884 52.0243 17.9994 50.4288 16.9057C49.4811 16.2594 48.5429 15.7089 47.5636 15.2223C46.0631 14.4745 44.93 14.0981 43.7304 13.6979L43.2901 13.5499C41.8731 13.0753 40.0174 12.355 36.3274 10.9054L35.8097 10.7009C32.5283 9.41567 31.0296 8.82222 29.8857 8.26999C29.6445 8.15349 29.1927 7.93284 28.6032 7.63658C25.859 6.28354 20.148 3.4695 18.5043 2.79014C18.3083 2.70658 17.7888 2.49092 17.1164 2.53432C17.1164 2.53432 16.6194 2.56718 16.1109 2.77942C15.3133 3.11191 14.0677 4.4663 13.0792 6.75391L12.825 7.34412L10.0314 5.89578C8.85536 5.28562 7.67935 4.67546 6.49778 4.06617C5.80961 4.11781 4.13281 4.3775 3.09654 5.75605C2.1819 6.96639 2.29302 8.38102 2.37145 9.41125L2.3848 9.49507C2.58946 12.1782 4.19061 14.096 5.12738 14.9961L5.41752 15.2767L5.27136 15.6493C4.96679 16.425 4.63319 17.6637 4.74473 19.1528C4.92248 21.5594 6.14975 23.2442 6.89524 24.0543L6.88967 24.0551Z" fill="black"/>
<path d="M100.174 122.382C101.102 124.372 102.615 125.41 103.271 125.805C104.686 126.801 106.813 128.366 109.264 130.459C114.733 135.127 116.055 137.513 120.109 139.025C121.42 139.517 123.873 140.4 126.833 139.955C128.946 139.638 131.608 138.609 137.118 132.495C142.895 126.081 146.224 120.278 147.148 118.625C149.633 114.192 148.107 115.935 153.352 104.747C153.681 104.053 156.974 97.024 157.873 89.9097C158.023 88.7345 158.182 86.939 157.157 85.4169C156.829 84.9304 156.133 84.1124 152.259 82.5086C150.444 81.7589 148.893 81.231 147.782 80.8856C139.684 78.0999 131.591 75.3134 123.493 72.5278C122.412 72.2235 121.496 72.1392 120.86 72.1253C119.937 72.0995 118.266 72.0719 116.48 72.9733C115.714 73.3581 115.152 73.808 114.802 74.1211C111.697 77.8838 108.512 82.5815 105.841 88.2806C104.499 91.1455 101.448 98.188 100.104 107.853C99.4724 112.382 99.3836 116.268 99.455 119.19C99.4669 119.91 99.5861 121.089 100.186 122.38L100.174 122.382Z" fill="#1818D8"/>
<path d="M127.005 140.541L126.927 140.553C123.745 141.034 121.152 140.058 119.902 139.591C117.049 138.525 115.476 137.032 113.1 134.767C111.948 133.666 110.638 132.424 108.874 130.922C106.965 129.293 104.965 127.737 102.927 126.301C101.942 125.712 100.534 124.571 99.6324 122.64L99.2943 121.914L99.3444 121.906C99.035 121.039 98.8714 120.119 98.8562 119.199C98.7647 115.399 98.9858 111.554 99.5134 107.769C100.467 100.893 102.469 94.068 105.302 88.0225C107.702 82.9106 110.743 78.1038 114.346 73.7353L114.41 73.668C114.964 73.1734 115.572 72.7565 116.216 72.4311C118.171 71.4456 120 71.4941 120.883 71.5205C121.794 71.5424 122.73 71.6808 123.662 71.9456L147.982 80.3158C149.447 80.7713 150.973 81.3204 152.495 81.9503C156.222 83.4914 157.183 84.3648 157.662 85.0795C158.873 86.8758 158.603 88.9809 158.478 89.9861C157.575 97.1125 154.277 104.217 153.905 105.003C151.17 110.839 150.29 113.126 149.709 114.639C149.18 116.012 148.889 116.768 147.685 118.918C146.165 121.633 142.833 127.059 137.576 132.898C132.39 138.652 129.594 140.131 127.016 140.539L127.005 140.541ZM100.89 122.47C101.709 123.996 102.906 124.883 103.576 125.287C105.684 126.769 107.71 128.345 109.646 129.998C111.431 131.526 112.754 132.777 113.919 133.887C116.268 136.128 117.687 137.479 120.314 138.455C121.467 138.885 123.865 139.783 126.742 139.351C126.764 139.347 126.786 139.344 126.814 139.339C128.835 139.02 131.44 137.885 136.675 132.084C141.856 126.332 145.133 120.995 146.625 118.324C147.79 116.249 148.053 115.566 148.578 114.205C149.168 112.674 150.055 110.362 152.813 104.489C153.181 103.715 156.403 96.7767 157.283 89.8315C157.391 88.9666 157.619 87.1717 156.668 85.7525C156.451 85.4316 155.943 84.6813 152.039 83.0652C150.554 82.4523 149.063 81.9091 147.616 81.4621L123.309 73.0958C122.508 72.873 121.671 72.742 120.858 72.7274C120.016 72.7061 118.445 72.6626 116.76 73.5137C116.22 73.7824 115.711 74.1323 115.245 74.544C111.72 78.8257 108.742 83.5307 106.395 88.5426C103.613 94.477 101.65 101.187 100.711 107.941C100.19 111.661 99.9759 115.442 100.069 119.179C100.079 119.888 100.206 120.974 100.744 122.126L100.902 122.473L100.89 122.47Z" fill="black"/>
<path d="M68.0957 42.4607C59.7064 38.1342 53.7162 33.5311 50.2947 28.785L50.1413 28.5744C49.2513 27.3231 47.3942 24.7298 44.0138 22.7155C42.2863 21.6885 41.0242 21.3268 39.1108 20.7818C38.4706 20.5967 37.7655 20.3989 36.9552 20.1491C31.9171 18.5863 28.4221 16.8193 24.7228 14.9529C20.5514 12.8462 16.483 10.3106 12.632 7.41984L11.2567 6.52613C11.3619 6.18294 11.4736 5.84445 11.5787 5.50126C12.1662 5.82075 12.7592 6.13936 13.3466 6.45886C17.8882 9.77884 21.9831 12.23 25.2601 13.8825C28.916 15.7271 32.3676 17.4723 37.3095 19.0046C38.1078 19.2506 38.8073 19.4492 39.4355 19.6305C41.3674 20.184 42.7608 20.5822 44.626 21.6848C48.2206 23.8255 50.175 26.5639 51.1146 27.8761L51.2616 28.082C53.0043 30.1721 55.2588 32.5365 58.1077 34.8698C62.1248 38.1582 66.038 40.3287 69.1599 41.7595C70.6359 42.282 71.004 42.5503 70.9697 42.6932C70.9456 42.8288 70.563 42.9352 69.2757 42.8812C68.8818 42.7373 68.4832 42.5999 68.0892 42.456L68.0957 42.4607Z" fill="black"/>
<path d="M72.0175 35.9853C67.961 33.8833 64.2225 31.2325 60.8996 28.1092C58.1727 25.5389 55.727 22.6548 53.6417 19.5247L54.6371 18.8573C56.3188 21.3524 58.625 24.2929 61.7193 27.2347C65.9705 31.2766 70.2126 33.8992 73.4821 35.5759C74.8899 36.1723 75.0387 36.3893 75.0186 36.4784C74.9653 36.6816 73.9654 36.6394 73.1557 36.4296C72.6671 36.3007 72.2798 36.1271 72.0175 35.9853Z" fill="black"/>
<path d="M57.8294 49.975C55.9583 48.226 54.4128 46.729 53.2607 45.588C50.659 43.0151 48.3099 40.5225 46.8414 39.0077C46.8211 38.9879 43.9026 35.9668 41.2763 34.4576C39.7812 33.6 38.0565 32.8418 38.0389 32.8389C36.9408 32.3596 36.1001 32.063 35.8282 31.9686C28.0941 29.2112 18.8046 20.0202 18.4114 19.6299C18.0513 19.2687 16.1366 17.3891 13.3945 15.2967C10.3407 12.9672 9.50806 12.8641 8.85663 12.9672L8.85106 12.9681C7.01369 13.2589 5.91423 15.6386 5.61835 16.3614L4.50712 15.9071C4.96319 14.7923 6.27382 12.1615 8.66241 11.7834L8.67354 11.7817C9.82608 11.5992 10.9834 11.9488 14.1212 14.3395C16.9278 16.479 18.8913 18.4139 19.2569 18.7742C19.3518 18.868 28.7444 28.1688 36.1807 30.8128C36.5072 30.9273 37.3784 31.2362 38.5134 31.7326C38.5874 31.7667 40.3168 32.5184 41.8691 33.4128C44.6404 35.0078 47.5847 38.0479 47.7081 38.1773C50.0336 40.5934 51.2033 41.7373 54.1006 44.7332C55.9724 46.6655 57.5148 48.2145 58.5048 49.1978C60.236 51.2153 60.4535 51.6851 60.3704 51.7727C60.2864 51.8547 59.8197 51.6479 57.8238 49.9759L57.8294 49.975Z" fill="black"/>
<path d="M48.4244 55.9439C45.9546 51.7976 42.5601 48.1528 38.6006 45.4052C37.6317 44.7337 36.6116 44.0988 35.6173 43.4828C34.3886 42.7206 33.1155 41.931 31.9199 41.0547C28.6368 38.6469 25.9078 35.5613 23.611 32.86L23.4556 32.6726C21.9104 30.8548 20.3099 28.977 18.248 27.8941C16.3866 26.9226 13.5919 26.6145 11.8467 28.237L11.0322 27.3519C13.1999 25.336 16.5803 25.666 18.803 26.8266C21.0755 28.0137 22.7477 29.9832 24.3702 31.8919L24.5256 32.0793C26.7801 34.7301 29.4538 37.7556 32.6328 40.0825C33.7896 40.9306 35.0433 41.7061 36.2535 42.4597C37.2543 43.0805 38.2929 43.7238 39.2876 44.4143C43.3882 47.2598 46.9006 51.0348 49.4565 55.3279C49.5956 55.5924 49.7784 55.9874 49.9327 56.49C50.1813 57.2985 50.3428 58.3844 50.1374 58.457C49.986 58.5096 49.6779 58.0084 49.0642 57.0228C48.7873 56.5739 48.5738 56.201 48.4299 55.943L48.4244 55.9439Z" fill="black"/>
<path d="M58.7793 10.2151C58.5563 10.5712 58.6511 10.9514 58.6691 11.0288C58.9297 11.9844 59.4052 13.3929 60.2987 14.9529C61.3589 16.8074 62.1324 17.5787 62.8052 17.8961C64.7495 18.8143 66.9484 17.6757 67.4629 17.3937C67.4008 17.1114 67.3063 16.6967 67.1743 16.1905C66.6771 14.287 66.1083 12.8303 65.7679 12.0191C65.6036 11.6326 65.3772 11.107 65.0727 10.485C64.9289 10.227 64.6178 9.74346 64.0344 9.3775C63.5267 9.05685 63.0581 8.98207 62.7646 8.93113C62.0321 8.81219 61.4584 8.93738 61.0406 9.03788C60.5894 9.14368 59.8713 9.36619 59.0994 9.89513C59.0109 9.94923 58.8731 10.0513 58.7728 10.2103L58.7784 10.2095L58.7793 10.2151Z" fill="#FFE3DC"/>
<path d="M65.315 18.7769C64.4519 18.9136 63.4816 18.8781 62.5501 18.4412C61.6491 18.0167 60.7963 17.0345 59.7764 15.2539C59.0415 13.9724 58.4758 12.6068 58.0903 11.1897C58.0714 11.1068 58.0581 11.023 58.0503 10.9383L57.5659 11.015L58.2658 9.89015C58.4251 9.63579 58.6394 9.47584 58.7846 9.3841C59.4122 8.95248 60.1319 8.63233 60.9025 8.45307C61.2766 8.3652 61.9748 8.19739 62.8592 8.33813C63.211 8.39701 63.7573 8.49386 64.3537 8.86924C64.8669 9.18901 65.2867 9.63817 65.5973 10.1905C65.9027 10.8182 66.1255 11.3214 66.319 11.7835C66.8884 13.137 67.3675 14.5679 67.7554 16.0361C67.8891 16.5534 67.9846 16.9737 68.0476 17.2617L68.1466 17.7043L67.7531 17.9213C67.2702 18.1867 66.3728 18.6095 65.315 18.7769ZM59.3196 10.4853L59.2877 10.5362C59.2333 10.625 59.2186 10.7476 59.252 10.8856C59.6077 12.187 60.1359 13.4611 60.8168 14.6538C61.6799 16.1671 62.4138 17.0477 63.0561 17.3528C64.3831 17.9792 65.9011 17.4754 66.7668 17.0691C66.7163 16.8594 66.6596 16.6106 66.5881 16.3412C66.2202 14.9271 65.7557 13.5512 65.2118 12.2509C65.0219 11.8112 64.8129 11.323 64.5331 10.7485C64.3407 10.4009 64.059 10.1017 63.7166 9.8867C63.3233 9.63959 62.9529 9.57217 62.689 9.52801C62.0742 9.43056 61.6091 9.52135 61.1858 9.62274C60.5582 9.76792 59.9715 10.0269 59.4416 10.3915C59.4053 10.4144 59.3588 10.4447 59.3251 10.4844L59.3196 10.4853Z" fill="black"/>
<path d="M2.15508 7.43461C2.28354 7.63198 2.44699 7.72641 2.52827 7.77083C3.10814 8.11444 5.56167 9.54212 6.84573 9.93468C6.95953 9.96822 7.15105 10.0238 7.38756 10.0036C7.88287 9.95956 8.19426 9.69258 9.0503 8.65192C9.45682 8.15791 9.97584 7.47422 10.535 6.61232C10.5668 6.56145 10.6419 6.42353 10.6284 6.23089C10.6184 6.06061 10.5431 5.94649 10.5064 5.89501C8.54904 4.42889 7.03815 3.43634 6.51037 3.20479C6.38745 3.14977 6.11755 3.03209 5.74763 3.03908C5.45188 3.04579 5.2149 3.13486 5.06701 3.20983C4.45964 3.51794 4.01973 3.87401 3.88631 4.00398C2.95614 4.9017 2.28735 6.22207 2.11358 6.56467C2.07415 6.63965 1.98102 6.84345 2.02196 7.1005C2.04598 7.25137 2.1101 7.36726 2.15508 7.43461Z" fill="#FFE3DC"/>
<path d="M7.57586 10.5869C7.53131 10.594 7.48677 10.601 7.44223 10.6081C7.09347 10.6404 6.8122 10.5589 6.67992 10.5168C5.33574 10.1051 2.93298 8.70948 2.22751 8.2941C2.15269 8.25438 1.871 8.09846 1.65903 7.77109C1.54526 7.59432 1.46957 7.40579 1.43665 7.19903C1.38771 6.89169 1.43898 6.56849 1.58913 6.29265C1.83999 5.78891 2.53461 4.48736 3.47414 3.5767C3.65701 3.3988 4.1379 3.01333 4.79828 2.67964C4.99918 2.5791 5.32725 2.45269 5.73703 2.44512C6.24881 2.43286 6.61847 2.6035 6.75899 2.66146C7.38475 2.93479 9.00163 4.01941 10.8686 5.41964L10.9984 5.55377C11.138 5.74937 11.219 5.97143 11.2341 6.20965C11.2606 6.55492 11.1318 6.82165 11.0494 6.94927C10.5548 7.71501 10.0394 8.42105 9.51789 9.05356C8.7142 10.0286 8.26337 10.4953 7.57853 10.6037L7.57586 10.5869ZM5.62703 3.65413C5.50453 3.67352 5.4023 3.71262 5.33348 3.74643C4.7838 4.02249 4.39044 4.34828 4.29622 4.43767C3.49012 5.21835 2.87525 6.37552 2.64601 6.83574C2.6244 6.87926 2.59989 6.94043 2.61057 7.00749C2.61591 7.04102 2.62681 7.07366 2.64797 7.09896C2.70118 7.1822 2.76397 7.21809 2.8074 7.23986C4.15642 8.04034 6.04902 9.06413 7.01485 9.3581C7.09814 9.37929 7.20636 9.41372 7.33064 9.4055C7.56626 9.37967 7.75981 9.26882 8.58222 8.26786C9.07472 7.66858 9.55744 7.00783 10.0248 6.28649C8.13939 4.87773 6.71334 3.95195 6.26506 3.75365C6.17265 3.71099 5.99516 3.63596 5.75597 3.63945C5.71054 3.64091 5.66511 3.64238 5.62614 3.64855L5.62703 3.65413Z" fill="black"/>
<path d="M11.583 28.6751C11.5261 29.4289 12.0142 30.0563 12.3929 30.5349C12.4573 30.6163 12.7643 31.0031 13.2219 31.475C13.256 31.5097 13.2827 31.5341 13.2974 31.5547C13.5285 31.7873 13.9153 32.173 14.5419 32.7383C14.576 32.773 14.7933 32.9907 15.1151 32.9684C15.2848 32.9587 15.4095 32.8817 15.471 32.8376C16.3724 31.9387 17.273 31.0342 18.1744 30.1353C18.1894 30.1215 18.3143 30.0101 18.309 29.8333C18.3037 29.6566 18.1848 29.5551 18.1654 29.541C17.3923 28.7009 16.6128 27.8561 15.8397 27.016C15.6987 26.8836 15.4342 26.6563 15.0382 26.5356C14.6839 26.4256 14.3955 26.4426 14.2091 26.4549C13.2103 26.5271 12.5305 27.1331 12.4456 27.2095C12.1714 27.4592 11.6333 27.9511 11.5784 28.6816L11.583 28.6751Z" fill="#FFE3DC"/>
<path d="M15.2708 33.5563C15.2318 33.5624 15.1928 33.5686 15.153 33.5692C14.6225 33.6073 14.2528 33.2935 14.1175 33.1602C13.4641 32.5704 13.0498 32.1548 12.873 31.9766L12.8095 31.9007C12.3537 31.44 12.0346 31.0494 11.9206 30.907C11.7349 30.6729 11.5125 30.3873 11.3275 30.0499L10.8176 30.7551L10.9763 28.6332C11.0495 27.6592 11.7425 27.0282 12.0371 26.7638C12.2516 26.5695 13.0355 25.9355 14.1586 25.8551C14.3617 25.8402 14.7401 25.8147 15.2091 25.9639C15.7669 26.1334 16.129 26.4713 16.2432 26.5793L18.5745 29.1033C18.7348 29.2498 18.8945 29.4995 18.9044 29.8131C18.9155 30.0977 18.7941 30.3748 18.5805 30.5747L15.8165 33.3267C15.647 33.4452 15.4601 33.5263 15.2652 33.5572L15.2708 33.5563ZM13.7397 31.1462C14.0187 31.4286 14.3778 31.7842 14.9436 32.2904C14.9906 32.3345 15.0358 32.3675 15.0757 32.3669L17.6241 29.8381L15.4015 27.4229C15.3148 27.345 15.1305 27.1908 14.8668 27.1122C14.6087 27.0328 14.4056 27.0478 14.2526 27.0548C13.4902 27.1067 12.9523 27.5642 12.8525 27.6545C12.6334 27.8553 12.2696 28.1879 12.1925 28.6355L12.1883 28.7164C12.1467 29.2443 12.5466 29.7481 12.8684 30.1555C12.975 30.2876 13.2591 30.6379 13.6559 31.0506C13.69 31.0853 13.7176 31.1153 13.7443 31.1397L13.7397 31.1462Z" fill="black"/>
<path d="M5.48196 15.4958C6.48151 16.5751 7.36751 17.4431 8.05934 18.0955C9.34259 19.3074 9.99927 19.8107 10.7084 19.6756C11.0964 19.6027 11.3779 19.3634 11.5637 19.1678C12.3745 18.0942 13.1853 17.0206 14.0017 15.9461C14.0403 15.8656 14.1158 15.6588 14.074 15.3962C14.0224 15.0721 13.8206 14.8806 13.7598 14.8215C13.2232 14.3908 12.5977 13.9398 11.8813 13.4918C11.1022 13.0079 10.3622 12.6266 9.69121 12.3203C9.58097 12.3091 9.43732 12.3032 9.27319 12.312C9.27319 12.312 9.01262 12.3246 8.75828 12.3763C8.01664 12.5224 7.15575 13.3175 7.15575 13.3175C6.36947 14.0434 5.83016 14.8506 5.47083 15.4976L5.48196 15.4958Z" fill="#FFE3DC"/>
<path d="M10.758 20.2805C9.75022 20.44 8.90027 19.7267 7.64374 18.5392C6.81095 17.7544 6.02916 16.9673 5.25874 16.144L4.34005 16.2894L4.94422 15.2084C5.44524 14.3041 6.0567 13.5199 6.74787 12.8777C6.84766 12.7874 7.76067 11.9612 8.64061 11.7875C8.92836 11.7305 9.2112 11.7144 9.23993 11.7156C9.4152 11.705 9.58757 11.7121 9.7497 11.7265L9.84791 11.7339L9.94033 11.7766C10.7222 12.134 11.4833 12.5406 12.1988 12.9831C12.8838 13.4131 13.5389 13.8709 14.1354 14.3551L14.1815 14.3936C14.4514 14.6545 14.6144 14.961 14.6696 15.3074C14.739 15.7433 14.6051 16.0853 14.5449 16.2094L14.4821 16.3168C13.6657 17.3912 12.8549 18.4648 12.044 19.5385L12.001 19.5911C11.6388 19.9692 11.2526 20.1965 10.8201 20.2764C10.7979 20.2799 10.7811 20.2826 10.7589 20.2861L10.758 20.2805ZM6.22029 15.4074C6.94841 16.1801 7.68232 16.9176 8.46812 17.6582C9.70439 18.826 10.199 19.1717 10.5907 19.0868C10.7633 19.0594 10.929 18.953 11.1008 18.7769C11.8882 17.7356 12.6757 16.6944 13.4687 15.6522C13.48 15.616 13.4887 15.5631 13.478 15.496C13.4585 15.3731 13.3783 15.2999 13.3433 15.2596C12.8205 14.8439 12.2088 14.408 11.5626 14.0061C10.9108 13.6051 10.2485 13.2459 9.53971 12.917C9.47111 12.9164 9.39049 12.912 9.30609 12.9196C9.30609 12.9196 9.07981 12.9325 8.88115 12.9754C8.46067 13.0592 7.85238 13.5049 7.56327 13.7684C7.06611 14.2309 6.61191 14.784 6.22118 15.413L6.22029 15.4074Z" fill="black"/>
<path d="M17.0744 1.58506C18.4406 2.17084 19.8124 2.75575 21.1777 3.33595C21.2258 3.35125 21.7048 3.5275 21.8259 4.00102C21.9009 4.29278 21.8038 4.54303 21.7661 4.6292C21.5386 5.1006 21.3257 5.48377 21.1606 5.77343C20.973 6.10102 20.8362 6.31745 20.6066 6.56004C20.4059 6.7694 20.2593 6.92436 20.0159 7.00873C19.6805 7.12484 19.3464 7.03449 19.1106 6.95151C18.4327 6.70935 16.6087 5.82939 14.207 4.54817C14.1591 4.49846 14.0093 4.31021 14.0111 4.03494C14.0098 3.81172 14.1101 3.65263 14.1513 3.58881L15.6963 1.82039C15.8034 1.74041 16.0473 1.58723 16.399 1.53729C16.7052 1.48882 16.9495 1.55327 17.0753 1.59064L17.0744 1.58506Z" fill="#FFE3DC"/>
<path d="M19.9412 7.64466C19.5347 7.70899 19.1702 7.60629 18.9167 7.52037C18.1538 7.24584 16.1977 6.28939 13.9272 5.07907L13.8459 5.03465L13.7778 4.96523C13.6894 4.8761 13.408 4.54255 13.4114 4.02641C13.4103 3.62555 13.5892 3.3509 13.6482 3.25562L13.6997 3.18446L15.3398 1.33223C15.4982 1.2155 15.8296 1.00263 16.3158 0.937131L16.3492 0.931843C16.5608 0.898353 16.8008 0.900454 17.0712 0.949322C17.1498 0.976981 17.2284 1.00464 17.3061 1.02671C18.6723 1.6125 20.0441 2.1974 21.4094 2.7776C21.4446 2.78349 22.2002 3.04773 22.4081 3.85124C22.4949 4.18123 22.461 4.54178 22.3141 4.87438C22.0697 5.38283 21.8474 5.77894 21.6832 6.07419C21.4957 6.40178 21.3335 6.67379 21.045 6.97725C20.8145 7.21425 20.5951 7.44949 20.216 7.57824C20.124 7.60998 20.0303 7.63055 19.9412 7.64466ZM14.6198 4.0872C17.0713 5.39489 18.743 6.17866 19.3127 6.3864C19.4643 6.44259 19.6614 6.49733 19.8184 6.44383C19.916 6.41121 19.9795 6.34387 20.1661 6.15392C20.3519 5.95837 20.4615 5.78635 20.6406 5.47728C20.7963 5.20056 21.0055 4.82945 21.2236 4.37099C21.2321 4.35246 21.268 4.25512 21.2408 4.1563C21.1983 3.99689 20.9856 3.91598 20.9847 3.91039C19.601 3.32166 18.2541 2.74999 16.912 2.17186C16.7973 2.13272 16.6519 2.11564 16.4839 2.13649C16.3058 2.16469 16.1793 2.23055 16.1066 2.27641L14.6438 3.95163C14.6438 3.95163 14.6185 4.00721 14.6173 4.03603L14.6262 4.09191L14.6198 4.0872Z" fill="black"/>
</g>
<defs>
<clipPath id="clip0_191_311">
<rect width="159" height="154" fill="white"/>
</clipPath>
</defs>
</svg>
