<svg width="292" height="61" viewBox="0 0 292 61" fill="none" xmlns="http://www.w3.org/2000/svg">
<path d="M260.887 0C266.562 0 271.774 1.26201 276.514 3.78602C281.254 6.31003 285.012 9.9026 287.79 14.5545C290.595 19.1788 292.002 24.5308 292.002 30.6013C292.002 36.6718 290.548 41.8396 287.651 46.4639C284.781 51.0606 280.902 54.6347 276.005 57.1956C271.108 59.7196 265.766 60.9816 259.971 60.9816C254.629 60.9816 249.63 59.7656 244.974 57.3337C240.326 54.9018 236.577 51.4106 233.744 46.8784C230.939 42.3463 229.532 37.0864 229.532 31.108C229.532 24.5308 231.013 18.8932 233.966 14.2045C236.957 9.5157 240.836 5.98762 245.603 3.61099C250.408 1.20674 255.49 0 260.869 0H260.887ZM262.387 57.518C266.007 57.518 269.275 56.5599 272.172 54.6347C275.07 52.7094 277.338 49.9367 278.967 46.2981C280.624 42.6595 281.457 38.376 281.457 33.457C281.457 27.8654 280.522 22.8082 278.652 18.2668C276.782 13.6978 274.153 10.096 270.774 7.45228C267.423 4.80852 263.6 3.48203 259.313 3.48203C255.777 3.48203 252.546 4.39399 249.621 6.23633C246.723 8.04183 244.409 10.7409 242.687 14.3519C240.965 17.9536 240.104 22.3016 240.104 27.3772C240.104 33.024 241.058 38.1457 242.956 42.7516C244.853 47.3482 247.501 50.9684 250.88 53.6122C254.296 56.2283 258.129 57.5364 262.387 57.5364V57.518ZM198.668 35.3822C197.946 34.3044 197.325 33.503 196.807 32.9964C196.316 32.4805 195.705 32.0752 195.039 31.8265C194.344 31.5593 193.391 31.3935 192.187 31.3291L189.336 31.1448V48.4997C189.336 50.6644 189.521 52.2581 189.882 53.2806C190.271 54.3031 190.79 54.9755 191.419 55.3072C192.086 55.6388 193.067 55.9059 194.363 56.1178C195.196 56.2467 196.029 56.4126 196.853 56.6152C197.575 56.7902 198.334 57.085 199.121 57.4719L199.029 59.8117H170.358L170.266 57.4719C171.08 57.0205 171.839 56.7073 172.534 56.5231C173.348 56.2928 174.182 56.1086 175.024 55.9796C176.227 55.7954 177.125 55.5467 177.699 55.215C178.301 54.8558 178.773 54.0912 179.107 52.9213C179.44 51.7514 179.606 49.8907 179.606 47.3298V13.1635C179.606 11.0264 179.421 9.4328 179.06 8.38266C178.699 7.29568 178.172 6.56795 177.477 6.17185C176.811 5.74811 175.755 5.31516 174.302 4.86379C172.765 4.44005 171.414 3.97946 170.275 3.46361L170.367 1.12383H191.252C196.899 1.12383 201.834 1.38176 206.064 1.8884C210.295 2.39505 214.072 3.74917 217.386 5.94156C220.738 8.13395 222.413 11.5146 222.413 16.0837C222.413 18.9117 221.608 21.3528 220.015 23.4346C218.442 25.4796 216.405 27.0825 213.896 28.2616C211.415 29.4314 208.768 30.2329 205.926 30.6474C206.287 31.1264 208.083 33.6228 211.313 38.1273C213.313 40.9553 215.331 43.7649 217.386 46.556C219.006 48.7208 220.682 50.8395 222.413 52.9121C223.413 53.9622 224.302 54.7913 225.089 55.3901C225.875 55.9888 226.857 56.4678 228.032 56.8363C229.208 57.1956 230.689 57.3798 232.467 57.3798V59.9038C229.477 60.6223 226.82 60.9816 224.496 60.9816C221.293 60.9816 218.349 60.0051 215.664 58.0522C213.007 56.0994 210.675 53.7596 208.731 51.1158C206.796 48.4444 204.574 45.0269 202.074 40.8816C200.593 38.3576 199.464 36.5245 198.677 35.3822H198.668ZM191.604 28.1326C195.474 28.1326 198.806 27.9023 201.612 27.4601C204.417 27.0088 206.823 25.9402 208.814 24.2637C210.841 22.5779 211.85 20.0447 211.85 16.6456C211.85 12.924 210.767 10.1697 208.592 8.40109C206.444 6.62323 203.926 5.54545 201.028 5.15856C198.131 4.73482 194.567 4.53217 190.336 4.53217H189.336V28.151H191.604V28.1326Z" fill="black"/>
<path d="M120.048 11.5409L118.965 8.79585C118.604 7.88389 118.224 6.98115 117.835 6.08761C117.474 5.78362 116.234 5.23092 114.123 4.42029C112.466 3.75704 111.272 3.25961 110.55 2.92799C109.827 2.59637 109.457 2.30159 109.457 2.02524C109.457 1.96076 109.503 1.81337 109.596 1.57387C109.652 1.41727 109.707 1.26988 109.781 1.12249H138.859C138.887 1.21461 138.933 1.362 138.998 1.57387C139.09 1.78574 139.137 1.93312 139.137 2.02524C139.137 2.71612 138.803 3.16749 138.137 3.37936C137.507 3.59123 136.489 3.75704 135.1 3.8768C133.564 3.99655 132.397 4.20842 131.61 4.50319C130.824 4.77033 130.435 5.35988 130.435 6.26263C130.435 6.88903 132.129 12.5266 135.508 23.1661C138.924 33.8057 141.173 40.6868 142.257 43.8096L143.525 39.9775C150.588 18.9748 154.125 7.75493 154.125 6.30869C154.125 5.37831 153.671 4.73349 152.764 4.37423C151.857 3.98734 150.533 3.66493 148.774 3.42542C148.061 3.33331 147.348 3.21355 146.645 3.06617C145.95 2.91878 145.404 2.73454 145.015 2.52267L144.747 2.02524L145.015 1.12249H168.437C168.557 1.12249 168.705 1.18697 168.89 1.30673C169.075 1.39884 169.196 1.50017 169.251 1.61993C169.251 2.0713 168.9 2.43056 168.215 2.6977C167.52 2.9372 166.4 3.22276 164.863 3.55439C162.595 4.0334 160.799 4.55846 159.475 5.12959C158.142 5.67308 157.272 6.51135 156.846 7.6536C156.467 8.72216 156.124 9.80914 155.8 10.8961C155.541 11.7528 155.282 12.6095 155.032 13.4662C154.902 14.0097 154.745 14.5532 154.578 15.0875L141.035 59.7551C140.849 60.3538 140.22 60.6578 139.137 60.6578C138.655 60.6578 138.248 60.5933 137.915 60.4736C137.609 60.3538 137.369 60.1143 137.193 59.7551C136.619 58.6405 136.045 57.0008 135.471 54.8452L134.656 52.2752L121.788 15.0046L110.059 48.5813C109.79 49.3274 109.411 50.5526 108.93 52.2291C108.356 54.1267 107.874 55.6098 107.476 56.6876C107.097 57.7377 106.661 58.7602 106.162 59.7551C105.976 60.142 105.736 60.3999 105.439 60.5196C105.134 60.667 104.745 60.7499 104.264 60.7499C103.357 60.7499 102.588 60.1235 101.949 58.8523C101.32 57.5903 100.681 55.9691 100.042 53.9885L99.5887 52.5423L93.3862 35.9981C90.035 26.9245 86.6375 17.9062 83.1937 8.95245C82.7123 7.71808 81.9995 6.80612 81.0645 6.20736C80.1572 5.58096 78.9352 4.97299 77.3985 4.40186C76.2506 3.97813 75.3711 3.61887 74.7694 3.32409C74.1491 3.0109 73.5844 2.59637 73.0938 2.10815L73.4085 1.11328H102.533C102.56 1.2054 102.607 1.35279 102.671 1.56466C102.736 1.74889 102.764 1.89628 102.764 2.01603C102.764 2.61479 102.459 3.03853 101.857 3.27803C101.283 3.4899 100.403 3.66493 99.2277 3.82153C97.7742 4.00576 96.6633 4.2729 95.8765 4.63216C95.1173 4.96378 94.747 5.59018 94.747 6.52056C94.747 6.9443 96.3671 11.716 99.598 20.854C102.857 29.992 105.625 37.6654 107.883 43.8833L120.066 11.5225L120.048 11.5409Z" fill="black"/>
<path d="M30.1424 3.47259C28.9019 3.92396 27.3004 4.3477 25.3378 4.73459C23.7084 5.06622 22.5327 5.4439 21.8014 5.85842C21.1071 6.24532 20.5609 7.02831 20.1721 8.1982C19.811 9.34045 19.6259 11.1736 19.6259 13.6976V32.9409C19.6259 40.1813 21.0886 45.8649 24.0232 49.9826C26.9856 54.0726 31.9939 56.1084 39.0574 56.1084C52.0086 56.1084 58.4889 48.131 58.4889 32.1763V14.4714C58.4889 11.8 58.2945 9.8471 57.8964 8.61273C57.5353 7.37836 56.9614 6.54009 56.1745 6.08872C55.3876 5.60971 54.073 5.13991 52.2308 4.68854C50.4811 4.23716 49.0462 3.81342 47.9261 3.42653V1.13281H72.3381L72.4306 3.47259C71.9585 3.72131 71.4586 3.91475 70.9402 4.06214C70.4218 4.18189 69.7275 4.32007 68.8573 4.46745C67.7093 4.67932 66.7836 4.89119 66.0893 5.10306C65.3764 5.29651 64.7099 5.62813 64.1452 6.09793C63.5712 6.5493 63.1639 7.1757 62.9232 7.99554C62.4418 9.64444 62.2011 11.5697 62.2011 13.7621C62.2011 15.2083 62.2289 17.4928 62.2937 20.6156C62.3585 23.7384 62.3863 26.0874 62.3863 27.6441C62.3863 34.4977 61.7845 40.2826 60.5718 44.999C59.3961 49.7154 56.8688 53.5659 53.0084 56.5413C49.1758 59.5167 43.5102 60.9998 36.0209 60.9998C31.6699 60.9998 27.6244 60.3273 23.8843 58.9732C20.1351 57.5914 17.0338 55.4543 14.5528 52.5711C12.1088 49.6878 10.6554 46.086 10.2018 41.7565C9.84072 38.6337 9.65557 34.6819 9.65557 29.901C9.65557 27.1375 9.70186 24.4016 9.79443 21.7026C9.84998 18.0916 9.88701 15.4202 9.88701 13.6792C9.88701 11.4592 9.73889 9.72735 9.43339 8.49298C9.12789 7.29545 8.37803 6.3927 7.1653 5.79394C5.9896 5.19518 4.38805 4.63327 2.36066 4.12662C1.57377 3.91475 0.786887 3.69367 0 3.44495L0.138862 1.15124H30.0313L30.1239 3.49101L30.1424 3.47259Z" fill="black"/>
</svg>
