<svg width="605" height="66" viewBox="0 0 605 66" fill="none" xmlns="http://www.w3.org/2000/svg">
<path d="M591.427 42.1555H593.938V44.5339C594.682 43.5525 595.469 42.8495 596.302 42.4209C597.133 41.9932 598.058 41.7799 599.076 41.7799C601.308 41.7799 602.815 42.6091 603.598 44.2675C604.028 45.1749 604.244 46.4737 604.244 48.1632V58.9138H601.557V48.3515C601.557 47.33 601.415 46.5058 601.131 45.8799C600.661 44.8364 599.81 44.3146 598.576 44.3146C597.951 44.3146 597.437 44.3827 597.035 44.5179C596.311 44.7482 595.675 45.2069 595.127 45.8949C594.686 46.4477 594.397 47.0215 594.261 47.6164C594.133 48.2003 594.069 49.0405 594.069 50.1361V58.9138H591.427V42.1555ZM580.93 57.0992C582.682 57.0992 583.881 56.3952 584.526 54.9861C585.182 53.5681 585.51 51.9918 585.51 50.2612C585.51 48.696 585.275 47.4231 584.806 46.4427C584.061 44.8985 582.78 44.1273 580.959 44.1273C579.345 44.1273 578.17 44.7843 577.435 46.0982C576.701 47.4131 576.335 48.9984 576.335 50.8551C576.335 52.6397 576.701 54.1259 577.435 55.3146C578.17 56.5043 579.334 57.0992 580.93 57.0992ZM581.033 41.6698C583.059 41.6698 584.772 42.3908 586.171 43.8299C587.571 45.269 588.271 47.3871 588.271 50.1821C588.271 52.8841 587.654 55.1173 586.421 56.8799C585.187 58.6424 583.274 59.5237 580.68 59.5237C578.517 59.5237 576.799 58.7476 575.527 57.1923C574.255 55.628 573.619 53.531 573.619 50.9032C573.619 48.0861 574.289 45.8428 575.63 44.1734C576.971 42.505 578.771 41.6698 581.033 41.6698ZM567.995 42.2336H570.682V58.9138H567.995V42.2336ZM567.995 35.9274H570.682V39.1201H567.995V35.9274ZM560.156 37.4767H562.827V42.1555H565.338V44.4558H562.827V55.3937C562.827 55.9775 563.013 56.3691 563.385 56.5664C563.591 56.6816 563.934 56.7387 564.413 56.7387H564.825C564.971 56.7286 565.142 56.7126 565.338 56.6916V58.9148C565.026 59.0102 564.707 59.0779 564.384 59.1171C564.033 59.1606 563.68 59.1817 563.327 59.1802C562.093 59.1802 561.257 58.8457 560.816 58.1787C560.376 57.5008 560.156 56.6245 560.156 55.5499V44.4558H558.027V42.1555H560.156V37.4767ZM544.916 54.4543C544.916 55.2685 545.196 55.9095 545.754 56.3791C546.311 56.8488 546.972 57.0832 547.735 57.0832C548.666 57.0832 549.566 56.8528 550.437 56.3952C551.905 55.6341 552.639 54.3862 552.639 52.6547V50.3864C552.316 50.6047 551.9 50.787 551.391 50.9332C550.9 51.0758 550.399 51.1805 549.894 51.2467L548.293 51.466C547.334 51.6012 546.614 51.8155 546.135 52.1069C545.322 52.5976 544.916 53.3798 544.916 54.4543ZM551.317 48.7591C551.924 48.6749 552.331 48.4035 552.536 47.9449C552.653 47.6945 552.712 47.334 552.712 46.8653C552.712 45.9059 552.389 45.2119 551.744 44.7843C551.108 44.3457 550.192 44.1273 548.998 44.1273C547.618 44.1273 546.639 44.5229 546.062 45.3161C545.739 45.7547 545.528 46.4067 545.43 47.2719H542.964C543.013 45.2069 543.64 43.7718 544.843 42.9687C546.057 42.1555 547.461 41.7489 549.056 41.7489C550.906 41.7489 552.409 42.1244 553.564 42.8755C554.709 43.6266 555.281 44.7943 555.281 46.3806V56.0346C555.281 56.3271 555.336 56.5614 555.443 56.7387C555.56 56.9159 555.8 57.005 556.163 57.005C556.28 57.005 556.412 57 556.559 56.989C556.706 56.969 556.863 56.942 557.029 56.9109V58.9919C556.721 59.0922 556.407 59.1708 556.089 59.2273C555.873 59.2583 555.58 59.2743 555.208 59.2743C554.298 59.2743 553.637 58.9298 553.226 58.2408C553.011 57.8763 552.859 57.3596 552.771 56.6916C552.232 57.4427 551.46 58.0946 550.452 58.6484C549.443 59.2012 548.332 59.4776 547.119 59.4776C545.661 59.4776 544.466 59.008 543.536 58.0686C542.616 57.1202 542.156 55.9355 542.156 54.5174C542.156 52.9622 542.612 51.7574 543.522 50.9022C544.432 50.0469 545.626 49.5202 547.104 49.3219L551.317 48.7591ZM526.683 56.6916L536.005 44.6741H527.372V42.1555H539.558V44.4558L530.294 56.3952H539.837V58.9138H526.683V56.6916ZM521.162 42.2336H523.849V58.9138H521.162V42.2336ZM521.162 35.9274H523.849V39.1201H521.162V35.9274ZM504.425 42.1555H506.936V44.5339C507.68 43.5525 508.467 42.8495 509.3 42.4209C510.131 41.9932 511.057 41.7799 512.074 41.7799C514.306 41.7799 515.813 42.6091 516.596 44.2675C517.027 45.1749 517.242 46.4737 517.242 48.1632V58.9138H514.556V48.3515C514.556 47.33 514.413 46.5058 514.129 45.8799C513.66 44.8364 512.808 44.3146 511.576 44.3146C510.949 44.3146 510.435 44.3827 510.034 44.5179C509.309 44.7482 508.673 45.2069 508.125 45.8949C507.685 46.4477 507.396 47.0215 507.259 47.6164C507.131 48.2003 507.068 49.0405 507.068 50.1361V58.9138H504.425V42.1555ZM489.715 54.4543C489.715 55.2685 489.994 55.9095 490.552 56.3791C491.109 56.8488 491.771 57.0832 492.534 57.0832C493.464 57.0832 494.364 56.8528 495.235 56.3952C496.703 55.6341 497.437 54.3862 497.437 52.6547V50.3864C497.114 50.6047 496.698 50.787 496.19 50.9332C495.698 51.0758 495.197 51.1805 494.692 51.2467L493.092 51.466C492.132 51.6012 491.413 51.8155 490.933 52.1069C490.121 52.5976 489.715 53.3798 489.715 54.4543ZM496.115 48.7591C496.722 48.6749 497.129 48.4035 497.334 47.9449C497.451 47.6945 497.511 47.334 497.511 46.8653C497.511 45.9059 497.187 45.2119 496.542 44.7843C495.906 44.3457 494.991 44.1273 493.796 44.1273C492.416 44.1273 491.437 44.5229 490.86 45.3161C490.537 45.7547 490.326 46.4067 490.229 47.2719H487.762C487.811 45.2069 488.438 43.7718 489.641 42.9687C490.855 42.1555 492.259 41.7489 493.855 41.7489C495.705 41.7489 497.207 42.1244 498.362 42.8755C499.507 43.6266 500.079 44.7943 500.079 46.3806V56.0346C500.079 56.3271 500.134 56.5614 500.241 56.7387C500.359 56.9159 500.598 57.005 500.961 57.005C501.078 57.005 501.21 57 501.357 56.989C501.504 56.969 501.661 56.942 501.827 56.9109V58.9919C501.519 59.0922 501.205 59.1708 500.888 59.2273C500.671 59.2583 500.378 59.2743 500.006 59.2743C499.096 59.2743 498.435 58.9298 498.025 58.2408C497.809 57.8763 497.657 57.3596 497.569 56.6916C497.03 57.4427 496.258 58.0946 495.25 58.6484C494.242 59.2012 493.13 59.4776 491.917 59.4776C490.459 59.4776 489.265 59.008 488.334 58.0686C487.415 57.1202 486.954 55.9355 486.954 54.5174C486.954 52.9622 487.41 51.7574 488.32 50.9022C489.23 50.0469 490.424 49.5202 491.902 49.3219L496.115 48.7591ZM476.502 41.858C477.735 41.858 478.812 42.1815 479.731 42.8285C480.23 43.193 480.74 43.7258 481.258 44.4238V42.3117H483.696V57.5528C483.696 59.6809 483.402 61.3604 482.814 62.5912C481.719 64.8645 479.648 66.0021 476.604 66.0021C474.911 66.0021 473.487 65.5955 472.332 64.7823C471.177 63.9792 470.531 62.7163 470.395 60.9948H473.081C473.208 61.7459 473.462 62.3258 473.844 62.7324C474.441 63.3583 475.381 63.6707 476.663 63.6707C478.689 63.6707 480.015 62.9096 480.642 61.3864C481.014 60.4891 481.185 58.8878 481.156 56.5824C480.627 57.4377 479.991 58.0746 479.247 58.4912C478.503 58.9088 477.52 59.1171 476.296 59.1171C474.593 59.1171 473.101 58.4762 471.818 57.1923C470.546 55.8994 469.91 53.7663 469.91 50.793C469.91 47.9869 470.551 45.7958 471.833 44.2205C473.125 42.6452 474.681 41.858 476.502 41.858ZM481.258 50.4645C481.258 48.3885 480.857 46.8493 480.055 45.8478C479.252 44.8464 478.229 44.3457 476.986 44.3457C475.126 44.3457 473.854 45.274 473.169 47.1317C472.807 48.1231 472.625 49.421 472.625 51.0274C472.625 52.9161 472.983 54.3552 473.697 55.3466C474.422 56.3271 475.39 56.8168 476.604 56.8168C478.503 56.8168 479.839 55.9044 480.612 54.0788C481.043 53.0463 481.258 51.8425 481.258 50.4645ZM461.013 42.1555H463.523V45.0497C463.729 44.4869 464.233 43.8039 465.035 43.0007C465.838 42.1865 466.763 41.7789 467.811 41.7789C467.859 41.7789 467.942 41.7849 468.06 41.795C468.177 41.805 468.378 41.827 468.662 41.858V44.8314C468.516 44.8015 468.369 44.7804 468.221 44.7683C468.08 44.7575 467.938 44.7525 467.796 44.7533C466.464 44.7533 465.442 45.2119 464.727 46.1302C464.024 47.0054 463.643 48.1229 463.656 49.2748V58.9138H461.013V42.1555ZM447.198 35.3015C451.005 35.3015 453.824 36.6054 455.654 39.2132C457.083 41.2482 457.797 43.8499 457.797 47.0215C457.797 50.4535 456.98 53.3067 455.346 55.581C453.427 58.2519 450.692 59.5868 447.139 59.5868C443.821 59.5868 441.212 58.4181 439.313 56.0817C437.62 53.8284 436.774 50.9803 436.774 47.5383C436.774 44.4298 437.498 41.7699 438.947 39.5577C440.806 36.7206 443.557 35.3015 447.198 35.3015ZM447.491 56.8018C450.065 56.8018 451.925 55.8203 453.07 53.8595C454.225 51.8886 454.803 49.6243 454.803 47.0696C454.803 44.3667 454.137 42.1925 452.806 40.5431C451.484 38.8957 449.673 38.0715 447.374 38.0715C445.142 38.0715 443.322 38.8897 441.912 40.5281C440.503 42.1555 439.798 44.56 439.798 47.7416C439.798 50.2873 440.4 52.4364 441.604 54.1889C442.818 55.9315 444.78 56.8018 447.491 56.8018ZM415.706 53.6562C415.785 54.5955 416.005 55.3146 416.367 55.8153C417.032 56.7236 418.187 57.1773 419.832 57.1773C420.811 57.1773 421.671 56.953 422.415 56.5043C423.16 56.0457 423.531 55.3416 423.531 54.3912C423.531 53.6722 423.233 53.1244 422.635 52.7489C422.254 52.5185 421.5 52.2531 420.375 51.9507L418.276 51.3879C416.935 51.0324 415.946 50.6368 415.309 50.1982C414.174 49.437 413.607 48.3835 413.607 47.0376C413.607 45.4513 414.14 44.1684 415.207 43.188C416.284 42.2066 417.727 41.7168 419.537 41.7168C421.906 41.7168 423.614 42.4579 424.662 43.9401C425.318 44.8784 425.636 45.8899 425.616 46.9745H423.12C423.073 46.3425 422.853 45.7389 422.489 45.238C421.882 44.4969 420.83 44.1263 419.333 44.1263C418.334 44.1263 417.576 44.3306 417.057 44.7372C416.548 45.1438 416.293 45.6816 416.293 46.3496C416.293 47.0786 416.631 47.6635 417.307 48.1021C417.698 48.3625 418.276 48.5918 419.039 48.7901L420.786 49.2438C422.684 49.7345 423.957 50.2092 424.603 50.6678C425.631 51.3879 426.145 52.5195 426.145 54.0628C426.145 55.5549 425.611 56.8428 424.545 57.9284C423.488 59.013 421.872 59.5557 419.699 59.5557C417.36 59.5557 415.701 58.9919 414.723 57.8653C413.753 56.7286 413.235 55.3256 413.166 53.6562H415.706ZM397.399 42.1555H399.909V44.5339C400.653 43.5525 401.441 42.8495 402.273 42.4209C403.105 41.9932 404.029 41.7799 405.048 41.7799C407.279 41.7799 408.787 42.6091 409.569 44.2675C410 45.1749 410.216 46.4737 410.216 48.1632V58.9138H407.528V48.3515C407.528 47.33 407.387 46.5058 407.103 45.8799C406.633 44.8364 405.782 44.3146 404.548 44.3146C403.922 44.3146 403.408 44.3827 403.007 44.5179C402.283 44.7482 401.646 45.2069 401.099 45.8949C400.658 46.4477 400.369 47.0215 400.232 47.6164C400.105 48.2003 400.041 49.0405 400.041 50.1361V58.9138H397.399V42.1555ZM386.901 57.0992C388.654 57.0992 389.853 56.3952 390.498 54.9861C391.154 53.5681 391.482 51.9918 391.482 50.2612C391.482 48.696 391.247 47.4231 390.777 46.4427C390.033 44.8985 388.751 44.1273 386.93 44.1273C385.316 44.1273 384.142 44.7843 383.407 46.0982C382.673 47.4131 382.307 48.9984 382.307 50.8551C382.307 52.6397 382.673 54.1259 383.407 55.3146C384.142 56.5043 385.306 57.0992 386.901 57.0992ZM387.005 41.6698C389.03 41.6698 390.743 42.3908 392.142 43.8299C393.542 45.269 394.242 47.3871 394.242 50.1821C394.242 52.8841 393.625 55.1173 392.392 56.8799C391.159 58.6424 389.246 59.5237 386.651 59.5237C384.488 59.5237 382.771 58.7476 381.499 57.1923C380.226 55.628 379.59 53.531 379.59 50.9032C379.59 48.0861 380.26 45.8428 381.602 44.1734C382.943 42.505 384.743 41.6698 387.005 41.6698ZM373.967 42.2336H376.654V58.9138H373.967V42.2336ZM373.967 35.9274H376.654V39.1201H373.967V35.9274ZM362.78 41.858C364.013 41.858 365.09 42.1815 366.01 42.8285C366.509 43.193 367.018 43.7258 367.537 44.4238V42.3117H369.973V57.5528C369.973 59.6809 369.68 61.3604 369.093 62.5912C367.996 64.8645 365.926 66.0021 362.883 66.0021C361.19 66.0021 359.765 65.5955 358.611 64.7823C357.456 63.9792 356.809 62.7163 356.672 60.9948H359.36C359.486 61.7459 359.741 62.3258 360.122 62.7324C360.72 63.3583 361.66 63.6707 362.941 63.6707C364.967 63.6707 366.294 62.9096 366.92 61.3864C367.292 60.4891 367.464 58.8878 367.434 56.5824C366.906 57.4377 366.269 58.0746 365.525 58.4912C364.781 58.9088 363.798 59.1171 362.575 59.1171C360.871 59.1171 359.378 58.4762 358.097 57.1923C356.824 55.8994 356.188 53.7663 356.188 50.793C356.188 47.9869 356.829 45.7958 358.112 44.2205C359.403 42.6452 360.96 41.858 362.78 41.858ZM367.537 50.4645C367.537 48.3885 367.136 46.8493 366.333 45.8478C365.53 44.8464 364.508 44.3457 363.265 44.3457C361.405 44.3457 360.133 45.274 359.447 47.1317C359.085 48.1231 358.904 49.421 358.904 51.0274C358.904 52.9161 359.261 54.3552 359.976 55.3466C360.7 56.3271 361.669 56.8168 362.883 56.8168C364.781 56.8168 366.117 55.9044 366.89 54.0788C367.322 53.0463 367.537 51.8425 367.537 50.4645ZM350.536 42.2336H353.222V58.9138H350.536V42.2336ZM350.536 35.9274H353.222V39.1201H350.536V35.9274ZM343.914 35.9274H346.557V58.9138H343.914V35.9274ZM333.652 41.7799C334.768 41.7799 335.85 42.0613 336.896 42.6252C337.944 43.178 338.742 43.897 339.29 44.7843C339.819 45.6295 340.171 46.615 340.347 47.7416C340.504 48.5127 340.582 49.7445 340.582 51.435H329.057C329.106 53.1344 329.483 54.5014 330.188 55.5339C330.892 56.5564 331.983 57.0671 333.461 57.0671C334.841 57.0671 335.943 56.5824 336.765 55.612C337.235 55.0492 337.567 54.3973 337.763 53.6562H340.362C340.293 54.2721 340.063 54.9601 339.671 55.7222C339.29 56.4733 338.859 57.0882 338.38 57.5679C337.577 58.4031 336.583 58.9659 335.4 59.2583C334.763 59.4256 334.044 59.5087 333.241 59.5087C331.283 59.5087 329.625 58.7526 328.264 57.2394C326.904 55.7172 326.223 53.5891 326.223 50.8551C326.223 48.1642 326.908 45.978 328.279 44.2986C329.649 42.6192 331.44 41.7799 333.652 41.7799ZM337.866 49.1967C337.758 47.9759 337.508 47.0005 337.117 46.2705C336.393 44.9145 335.184 44.2365 333.49 44.2365C332.277 44.2365 331.259 44.7062 330.437 45.6445C329.614 46.5729 329.179 47.7576 329.131 49.1967H337.866ZM315.755 46.4587C317.126 46.4587 318.208 46.1663 319 45.5825C319.803 44.9976 320.204 43.9441 320.204 42.4209C320.204 40.7835 319.646 39.6669 318.53 39.073C317.933 38.7595 317.136 38.6033 316.138 38.6033H309.002V46.4587H315.755ZM306.08 35.9274H316.064C317.709 35.9274 319.064 36.1828 320.131 36.6945C322.157 37.675 323.17 39.4846 323.17 42.1244C323.17 43.5014 322.901 44.6281 322.363 45.5043C321.834 46.3806 321.089 47.0846 320.131 47.6164C320.972 47.9819 321.603 48.4616 322.024 49.0565C322.456 49.6504 322.695 50.6158 322.744 51.9507L322.846 55.0332C322.877 55.9095 322.944 56.5614 323.052 56.989C323.228 57.7201 323.542 58.1888 323.992 58.3981V58.9138H320.409C320.298 58.6714 320.219 58.4135 320.174 58.1477C320.116 57.8342 320.067 57.2294 320.028 56.3321L319.852 52.4985C319.783 50.9963 319.26 49.9899 318.281 49.4781C317.723 49.1977 316.847 49.0555 315.653 49.0555H309.002V58.9138H306.08V35.9274ZM463.729 18.6863C463.729 20.4799 464.086 21.9821 464.8 23.1928C465.515 24.4026 466.661 25.0075 468.236 25.0075C469.46 25.0075 470.462 24.4497 471.246 23.3331C472.039 22.2064 472.434 20.5951 472.434 18.498C472.434 16.38 472.029 14.8157 471.216 13.8032C470.404 12.7817 469.4 12.271 468.206 12.271C466.876 12.271 465.794 12.8118 464.962 13.8973C464.14 14.9819 463.729 16.5792 463.729 18.6863ZM467.707 9.81341C468.911 9.81341 469.919 10.0838 470.732 10.6276C471.202 10.9401 471.735 11.4878 472.332 12.27V3.80469H474.872V26.8692H472.494V24.5378C471.877 25.5703 471.148 26.3164 470.306 26.7761C469.464 27.2347 468.5 27.4641 467.414 27.4641C465.662 27.4641 464.144 26.6819 462.863 25.1166C461.58 23.5414 460.939 21.4503 460.939 18.8425C460.939 16.401 461.522 14.2889 462.686 12.5053C463.861 10.7107 465.535 9.81341 467.707 9.81341ZM455.434 3.8828H458.076V26.8692H455.434V3.8828ZM445.421 10.1108H447.931V13.0051C448.137 12.4422 448.641 11.7592 449.444 10.9561C450.247 10.1419 451.171 9.7343 452.219 9.7343C452.268 9.7343 452.35 9.74031 452.468 9.75032C452.585 9.76034 452.786 9.78237 453.07 9.81341V12.7867C452.924 12.7569 452.777 12.7358 452.629 12.7236C452.488 12.7129 452.346 12.7079 452.204 12.7086C450.872 12.7086 449.85 13.1673 449.135 14.0856C448.432 14.9607 448.051 16.0782 448.064 17.2302V26.8692H445.421V10.1108ZM434.85 25.0546C436.603 25.0546 437.802 24.3505 438.448 22.9415C439.103 21.5234 439.431 19.9471 439.431 18.2166C439.431 16.6513 439.196 15.3785 438.726 14.3981C437.983 12.8538 436.7 12.0827 434.88 12.0827C433.265 12.0827 432.091 12.7397 431.357 14.0536C430.622 15.3685 430.256 16.9538 430.256 18.8105C430.256 20.5951 430.622 22.0812 431.357 23.271C432.091 24.4597 433.255 25.0546 434.85 25.0546ZM434.954 9.62514C436.979 9.62514 438.692 10.3462 440.092 11.7853C441.491 13.2244 442.191 15.3424 442.191 18.1385C442.191 20.8394 441.575 23.0727 440.341 24.8352C439.109 26.5978 437.195 27.4791 434.601 27.4791C432.438 27.4791 430.721 26.7029 429.448 25.1477C428.175 23.5834 427.539 21.4864 427.539 18.8586C427.539 16.0415 428.21 13.7982 429.551 12.1288C430.892 10.4604 432.692 9.62514 434.954 9.62514ZM402.522 3.8828L406.589 22.582L411.463 3.8828H414.635L419.508 22.582L423.575 3.8828H426.776L421.109 26.8692H418.041L413.064 7.81051L408.057 26.8692H404.989L399.351 3.8828H402.522ZM377.314 18.6863C377.314 20.4799 377.671 21.9821 378.387 23.1928C379.101 24.4026 380.246 25.0075 381.822 25.0075C383.045 25.0075 384.049 24.4497 384.831 23.3331C385.624 22.2064 386.021 20.5951 386.021 18.498C386.021 16.38 385.614 14.8157 384.802 13.8032C383.989 12.7817 382.986 12.271 381.793 12.271C380.461 12.271 379.38 12.8118 378.548 13.8973C377.725 14.9819 377.314 16.5792 377.314 18.6863ZM381.293 9.81341C382.497 9.81341 383.506 10.0838 384.317 10.6276C384.787 10.9401 385.321 11.4878 385.917 12.27V3.80469H388.457V26.8692H386.079V24.5378C385.463 25.5703 384.734 26.3164 383.892 26.7761C383.05 27.2347 382.086 27.4641 381 27.4641C379.247 27.4641 377.731 26.6819 376.448 25.1166C375.167 23.5414 374.525 21.4503 374.525 18.8425C374.525 16.401 375.107 14.2889 376.272 12.5053C377.447 10.7107 379.12 9.81341 381.293 9.81341ZM365.452 9.7353C366.568 9.7353 367.65 10.0167 368.696 10.5805C369.744 11.1333 370.542 11.8524 371.09 12.7397C371.618 13.5849 371.971 14.5703 372.147 15.697C372.304 16.4681 372.382 17.6999 372.382 19.3903H360.856C360.905 21.0898 361.282 22.4568 361.987 23.4893C362.691 24.5118 363.783 25.0235 365.261 25.0235C366.641 25.0235 367.743 24.5378 368.564 23.5674C369.034 23.0046 369.367 22.3526 369.563 21.6115H372.162C372.093 22.2274 371.863 22.9154 371.471 23.6776C371.09 24.4286 370.659 25.0435 370.179 25.5232C369.377 26.3584 368.384 26.9213 367.199 27.2137C366.563 27.3809 365.844 27.4641 365.04 27.4641C363.083 27.4641 361.425 26.708 360.064 25.1948C358.704 23.6725 358.023 21.5445 358.023 18.8105C358.023 16.1196 358.708 13.9334 360.078 12.255C361.449 10.5745 363.24 9.7353 365.452 9.7353ZM369.665 17.1521C369.558 15.9313 369.308 14.9559 368.917 14.2258C368.193 12.8699 366.983 12.1919 365.29 12.1919C364.076 12.1919 363.059 12.6616 362.237 13.5999C361.414 14.5283 360.979 15.713 360.931 17.1521H369.665ZM351.065 5.43205H353.736V10.1108H356.247V12.4112H353.736V23.3491C353.736 23.9329 353.922 24.3245 354.294 24.5228C354.5 24.6369 354.842 24.694 355.322 24.694H355.733C355.879 24.684 356.051 24.668 356.247 24.648V26.8692C355.935 26.9649 355.616 27.0329 355.293 27.0725C354.942 27.116 354.588 27.1371 354.235 27.1356C353.002 27.1356 352.165 26.8011 351.725 26.1341C351.285 25.4561 351.065 24.5799 351.065 23.5053V12.4112H348.936V10.1108H351.065V5.43205ZM343.841 10.189H346.527V26.8692H343.841V10.189ZM343.841 3.8828H346.527V7.07544H343.841V3.8828ZM327.105 10.1108H329.614V12.4893C330.359 11.5079 331.147 10.8049 331.979 10.3762C332.81 9.94861 333.736 9.7353 334.753 9.7353C336.985 9.7353 338.492 10.5645 339.275 12.2229C339.706 13.1312 339.921 14.4291 339.921 16.1186V26.8692H337.235V16.3068C337.235 15.2854 337.093 14.4612 336.809 13.8353C336.339 12.7917 335.487 12.27 334.254 12.27C333.628 12.27 333.114 12.3381 332.712 12.4733C331.988 12.7036 331.352 13.1623 330.804 13.8503C330.363 14.4031 330.075 14.9769 329.938 15.5718C329.811 16.1556 329.747 16.9958 329.747 18.0914V26.8692H327.105V10.1108ZM308.899 3.8828V18.0914C308.899 19.7599 309.193 21.1479 309.78 22.2535C310.651 23.9219 312.12 24.7571 314.185 24.7571C316.661 24.7571 318.345 23.8548 319.235 22.0502C319.715 21.0688 319.954 19.7498 319.954 18.0914V3.8828H322.92V16.7915C322.92 19.6197 322.563 21.7938 321.849 23.317C320.537 26.0921 318.06 27.4801 314.42 27.4801C310.778 27.4801 308.307 26.0921 307.006 23.317C306.291 21.7948 305.934 19.6197 305.934 16.7926V3.8838L308.899 3.8828Z" fill="#231F20"/>
<g clip-path="url(#clip0_191_346)">
<path d="M266.898 0C272.704 0 278.036 1.30387 282.885 3.9116C287.734 6.51933 291.579 10.2311 294.42 15.0373C297.29 19.8149 298.73 25.3445 298.73 31.6164C298.73 37.8882 297.243 43.2274 294.278 48.0051C291.342 52.7542 287.374 56.4469 282.364 59.0927C277.354 61.7004 271.889 63.0043 265.96 63.0043C260.496 63.0043 255.381 61.748 250.618 59.2355C245.863 56.7229 242.027 53.1159 239.129 48.4334C236.26 43.7509 234.82 38.3165 234.82 32.1398C234.82 25.3445 236.335 19.5199 239.357 14.6756C242.416 9.83134 246.384 6.18622 251.262 3.73077C256.177 1.24676 261.376 0 266.879 0H266.898ZM268.432 59.4258C272.135 59.4258 275.479 58.436 278.443 56.4469C281.407 54.4578 283.728 51.5931 285.395 47.8338C287.09 44.0745 287.942 39.6489 287.942 34.5667C287.942 28.7897 286.986 23.5648 285.073 18.8727C283.159 14.1522 280.47 10.4309 277.013 7.69947C273.584 4.96801 269.673 3.59753 265.288 3.59753C261.67 3.59753 258.365 4.53974 255.372 6.44319C252.408 8.30857 250.04 11.0971 248.278 14.8279C246.517 18.5492 245.636 23.0413 245.636 28.2853C245.636 34.1194 246.611 39.411 248.553 44.1696C250.494 48.9187 253.203 52.659 256.66 55.3905C260.155 58.0934 264.076 59.4448 268.432 59.4448V59.4258ZM203.244 36.5558C202.505 35.4423 201.871 34.6143 201.341 34.0908C200.839 33.5579 200.213 33.1391 199.532 32.8822C198.821 32.6062 197.846 32.4348 196.615 32.3682L193.698 32.1779V50.1084C193.698 52.345 193.887 53.9915 194.256 55.0479C194.654 56.1043 195.184 56.799 195.828 57.1417C196.51 57.4843 197.514 57.7603 198.84 57.9792C199.693 58.1124 200.545 58.2837 201.388 58.4931C202.127 58.6739 202.903 58.9785 203.708 59.3782L203.614 61.7956H174.282L174.188 59.3782C175.021 58.9119 175.798 58.5883 176.508 58.3979C177.341 58.16 178.194 57.9697 179.056 57.8364C180.287 57.6461 181.205 57.3891 181.793 57.0465C182.408 56.6753 182.891 55.8854 183.232 54.6767C183.573 53.468 183.744 51.5455 183.744 48.8997V13.6002C183.744 11.3922 183.554 9.74568 183.185 8.66071C182.815 7.53768 182.276 6.78581 181.565 6.37657C180.883 5.93877 179.804 5.49146 178.317 5.02512C176.745 4.58732 175.362 4.11146 174.197 3.57849L174.292 1.16111H195.658C201.435 1.16111 206.483 1.42759 210.811 1.95104C215.14 2.47449 219.004 3.87353 222.394 6.13864C225.823 8.40375 227.537 11.8966 227.537 16.6171C227.537 19.5389 226.713 22.061 225.084 24.2119C223.474 26.3248 221.39 27.9808 218.824 29.199C216.286 30.4077 213.577 31.2357 210.669 31.6639C211.039 32.1588 212.876 34.738 216.181 39.392C218.227 42.3138 220.292 45.2165 222.394 48.1003C224.052 50.3368 225.766 52.5258 227.537 54.6672C228.56 55.7521 229.469 56.6087 230.274 57.2273C231.079 57.8459 232.083 58.3408 233.286 58.7215C234.489 59.0927 236.004 59.2831 237.822 59.2831V61.8908C234.763 62.6331 232.045 63.0043 229.668 63.0043C226.391 63.0043 223.379 61.9955 220.633 59.9778C217.915 57.9602 215.528 55.5428 213.539 52.8113C211.56 50.0513 209.287 46.5204 206.729 42.2376C205.214 39.6299 204.059 37.736 203.254 36.5558H203.244ZM196.018 29.0657C199.977 29.0657 203.386 28.8278 206.256 28.371C209.126 27.9046 211.588 26.8006 213.624 25.0685C215.698 23.3268 216.731 20.7096 216.731 17.1977C216.731 13.3527 215.623 10.5071 213.397 8.67975C211.2 6.84291 208.624 5.72939 205.659 5.32967C202.695 4.89187 199.049 4.6825 194.72 4.6825H193.698V29.0848H196.018V29.0657Z" fill="black"/>
<path d="M122.818 11.9249L121.709 9.08877C121.34 8.14656 120.952 7.21387 120.554 6.29069C120.185 5.97662 118.916 5.40559 116.756 4.56807C115.061 3.88282 113.839 3.36889 113.1 3.02627C112.362 2.68365 111.983 2.37909 111.983 2.09358C111.983 2.02696 112.03 1.87468 112.125 1.62723C112.182 1.46544 112.239 1.31316 112.314 1.16088H142.062C142.091 1.25606 142.138 1.40833 142.204 1.62723C142.299 1.84613 142.347 1.9984 142.347 2.09358C142.347 2.80737 142.006 3.27372 141.324 3.49261C140.68 3.71151 139.638 3.88282 138.217 4.00655C136.645 4.13027 135.452 4.34917 134.647 4.65372C133.842 4.92972 133.444 5.53883 133.444 6.47152C133.444 7.11869 135.177 12.9433 138.634 23.9357C142.129 34.9281 144.43 42.0375 145.538 45.2639L146.836 41.3047C154.062 19.6053 157.68 8.01332 157.68 6.5191C157.68 5.55786 157.216 4.89165 156.288 4.52048C155.36 4.12075 154.005 3.78765 152.206 3.5402C151.476 3.44503 150.747 3.3213 150.027 3.16903C149.317 3.01675 148.758 2.82641 148.361 2.60751L148.086 2.09358L148.361 1.16088H172.322C172.445 1.16088 172.597 1.22751 172.786 1.35123C172.975 1.4464 173.099 1.55109 173.155 1.67482C173.155 2.14116 172.795 2.51234 172.095 2.78834C171.384 3.03579 170.238 3.33082 168.666 3.67344C166.346 4.16834 164.508 4.71082 163.154 5.3009C161.79 5.86241 160.9 6.72849 160.464 7.90863C160.076 9.01263 159.726 10.1357 159.394 11.2587C159.129 12.1438 158.864 13.0289 158.608 13.914C158.475 14.4755 158.314 15.0371 158.144 15.5891L144.288 61.7383C144.099 62.3569 143.455 62.671 142.347 62.671C141.854 62.671 141.437 62.6044 141.096 62.4806C140.784 62.3569 140.538 62.1095 140.358 61.7383C139.77 60.5867 139.183 58.8926 138.596 56.6656L137.763 54.0103L124.598 15.5034L112.598 50.1938C112.324 50.9647 111.936 52.2305 111.443 53.9627C110.856 55.9232 110.363 57.4555 109.956 58.569C109.568 59.654 109.123 60.7104 108.611 61.7383C108.422 62.138 108.176 62.4045 107.873 62.5282C107.56 62.6805 107.162 62.7661 106.67 62.7661C105.742 62.7661 104.955 62.119 104.302 60.8056C103.658 59.5017 103.004 57.8267 102.351 55.7805L101.887 54.2863L95.5414 37.1933C92.113 27.8187 88.6372 18.5013 85.114 9.25056C84.6215 7.97525 83.8922 7.03304 82.9357 6.41441C82.0075 5.76724 80.7574 5.1391 79.1852 4.54903C78.0108 4.11124 77.1111 3.74006 76.4955 3.43551C75.8609 3.11192 75.2832 2.68365 74.7812 2.17923L75.1033 1.15137H104.899C104.927 1.24654 104.974 1.39882 105.041 1.61771C105.107 1.80806 105.135 1.96033 105.135 2.08406C105.135 2.70268 104.823 3.14048 104.207 3.38792C103.62 3.60682 102.72 3.78765 101.518 3.94944C100.031 4.13979 98.8941 4.41579 98.0891 4.78696C97.3125 5.12958 96.9336 5.77676 96.9336 6.738C96.9336 7.1758 98.5911 12.1057 101.896 21.5469C105.23 30.988 108.062 38.9159 110.373 45.34L122.837 11.9059L122.818 11.9249Z" fill="black"/>
<path d="M30.8372 3.58828C29.5681 4.05463 27.9296 4.49242 25.9218 4.89215C24.2549 5.23477 23.0521 5.62498 22.3039 6.05326C21.5936 6.45298 21.0348 7.26195 20.6371 8.47064C20.2677 9.65078 20.0783 11.5447 20.0783 14.1525V34.034C20.0783 41.5146 21.5747 47.3867 24.5769 51.641C27.6076 55.8666 32.7314 57.97 39.9577 57.97C53.2074 57.97 59.837 49.728 59.837 33.2441V14.9519C59.837 12.1919 59.6381 10.1742 59.2309 8.89892C58.8615 7.62361 58.2743 6.75753 57.4693 6.29119C56.6643 5.79629 55.3194 5.31091 53.4347 4.84456C51.6447 4.37822 50.1767 3.94042 49.0308 3.5407V1.1709H74.0055L74.1002 3.58828C73.6172 3.84525 73.1057 4.04511 72.5754 4.19739C72.045 4.32111 71.3347 4.46387 70.4444 4.61615C69.27 4.83505 68.3229 5.05394 67.6126 5.27284C66.8834 5.4727 66.2015 5.81533 65.6237 6.30071C65.0366 6.76705 64.6198 7.41423 64.3736 8.26126C63.8811 9.96485 63.6349 11.954 63.6349 14.2191C63.6349 15.7133 63.6633 18.0736 63.7296 21.2999C63.7959 24.5263 63.8243 26.9532 63.8243 28.5616C63.8243 35.6424 63.2087 41.6193 61.968 46.4921C60.7652 51.365 58.1796 55.3432 54.2303 58.4173C50.3093 61.4913 44.5131 63.0236 36.8512 63.0236C32.3999 63.0236 28.2611 62.3289 24.4349 60.9298C20.5992 59.5022 17.4264 57.2942 14.8882 54.3153C12.3879 51.3364 10.901 47.6152 10.4369 43.1421C10.0675 39.9157 9.87813 35.8328 9.87813 30.8933C9.87813 28.0381 9.92548 25.2115 10.0202 22.423C10.077 18.6922 10.1149 15.9322 10.1149 14.1334C10.1149 11.8398 9.96337 10.0505 9.65083 8.7752C9.33829 7.53795 8.57115 6.60526 7.33046 5.98664C6.12766 5.36801 4.4892 4.78746 2.41508 4.26401C1.61005 4.04511 0.805025 3.8167 0 3.55973L0.142063 1.18993H30.7235L30.8183 3.60732L30.8372 3.58828Z" fill="black"/>
</g>
<defs>
<clipPath id="clip0_191_346">
<rect width="298.731" height="63.0233" fill="white"/>
</clipPath>
</defs>
</svg>
