<?xml version="1.0" encoding="UTF-8"?>
<svg id="Layer_1" xmlns="http://www.w3.org/2000/svg" version="1.1" viewBox="0 0 187 187">
  <!-- Generator: Adobe Illustrator 29.6.1, SVG Export Plug-In . SVG Version: 2.1.1 Build 9)  -->
  <defs>
    <style>
      .st0 {
        stroke: #000;
        stroke-miterlimit: 10;
        stroke-width: .5px;
      }

      .st1 {
        opacity: .5;
      }
    </style>
  </defs>
  <g class="st1">
    <path class="st0" d="M91.88,51.83c1.13.61,1.06,1.76.08,2.48l.69.63c.54-.92,1.76-1.07,2.3-.07.84,1.55-1.47,2.82-2.29,1.18l-.7.7c1.05.65.95,1.75,0,2.44.2.25.34.53.55.78,1.14,1.38,2.5,2.68,3.71,4.03.89.99,1.75,2,2.66,3.01.17.19.52.36.54.39.04.04.01.2.09.32.16.26.89.93,1.15,1.22.98,1.09,1.96,2.2,2.96,3.33.29.33.66.56.89.97l-.91,4.35.06.21c1.25.18,2.49.39,3.72.65s2.82.85,3.97.99c.25.03.43-.01.46-.32.03-.28-.42-.34-.63-.55-.9-.85-.04-2.38,1.23-2.04.33.09.64.59.85.49,1.64-1.55,3.32-3.06,4.84-4.73.02-.08-.2-.97-.25-1.05-.2-.31-1.14-.63-1.48-.87-.55.61-1.15,1-1.92.42-.93-.7-.38-2.14.67-2.22.32-.02.83.38,1.03-.08.09-.21-.23-.57-.26-.86-.14-1.27,1.53-1.9,2.23-.82.39.59.22,1.1-.15,1.64.19.25.7,1.12.99,1.16.11.02.75-.12.87-.17.38-.17.87-1.72,1.02-2.17-.16-.26-.47-.39-.66-.68-.32-.49-.3-.81.03-1.28.77-1.1,2.31-.53,2.18.85-.02.24-.23.58-.21.65.02.09,1.12,1.02,1.28,1.09.4.19.45-.17.78-.34,1.02-.53,2.13.43,1.72,1.5-.18.46-.7.88-1.22.82-.38-.04-.86-.54-1.11-.49-.19.04-1.99,1.36-2.04,1.52v.86c.03.11,1.61.8,1.72.78.18-.04.42-.57.98-.64,1.75-.22,1.86,2.3.29,2.44-.46.04-.8-.38-1.07.12-.14.26.3.75.05,1.37-.6,1.5-2.81.63-2.28-.87.09-.25.43-.46.31-.74-.06-.14-.99-1.1-1.1-1.13-.1-.03-.91.08-1.03.13-.21.09-.43.56-.56.77-1.01,1.65-1.89,3.39-2.88,5.05v.11c.81.27,1.1,1.12.73,1.88-.07.14-.27.21-.21.42.45.12,3.12,1.38,3.17,1.68l-2.25,4.32c3.92,2.05,7.64,4.5,10.99,7.38.02.1-1.02,1.42-1.18,1.62-1.98,2.51-4.09,4.98-6.18,7.38l-1.38.34c-.02,4.62.05,9.23,0,13.84-.02,2.8-.05,5.64-.15,8.44-.03.83.17,1.56-.29,2.3v3.45s-.59,0-.59,0v-2.26c0-.07-.12-.35-.11-.48l-.08-.07-.11.11v2.7h-.74v-2.63s-.09-.11-.08-.18c-.1-.08-.22.12-.22.18v2.63h-1.15c-.17-.1-.02-.24-.03-.41-.05-.66.01-1.68-.08-2.22-.01-.09-.04-.13-.11-.18-.04,0-.19.29-.19.33v2.48h-.67v-2.48s-.14-.32-.19-.33c-.39-.1-.1,1.22-.1,1.37,0,.44-.27.95-.15,1.45l-.63-.07c-.13-.19.05-1.95-.09-2.44-.04-.13.02-.19-.17-.16v2.67h-1.22l-.11-.11v-2.59l-.15-.08c-.28.21,0,1.01,0,1.33,0,.45-.22.98-.14,1.45h-.59v-2.19c0-.06-.09-.53-.11-.56l-.08-.07-.11.11v2.7h-.67v-2.81c-.26.03-.62-.1-.81.11v2.7h-.67v-2.26c0-.08-.1-.48-.19-.55-.07,0-.19.57-.19.63v2.18h-.67v-2.48s-.15-.33-.19-.33l-.11.11v2.7h-.55c-.1-.04-.11-.1-.12-.19-.11-.6.03-1.7,0-2.37-.03-1.01-.1-2.04-.22-3.04l-10.57-12.4-4.69,4.63.77.7c.58.85.15,1.6-.55,2.18,1.3.57.93,1.86.96,3.04.01.52.05.85.02,1.4,0,.08.14.48-.05.48h-2.96l-.11-.11v-3.41c0-.1.14-.57.19-.7.15-.33.44-.43.63-.71v-.1c-.6-.3-.91-.93-.8-1.58.03-.15.3-.69.39-.79.1-.11.59-.22.55-.41l-4.67-4.6h-.14s-9.96,11.74-9.96,11.74c-.11.65,0,1.31-.04,1.96-.05.82-.19,1.78-.3,2.59-.06.44.01,1.11.06,1.56-.03.18-.51.09-.65.11v-2.63s-.09-.11-.08-.18c-.1-.08-.22.12-.22.18v2.63h-.74v-2.7l-.11-.11s-.19.29-.19.33v2.48h-1.18v-2.48s-.15-.33-.19-.33l-.11.11v2.59c-.18.2-.5.08-.74.11v-2.63s-.15-.14-.19-.18l-.18.11v2.7h-.67v-2.7l-.11-.11s-.19.29-.19.33v2.41h-1.26v-2.26c0-.07-.14-.63-.26-.41l-.11,2.74h-.59v-2.63s-.09-.11-.08-.18c-.1-.08-.22.12-.22.18v2.63h-.59c-.07-.9-.12-1.79,0-2.69-.07-.21-.57-.11-.76-.11l-.11.11c.04.44-.01.88-.01,1.33s.17.89,0,1.36h-.66s0-2.55,0-2.55c0-.03-.16-.26-.19-.26l-.11.11v2.7h-.74v-2.63s-.09-.19-.11-.18c-.31.25-.12.51-.11.78.01.69-.05,1.35-.07,2.04h-.59c.05-.3-.06-.57-.08-.85-.16-2.61-.15-5.22-.17-7.84,0-.12-.07-.25-.05-.38v-18.95c-.08-.23-1.31-.16-1.52-.49-2.09-2.79-4.72-5.39-6.77-8.19-.08-.11-.37-.5-.37-.59,0-.15.83-.78,1-.92,1.14-.92,2.41-1.85,3.61-2.69,2.03-1.41,4.16-2.62,6.32-3.83l-2.18-4.39,4.21-2.16c-.22-.27-.3-.74-.48-1-.17-.24-.71-.47-.77-.78l.07-4.45.38-.03c0-.95-.09-2.2-.99-2.75-.79-.49-1.6-.06-1.39-1.49l-.06-.09c-.72-.04-1.86,0-2.33.64-.18.24-.22.58-.48.78-.38.29-.82.01-.89.66-.03.24-.03.73,0,.96.11,1.01.98,1,1.37,1.81.49-.17-.09-.49-.16-.61-.03-.04-.16-.84-.16-.92,0-.57.52-1.07,1.03-1.25,2.02-.68,2.99,1.31,2.81,3.03-.19,1.87-2.6,2.81-4.24,2.41-.39.59-.73,1.04-1.48.65-.58-.31-.66-1.12-.93-1.67-.66-1.36-1.21-1.83-1.09-3.54.03-.36.41-1.34.34-1.62-.79-.22-.81-1.06-.22-1.56.44-.37,2.58-1.76,3.08-1.95,1.27-.48,2.45-.31,3.75-.1.24-.08.17-.86.83-.95.97-.14,1.18.86,1.65,1.53.76,1.08,1.79,2.19,1.79,3.61v1.11l.17.1c.28-.2.74-.33,1.02-.03.14.15.07.43.29.41v.07c-.24-.04-.12.25-.18.45-.14.43-.55.79-.69,1.24s-.16,1.95-.1,2.43c.04.32.23.28.41.48.36.38.47.69.64,1.17l8.7-1.91-.85-4.05c-.06-.45.43-.93.7-1.28,2.58-3.18,5.73-6.33,8.51-9.41,1.1-1.22,2.16-2.48,3.29-3.68.07-.25-.3-.36-.41-.49-.59-.7-.4-1.61.39-2.05.09-.15-.5-.67-.6-.67-.31.12-.43.46-.74.6-1.18.54-2.28-.83-1.58-1.96.55-.89,1.78-.68,2.25.17.07.02.63-.51.67-.59.07-.12.03-.1-.04-.18-.16-.17-.45-.28-.57-.54-.34-.69.07-1.49.72-1.8h.96ZM91.12,52.21c-1.1.25-.43,2.1.74,1.48.88-.46.36-1.73-.74-1.48ZM88.9,54.58c-1.46.12-.43,2.62.68,1.43.54-.57.02-1.49-.68-1.43ZM93.78,54.58c-1.29.12-.68,2.3.49,1.6.82-.49.33-1.68-.49-1.6ZM92.23,55.44c0-.45-.36-.81-.81-.81s-.81.36-.81.81.36.81.81.81.81-.36.81-.81ZM91.12,57.1c-1.14.26-.34,2.24.83,1.42.77-.54.1-1.64-.83-1.42ZM92.35,60.39c-.27-.28-.53-.66-.85-.9-.05-.04-.09-.15-.15-.08l-12.57,13.93,3.94,18.1.16.28,17.2-.07,3.92-18.23c-1.32-1.6-2.71-3.17-4.1-4.72-2.49-2.79-4.99-5.61-7.56-8.32ZM122,65.9c0-.42-.34-.76-.76-.76s-.76.34-.76.76.34.76.76.76.76-.34.76-.76ZM116.97,66.65c-.59.08-.83.79-.39,1.24.35.35.77.39,1.12,0,.54-.59-.08-1.34-.72-1.25ZM121.48,67.17c-.23.07-1.02,1.96-1.02,2.25,0,.07,0,.12.04.18.07.12.79.67.96.79.15,0,1.67-1.12,1.85-1.31.32-.32.34-.43.03-.77s-1.43-1.28-1.87-1.14ZM67.14,74.64c.48-.04,1.25-.59,1.33-1.08.36-2.18-.62-3.2-1.73-4.78-.21-.3-.87-1.85-1.38-1.15-.25.35.35,1.37.21,1.99-.1.42-.77.78-.79,1.13-.02.39.72.38,1.03.52.66.29,1.33,1.45,1.33,2.15v1.22ZM125.62,68.55c0-.42-.34-.76-.76-.76s-.76.34-.76.76.34.76.76.76.76-.34.76-.76ZM63.7,69.75c.37-.03.8,0,1.18,0,.29,0,.23-1.03-.18-1.22-.86-.39-2.82-.34-3.7,0-.62.24-.99.67-1.5,1.02-.26.18-1.42.78-1.5.95-.19.41.16.68.54.73.59.07,1-.67,1.82-.27.23.11.38.37.6.37.37,0,.45-.48.63-.71.57-.74,1.06-.7,1.89-.77.1,0,.18-.07.22-.08ZM118.01,70.7s.43-.71.44-.78c.03-.23-.64-1.09-.86-1.18-.37-.17-1.31-.17-1.41.32,0,.05.25.81.29.87.11.17,1.36.88,1.53.77ZM115.95,69.77c0-.42-.34-.76-.76-.76s-.76.34-.76.76.34.76.76.76.76-.34.76-.76ZM119.41,69.92c-1.36.25-1.34,2.53.2,2.65,2.31.18,1.9-3.04-.2-2.65ZM58.57,71.84c-.48,1.02-.51,2.32-.11,3.37.14.37.41.65.57.98.19.38.67,1.65.93,1.81s.47.1.66-.14c.41-.52-.18-1.29.03-1.97.08-.26.7-.65.69-.85-.17-.26-.48-.34-.69-.55-.55-.55-.6-1.38-.55-2.11.02-.3.23-.63.08-.9-.29-.35-1.22.32-1.62.36ZM121.37,72.2c-.09.31-.6.48-.39.84.08.13.98.95,1.12,1.03.28.15.6.07.86.25.21.03.47-.27.47-.47,0-.09-.18-.75-.22-.82-.12-.2-1.73-.9-1.84-.84ZM124.37,72.28c-.82.08-.86,1.39-.02,1.47,1.2.11,1.19-1.58.02-1.47ZM64.45,73.11c-.45-.45-1.08-.55-1.68-.36-1.1.36-.72,1.58.07,2.07-.28.64-.89.64-1.35.94-.72.46-.22.89-.12,1.54,1.27.11,2.47-.02,3.28-1.11.58-.79.5-2.38-.21-3.08ZM118.37,72.73l-5.04,4.9-.04.15c.37.28,1.61,1.44,2.02,1.38.13-.02.15-.08.22-.15.28-.28.71-1.12.94-1.5.87-1.44,1.65-2.94,2.51-4.38,0-.18-.42-.44-.61-.39ZM66.7,75.16v3c.19.33-.11,1.02.44,1,.18-.85,1.03-1.28,1.85-1.26.06-.75-.11-1.68.08-2.4.08-.3,1.47-2.25.31-1.77-.48.2-1.11,1.11-1.57,1.31-.36.16-.73.1-1.11.11ZM122.3,74.58c-.96.12-.77,1.72.41,1.45.84-.19.56-1.57-.41-1.45ZM111.85,76.87c-.91.2-.61,1.65.27,1.54,1.14-.14.7-1.75-.27-1.54ZM103.36,79.38l7.01,1.48.84-1c0-.08-1.01-.32-1.18-.37-2.1-.57-4.25-.99-6.4-1.29-.12.03-.33,1.12-.26,1.18ZM79.28,78.28c-.26-.17-4.2.7-4.8.84-.94.22-2.09.48-2.98.8-.09.03-.41.11-.35.24.07.17.79.99,1.07.85,1.24-.31,2.48-.67,3.73-.94,1.19-.26,2.42-.41,3.58-.74l-.24-1.05ZM68.46,78.51c-1.13.21-1.14,1.95-.13,2.24,2.1.62,2.18-2.62.13-2.24ZM112.97,78.73c-1.24.2-1.15,2.17.14,2.35.43.06.6.02.92-.25,1.02-.85.16-2.29-1.06-2.09ZM116.5,80.29c0-.42-.34-.76-.76-.76s-.76.34-.76.76.34.76.76.76.76-.34.76-.76ZM79.65,79.98c-2.46.3-4.86.94-7.25,1.55l5.81,6.79,3.08-.76-1.64-7.58ZM109.95,81.3c-2.23-.46-4.45-1.14-6.73-1.32l-1.64,7.62c.55,0,2.33.66,2.74.41l5.63-6.7ZM77.04,90.74c3.32,3.89,6.64,7.8,9.99,11.67l1.22-1.29-17.81-20.92c-.27.6-.73,1.03-1.37,1.22,2.64,3.12,5.31,6.22,7.97,9.33ZM112.91,81.6c-.5-.06-.88-.41-1.14-.82-.06-.09-.15-.49-.26-.4l-17.44,20.41s-.05.05-.07.07c.02.02.05.05.07.07.45.42.89.84,1.34,1.26l17.51-20.59ZM113.43,81.9l5.09,2.21c.18.1.67-.8.68-.85.02-.1-.05-.12-.11-.16-1.05-.49-2.06-1.16-3.19-1.47-.18-.05-.37,0-.59-.07-.24-.08-.54-.35-.72-.53-.28.45-.95.44-1.15.89ZM68.92,82.19c.07-.08-.46-.59-.55-.67-.1-.09-.31-.28-.43-.28l-4.05,1.88c.09.2.43,1.03.63,1.05l4.41-1.98ZM107.43,89.08c2.41.59,4.65,1.68,6.91,2.66l3.96-6.98c-.02-.12-.52-.37-.66-.45-.52-.28-4.39-2.05-4.66-1.93l-5.55,6.7ZM74.92,89.3c.05-.06-.14-.3-.19-.36-1.06-1.42-2.51-3.03-3.69-4.38-.28-.31-1.56-1.82-1.81-1.89l-4.52,1.97,4.03,7.18c1.99-1,4.04-1.9,6.18-2.51ZM65.65,87.91c-3.31,1.68-6.54,3.73-9.42,6.07-.21.17-.82.6-.93.77-.05.08-.09.08-.04.19.07.14.82,1.04.93,1.01,3.22-2.49,6.46-4.98,10.04-6.93.2-.13-.05-.49-.15-.67s-.21-.48-.43-.43ZM117.22,87.91l-.5,1.03c3.67,1.92,6.89,4.55,10.23,6.96.16,0,.94-1.02.89-1.11-2.71-2.12-5.49-4.2-8.51-5.86-.28-.15-1.97-1.1-2.11-1.01ZM81.66,89.08c-.02-.2-.12-.83-.34-.87l-2.77.58.71.87,2.4-.58ZM103.65,88.64c-.07-.09-1.94-.48-2.11-.45-.25.05-.32.62-.34.85.91.22,2.03.82,2.45-.4ZM66.69,89.46c-.14-.08-.89.39-1.08.5-3.21,1.81-6.24,4.14-9.1,6.45l4.6,5.7c3.92-2.79,7.99-5.44,12.47-7.26l-.19-.14-4.32-.93-2.38-4.32ZM109.43,94.86c4.49,1.8,8.61,4.39,12.49,7.25l4.6-5.6c.02-.16-.9-.85-1.07-.98-2.82-2.25-5.81-4.32-8.97-6.07l-.1.02-2.39,4.32c-1.48.34-2.97.64-4.46.91-.09.02-.24.03-.11.15ZM106.32,90.34c2.51.77,4.96,1.71,7.31,2.88l.13-.06.39-.78c0-.1-.23-.2-.32-.25-.88-.46-2.06-.93-2.99-1.3-.87-.35-2.84-1.17-3.68-1.28-.41-.06-.67.45-.83.8ZM101,89.68l-.6,2.48-17.89.03-.17-.13-.53-2.47c-.65.27-1.47.26-2.12.51-.08.03-.13-.04-.11.12l9.15,10.63,2.32-2.27v-.18c-1.66-.2-1.81-2.71-.1-2.89,2.02-.22,2.39,2.42.49,2.89,0,.06.02.12.03.18.72.63,1.44,1.26,2.15,1.89.02.01.03.03.05.04.03-.04.07-.07.1-.11l8.85-10.34c0-.16-1.43-.52-1.62-.4ZM76.11,90.56c-.27-.31-.5-.87-.98-.8-.76.11-2.66.95-3.46,1.28s-1.89.76-2.65,1.2c-.06.04-.12-.02-.1.13.02.12.43.86.54.84,2.14-1.06,4.36-1.96,6.64-2.66ZM104.32,114.85h-3.07l-.11-.11v-2.89c0-.67.09-1.45.75-1.78l-.63-.99-2.93,2.92-.03.18,8.59,10.08.2-16.17,9.47-5.2c.04-.1-.32-.28-.41-.33-.21-.13-.44-.26-.66-.38-3.23-1.88-6.69-3.28-10.12-4.73-.07-.09.39-.63.48-.74.78-.92,2.1-1.92,2.7-2.93.04-.07.13-.05,0-.15l-2.8-.84-10,11.81,5.44,5.57.11-.03c.75-1.57,3.09-1.01,2.88.73-.06.48-.69,1.01-.67,1.19,0,.03.42.26.51.39.11.15.2.48.22.66.04.35.07.88.09,1.25.04.82-.03,1.66,0,2.48ZM80.96,114.85h-3.07v-3.67c0-.47.43-.89.74-1.2.02-.1-.3-.36-.38-.49-1.03-1.67,1.27-3.2,2.38-1.64.41.57.12.94.93.26,1.32-1.11,3.18-3.07,4.37-4.37.11-.12.7-.8.71-.85l-10.05-11.89c-.15-.04-.71.15-.89.2-.17.05-1,.33-1.08.39-.09.06-.14.22-.11.32.61.57,1.14,1.27,1.73,1.83.31.3.41.38.71.7.14.15.85.83.74,1-3.82,1.65-7.75,3.17-11.25,5.45l9.39,5.12.16,15.13,7.84-9.09-.06-.14c-.72-.65-1.36-1.43-2.08-2.07-.12-.11-.78-.7-.88-.62l-.53.84c.39.24.68.66.74,1.12.09.79.18,2.64.09,3.4-.01.11,0,.19-.11.26ZM112.84,93.45l-3.59-1.53-2.85,2.86,6.44-1.33ZM76.62,94.64l-2.78-2.67c-1.24.34-2.45.91-3.59,1.52l6.33,1.3.04-.15ZM76.55,95.3l-2.02-.28c-3.89,1.63-7.59,3.66-11.04,6.07l-1.97,1.49c.13.16.37.61.6.56,3.08-2.27,6.4-4.22,9.88-5.83,1.32-.61,2.68-1.1,4-1.7.17-.08.44-.15.54-.31ZM106.54,95.45c5.14,1.85,10.02,4.45,14.42,7.69.24.06.46-.39.6-.55-3.11-2.37-6.43-4.48-9.96-6.17-.63-.3-2.63-1.33-3.18-1.41-.36-.05-1.33.22-1.77.29-.1.02-.24.03-.11.15ZM90.97,95.84c-1.1.2-1.1,1.98.2,2.06.41.02.64-.04.89-.37.65-.84-.11-1.87-1.1-1.69ZM91.32,98.92l-9.93,9.93,9.71,9.71,9.93-9.93-9.71-9.71ZM73.96,105.37l-7.92-4.19-3.26,2.11c-.02.19,0,.12.11.15.4.12.93.19,1.36.27,3,.59,6.03,1.05,9.03,1.63l.68.02ZM120.32,103.45l-3.28-2.28-7.97,4.36,11.26-2.07ZM63.78,127.81h11.66v-21.44l-1.23-.32-.11.17-.08,20.91c-.12.06-.26.08-.39.09-2.72.2-5.69-.15-8.44-.01l-.25-.08-.02-.1.08-22.44-.07-.15-1.19-.18.04,23.55ZM117.95,127.22h-8.7c-.13,0-.48-.14-.41-.33v-16.67s-.14-4.08-.14-4.08l-1.19.19v21.48h11.7l-.07-23.55c-.27.04-1.13.06-1.19.33v22.63ZM73.59,105.97l-8-1.41-.15,22.14h8.15v-20.74ZM109.36,105.97v20.74h8.15l-.15-22.07-8,1.33ZM79.27,107.54c-1.26.16-1.11,2.28.34,2.13s1.06-2.3-.34-2.13ZM102.6,107.54c-1.5.12-1.07,2.63.53,2.02,1.23-.47.62-2.11-.53-2.02ZM103.88,114.26c-.02-.58.02-1.16,0-1.74,0-.16-.07-.3-.08-.44-.04-.62.19-1.19-.42-1.58s-1.45-.29-1.7.43l-.11,3.34h2.3ZM80.62,114.26l-.09-3.28c-.29-.83-1.9-.96-2.1-.06-.23,1.05-.05,2.26-.11,3.34h2.3ZM76.03,121.78v3.3l9.55-11.23c.03-.14-1.27-1.29-1.44-1.51l-8.11,9.44ZM106.91,125.74v-2.56s.1-.1.04-.18l-8.89-10.45c-.06-.07-.1-.08-.19-.04-.13.07-1.17,1.18-1.17,1.26l10.2,11.96ZM92.29,120.25c0-.58-.47-1.06-1.06-1.06s-1.06.47-1.06,1.06.47,1.06,1.06,1.06,1.06-.47,1.06-1.06ZM92.47,126.11v-3c0-.11-.18-.59-.26-.7-.39-.48-1.77-.45-1.88.26-.05.3-.07.91-.08,1.25-.03.73.03,1.46,0,2.19h2.22ZM75.44,128.41h-11.7l.07,3.41.15-1.22v-1.52s.74,0,.74,0v2.56s.1.11.07.18c.03.02.15-.1.15-.11v-2.63h.81v2.74h.15v-2.56s.1-.11.07-.19h1.26v2.41c0,.06.12.22.07.33h.07s0-2.74,0-2.74h.81v2.74c.06.04.15-.15.15-.19v-2.44c.18-.2.5-.08.74-.11v2.11c0,.12.15.43.07.63h.15s0-2.04,0-2.04c0-.14.15-.48.07-.7l.23.03c.13.84.04,1.73.14,2.6.02.13-.03.12.15.11v-2.63c.09-.14.26-.12.41-.12.1,0,.19,0,.28.02l.12.1v2.44s.09.11.07.18h.07s0-2.74,0-2.74h.89v2.74h.15v-2.48s.09-.25.12-.26h.77v2.74h.15v-2.41c0-.06.12-.22.07-.33h.22v2.11c0,.06.06.39.07.52.02.14-.02.12.15.11l.07-2.74h.74v2.56s.07.22.15.18l.07-2.74h.74s.07,2.67.07,2.67c.07,0,.15-.39.15-.41v-2.93ZM119.06,128.41h-11.63v3.33h.15v-2.67h.81v2.74h.15c-.05-.12.07-.28.07-.33v-2.41h.74v2.48s.11.16.07.26c.02.02.15-.1.15-.11v-2.52l.11-.11h1.15l.07,2.67s.15-.1.15-.11v-2.56h.81v2.74h.07c-.08-.18.07-.46.07-.56v-2.18h.74v2.56s.1.11.07.18c.03.02.15-.1.15-.11v-2.37s.11-.17.07-.26c.09-.03.3.03.3.11v2.52s.13.13.15.11c-.02-.17.07-.49.07-.63v-2.11h.74v2.74h.15c-.03-.12.07-.32.07-.41v-2.33h.89v2.74h.15v-2.74h.81v2.41s.07.29.15.26l.09-2.54.1-.12.18.11v2.44s.09.11.08.18h.15s0-2.74,0-2.74h.81v2.74h.15v-2.56s.08-.17.12-.19h.69s0,1.82,0,1.82l.15.85v-3.33Z"/>
    <path class="st0" d="M114.24,115.74v-1.67c0-.08-.1-.58-.13-.68-.16-.5-.65-.7-1.15-.59-.93.19-.62,1.36-.65,2.09,0,.14-.07.28-.08.44-.01.56.02,1.11,0,1.67.92.1,1.84-.07,2.77.01l.09.06c.07.1.09.93-.08,1.04h-2.78v2.26c0,.24-.75.19-.91.19-.09-.02-.12-.25-.12-.34-.15-1.66-.1-4.38,0-6.08.04-.74.11-1.44.71-1.96,1.17-1.01,3.05-.39,3.27,1.17.06.39.09,1.84.02,2.2-.02.08-.03.15-.12.17h-.84Z"/>
    <path class="st0" d="M71.14,117.3h.59v1.04h-.59v1.44c0,.06-.12.65-.14.67l-.86-.04-.03-2.08h-1.22c-.36,0-.89-.3-1.11-.59-.58-.75-.6-3.75-.39-4.69.4-1.78,3.09-1.81,3.59-.07.06.19.17.84.17,1.02v3.3ZM70.11,117.3c-.1-1.19.17-2.65-.09-3.8-.17-.75-1.19-1-1.53-.46-.26.42-.22,3.66.11,4.03.05.05.4.22.44.22h1.07Z"/>
    <path class="st0" d="M93.15,108.76c0,1.04-.84,1.88-1.88,1.88s-1.88-.84-1.88-1.88.84-1.88,1.88-1.88,1.88.84,1.88,1.88ZM91.12,107.61c-1.89.21-.91,3.11.78,2.12,1.08-.63.47-2.26-.78-2.12Z"/>
    <path class="st0" d="M93.13,104.18c0,1.04-.84,1.88-1.88,1.88s-1.88-.84-1.88-1.88.84-1.88,1.88-1.88,1.88.84,1.88,1.88ZM91.2,103.02c-1.91.16-1.11,2.97.63,2.18,1.16-.52.58-2.29-.63-2.18Z"/>
    <path class="st0" d="M83.59,91l-3.55-17.19c.04-.3.49-.77.69-1.02,3.06-3.75,6.44-7.52,9.63-11.18.29-.34.7-.86,1-1.15.05-.05.09-.13.18-.11l11.43,13.31-3.55,17.3-15.83.04ZM100.02,85.44l2.37-11.64-10.91-12.64c-2.66,3.13-5.42,6.19-8.07,9.33-.96,1.14-1.94,2.27-2.81,3.47.81,3.83,1.61,7.66,2.42,11.49.13,0,.27,0,.41,0,.16,0,.31,0,.46,0h16.13ZM99.88,86.04l-16.74.11c.16.6.19,1.42.38,1.99.03.08.02.18.14.19.18-1.44,1.8-1.69,2.7-.68.73-.81,1.79-.84,2.52,0,.25-.13.41-.38.67-.49.76-.33,1.76.04,1.96.88.66-.97,1.79-1.26,2.63-.31.77-.77,1.97-.64,2.52.31.47-.9,1.89-1.13,2.51-.29.12.16.13.47.34.44l.37-2.15ZM84.5,87.92c-.57.57.07,1.9,1.08,1.19.95-.66-.37-1.9-1.08-1.19ZM88.41,88.52c0-.44-.36-.79-.79-.79s-.79.36-.79.79.36.79.79.79.79-.36.79-.79ZM89.86,87.76c-.92.21-.53,1.92.58,1.47.92-.37.43-1.7-.58-1.47ZM92.6,87.91c-.82.19-.49,1.67.47,1.51,1.04-.17.87-1.81-.47-1.51ZM96.09,88.7c0-.44-.36-.8-.8-.8s-.8.36-.8.8.36.8.8.8.8-.36.8-.8ZM97.78,87.91c-1.09.24-.44,2.1.64,1.46.86-.51.17-1.63-.64-1.46ZM91.58,89.15c-.09-.07-.48.47-.64.58-.64.42-1.69.33-2.03-.43-.69.82-1.94,1-2.55,0h-.11c-.32.76-1.44.87-2.07.4l-.38-.36.27,1.23,14.87-.07.19-.74c-.23.05-.35.25-.59.33-.84.3-1.46-.1-1.92-.78-.53,1.04-1.78,1.14-2.56.31-.84.79-2.06.64-2.48-.46Z"/>
    <path class="st0" d="M99.43,75.44c0,4.42-3.58,8-8,8s-8-3.58-8-8,3.58-8,8-8,8,3.58,8,8ZM98.89,75.44c0-4.12-3.34-7.45-7.45-7.45s-7.45,3.34-7.45,7.45,3.34,7.45,7.45,7.45,7.45-3.34,7.45-7.45Z"/>
    <path class="st0" d="M93.21,84.04c1.2.1,2.15-.39,3.18-.89-.13,1.3-1.27,2.58-2.59,1.66-.11-.07-.7-.68-.6-.77Z"/>
    <path class="st0" d="M98.84,80.12c1,1.68-.13,3.15-2,2.74.51-.6,1.11-1.11,1.47-1.82.07-.13.33-1.06.53-.92Z"/>
    <path class="st0" d="M96.85,83.24c1.28-.16,1.96.87,1.32,1.96-1.23-.02-1.66-.8-1.32-1.96Z"/>
    <g>
      <path class="st0" d="M89.66,84.04c-.12.59-1.17,1.17-1.72,1.1-.78-.11-1.4-1.14-1.46-1.86l.17-.11c.9.61,1.91.96,3.01.88Z"/>
      <path class="st0" d="M85.32,82.09c.16.18.64.5.71.66.06.15-.26.18-.33.18-1.86.17-2.68-1.35-1.56-2.81.35.77.62,1.33,1.18,1.97Z"/>
      <path class="st0" d="M86.02,83.24c.41,1.22-.29,1.91-1.47,1.99-.26-1.23.09-2.08,1.47-1.99Z"/>
    </g>
    <path class="st0" d="M98.15,75.44c0,3.71-3.01,6.71-6.71,6.71s-6.71-3.01-6.71-6.71,3.01-6.71,6.71-6.71,6.71,3.01,6.71,6.71ZM92.18,69.23h-1.7l.48.52.2.43h.42c.06-.42.35-.64.6-.95ZM89.07,69.68c-3.62,1.43-5.01,5.92-2.84,9.18,1.94,2.92,5.89,3.67,8.79,1.7,4.12-2.8,3.29-9.11-1.28-10.87.16.39.21.66.08,1.08-.14.45-.52.53-.76.87-.16.23-.76,1.88-.71,2.07.02.09.34.4.44.39.48-.26,1.34-.33,1.77-.6.24-.16.29-.46.52-.66,1.04-.9,2.48.36,1.77,1.47-.16.24-.7.59-.64.89.03.14.55.34.72.61.63,1.08-.66,2.34-1.73,1.58-.33-.23-.38-.64-.73-.83-.16-.09-1.81-.65-1.91-.61-.08.03-.36.34-.37.45,0,.09.27,1.19.32,1.38s.22.9.3,1c.09.12.56.24.74.4,1,.87-.21,2.68-1.46,1.9-.29-.18-.39-.6-.75-.58-.27.02-.61.57-.98.73-1.2.54-2.02-1.12-1.22-1.96.21-.21.52-.26.65-.46.15-.22.62-2.15.61-2.43,0-.2-.2-.41-.4-.46l-1.75.55c-.25,1.55-2.36,1.43-2.38-.08,0-.67.56-.82.45-1.56-.04-.25-.27-.38-.39-.65-.57-1.29,1.11-2.45,2.05-1.16.26.36.04.42.62.64.36.14,1.57.57,1.71.04.08-.3-.44-1.71-.66-1.98-.16-.21-.41-.31-.55-.48-.4-.49-.4-1.04-.04-1.55ZM90.53,70.4c0-.3-.25-.55-.55-.55s-.55.25-.55.55.25.55.55.55.55-.25.55-.55ZM93.27,70.35c0-.3-.24-.55-.55-.55s-.55.24-.55.55.24.55.55.55.55-.24.55-.55ZM92.32,71.46c-.49-.06-.52-.66-1.07-.61-.32.03-.27.22-.44.38-.1.1-.33.21-.38.29-.13.27.47,1.47.49,1.84h.87s.52-1.91.52-1.91ZM87.42,74.03c.29-.31.03-.95-.45-.92-1.09.06-.23,1.64.45.92ZM96.38,73.69c0-.3-.25-.55-.55-.55s-.55.25-.55.55.25.55.55.55.55-.25.55-.55ZM92.27,74.95c0-.52-.42-.94-.94-.94s-.94.42-.94.94.42.94.94.94.94-.42.94-.94ZM95.57,75.29c.12-.58-.7-.64-.91-1.15l-1.75.54v.69s1.76.59,1.76.59c.21,0,.58-.67.9-.66ZM88.08,74.21c-.34.37-.68.53-1.13.73,0,.35.39.3.63.42.22.11.34.32.56.4l1.63-.44-.04-.64-1.65-.47ZM86.82,75.91c-.5.11-.45.95.15,1.01.83.08.87-1.24-.15-1.01ZM96.44,76.44c0-.3-.25-.55-.55-.55s-.55.25-.55.55.25.55.55.55.55-.25.55-.55ZM91.56,79.8c.07-.07.21-.44.33-.6.08-.11.28-.15.29-.3l-.56-2.26-.59-.15-.62,2.4c.31.17.79,1.28,1.15.92ZM93.12,80.47c.55-.55-.38-1.32-.83-.79-.42.5.33,1.29.83.79ZM89.71,79.62c-.52.15-.35,1.32.52.96.63-.26.19-1.17-.52-.96Z"/>
    <path class="st0" d="M88.57,108.74c0,1.04-.84,1.88-1.88,1.88s-1.88-.84-1.88-1.88.84-1.88,1.88-1.88,1.88.84,1.88,1.88ZM86.63,107.59c-1.91.16-1.11,2.97.63,2.18,1.16-.52.58-2.29-.63-2.18Z"/>
    <path class="st0" d="M97.75,108.77c0,1.04-.84,1.88-1.88,1.88s-1.88-.84-1.88-1.88.84-1.88,1.88-1.88,1.88.84,1.88,1.88ZM95.81,107.62c-1.91.16-1.11,2.97.63,2.18,1.16-.52.58-2.29-.63-2.18Z"/>
    <path class="st0" d="M93.1,113.34c0,1.04-.84,1.88-1.88,1.88s-1.88-.84-1.88-1.88.84-1.88,1.88-1.88,1.88.84,1.88,1.88ZM91.16,112.18c-1.91.16-1.11,2.97.63,2.18,1.16-.52.58-2.29-.63-2.18Z"/>
    <g>
      <path class="st0" d="M88.12,67.44c-.24-.55.29-1.63.78-1.88.7-.36,1.8.13,2.26.69l-.07.19c-1.08.01-2.12.31-2.97,1Z"/>
      <path class="st0" d="M92.8,66.56c-.23-.06-.81-.04-.96-.14-.14-.08.11-.29.17-.34,1.43-1.2,2.97-.42,2.89,1.41-.72-.43-1.27-.74-2.1-.94Z"/>
      <path class="st0" d="M91.57,66.02c-1.04-.76-.86-1.73.06-2.47.92.86,1.12,1.75-.06,2.47Z"/>
    </g>
  </g>
</svg>