<?xml version="1.0" encoding="UTF-8"?>
<svg id="Layer_1" xmlns="http://www.w3.org/2000/svg" version="1.1" viewBox="0 0 187 187">
  <!-- Generator: Adobe Illustrator 29.6.1, SVG Export Plug-In . SVG Version: 2.1.1 Build 9)  -->
  <defs>
    <style>
      .st0 {
        fill: none;
        isolation: isolate;
        opacity: .5;
        stroke: #000;
        stroke-width: 4.63px;
      }
    </style>
  </defs>
  <path class="st0" d="M98.72,74.52l.87,3.12,2.67-1.83,14.49-9.92-7.25,15.99-1.34,2.95,3.22.32,17.47,1.71-15.83,7.59-2.92,1.4,2.26,2.31,12.28,12.54-17-4.36-3.13-.81.25,3.23,1.35,17.5-10.22-14.28-1.88-2.63-1.88,2.63-10.22,14.28,1.35-17.5.25-3.23-3.13.81-17.01,4.36,12.28-12.54,2.26-2.31-2.92-1.4-15.83-7.59,17.47-1.71,3.22-.32-1.34-2.95-7.25-15.99,14.49,9.92,2.67,1.83.87-3.12,4.72-16.91,4.72,16.91Z"/>
</svg>