<?xml version="1.0" encoding="UTF-8"?>
<svg id="Layer_1" xmlns="http://www.w3.org/2000/svg" version="1.1" viewBox="0 0 187 187">
  <!-- Generator: Adobe Illustrator 29.6.1, SVG Export Plug-In . SVG Version: 2.1.1 Build 9)  -->
  <defs>
    <style>
      .st0 {
        fill-rule: evenodd;
      }

      .st1 {
        opacity: .5;
      }
    </style>
  </defs>
  <g class="st1">
    <path class="st0" d="M94.04,51.01h0s-3.5,3.33-3.5,3.33l.32,3.55c-7.19.67-13.76,3.5-19.04,7.85l-2.37-2.84-4.83.13h0s0,0,0,0h0s-.13,4.83-.13,4.83l2.8,2.35c-4.58,5.42-7.56,12.25-8.18,19.74l-3.78-.34-3.32,3.5h-.01,0s0,.01,0,.01h.01l3.32,3.5,3.82-.34c.71,7.34,3.67,14.02,8.2,19.34l-3.03,2.53.13,4.82h0s0,.01,0,.01h0l4.83.13,2.56-3.07c5.28,4.34,11.85,7.17,19.04,7.83l-.35,3.89,3.5,3.32h0s0,0,0,0h0s0,0,0,0l3.5-3.32-.35-3.87c7.24-.63,13.85-3.46,19.16-7.81l2.44,2.92,4.83-.13h.01,0s.13-4.83.13-4.83l-2.87-2.4c4.52-5.32,7.5-11.99,8.21-19.33l3.56.32,3.32-3.5h.01,0s0-.01,0-.01h-.01l-3.32-3.5-3.52.32c-.62-7.44-3.56-14.22-8.09-19.62l2.72-2.28-.13-4.82h0v-.02h0s-4.83-.12-4.83-.12l-2.29,2.74c-5.33-4.42-11.99-7.29-19.28-7.93l.32-3.53-3.5-3.32h0s0,0,0,0h0ZM96.73,63.53c6.11.54,11.68,2.94,16.15,6.63l-9.97,11.92c-2.1-1.71-4.71-2.84-7.56-3.11l1.38-15.44ZM91.36,63.54l1.38,15.42c-2.78.25-5.33,1.3-7.42,2.92l-9.86-11.79c4.41-3.62,9.89-5.99,15.9-6.55ZM71.65,73.85l11.76,9.83c-1.95,2.2-3.22,5.02-3.49,8.12l-15.15-1.35c.52-6.3,3.02-12.04,6.88-16.6ZM116.69,73.95c3.81,4.53,6.28,10.23,6.8,16.48l-15.41,1.37c-.26-2.99-1.46-5.72-3.3-7.88l11.91-9.97ZM93.78,82.22s.05,0,.07,0c.07,0,.14,0,.21,0,5.98,0,10.83,4.85,10.83,10.83s-4.85,10.83-10.83,10.83-10.83-4.85-10.83-10.83,4.7-10.68,10.55-10.83ZM79.93,94.43c.29,2.99,1.51,5.7,3.37,7.85l-11.59,9.69c-3.8-4.45-6.29-10.05-6.89-16.2l15.12-1.35ZM108.06,94.43l15.39,1.37c-.61,6.15-3.1,11.75-6.9,16.2l-11.76-9.83c1.8-2.13,2.99-4.8,3.27-7.74ZM102.92,104l9.8,11.73c-4.45,3.63-9.98,5.98-16.03,6.51l-1.35-15.11c2.86-.27,5.46-1.4,7.57-3.12ZM85.18,104.1c2.11,1.69,4.71,2.78,7.55,3.03l-1.35,15.09c-6.01-.55-11.49-2.91-15.91-6.53l9.7-11.59Z"/>
    <path class="st0" d="M97.15,92.99c0,.81-.32,1.58-.89,2.15-.57.57-1.34.89-2.15.89s-1.58-.32-2.15-.89c-.57-.57-.89-1.34-.89-2.15s.32-1.58.89-2.15c.57-.57,1.34-.89,2.15-.89s1.58.32,2.15.89c.57.57.89,1.34.89,2.15Z"/>
    <path class="st0" d="M93.42,88.67l-1.94.8-3.57-3.57,5.51-2.18v4.95Z"/>
    <path class="st0" d="M96.81,89.53l-1.94-.81v-5.04l5.44,2.35-3.5,3.5Z"/>
    <path class="st0" d="M90.62,90.34l-.81,1.94h-5.04l2.35-5.44,3.5,3.5Z"/>
    <path class="st0" d="M89.83,93.82l.8,1.94-3.57,3.57-2.18-5.51h4.95Z"/>
    <path class="st0" d="M91.49,96.51l1.94.81v5.04l-5.44-2.35,3.5-3.5Z"/>
    <path class="st0" d="M94.79,97.31l1.94-.8,3.57,3.57-5.51,2.19v-4.95Z"/>
    <path class="st0" d="M97.61,95.8l.81-1.94h5.04l-2.35,5.44-3.5-3.5Z"/>
    <path class="st0" d="M98.48,92.37l-.8-1.94,3.57-3.57,2.18,5.51h-4.95Z"/>
  </g>
</svg>