<?xml version="1.0" encoding="UTF-8"?>
<svg id="Layer_1" xmlns="http://www.w3.org/2000/svg" version="1.1" viewBox="0 0 187 187">
  <!-- Generator: Adobe Illustrator 29.6.1, SVG Export Plug-In . SVG Version: 2.1.1 Build 9)  -->
  <defs>
    <style>
      .st0 {
        opacity: .5;
      }

      .st1 {
        stroke: #000;
        stroke-width: .21px;
      }
    </style>
  </defs>
  <g class="st0">
    <path class="st1" d="M95.78,92.82c3.13,3.14,6.62,5.86,9.8,8.96,2.45,2.39,5.38,5.36,7.53,7,2.15,1.64,3.46,2.28,5.57,2.01,1.96-.25,3.87-.57,5.74-1.27,1.36-.51-.04-1.59-.77-2-4.8-2.65-9.69-5.37-14.06-8.71-2.81-2.15-5.4-4.58-7.69-7.3-1.16-1.39-3.03-2.68-1.99-3.58,4.03-3.47,11.11-6.25,17.16-9.68,1.48-.84,2.98-2.18,2.94-4.17-.02-1.26-.49-2.07-1.17-3.04-.78-1.11-2.06-1.7-3.19-1.71-1.17-.01-2.11.23-3.22,1.85-1.11,1.62-2.71,4.3-4.95,5.73-3.16,2.03-6.19,4.45-9.51,6.18-1.31.68-1.86-.5-1.82-1.72.16-5.04-.06-10.13-.56-15.16-.23-2.29-1.04-4.57-2.37-6.3-1.1-1.43-3.42-.87-5.15-.43-1.09.28-2.1.84-1.6,2.11,1.19,2.98,2.19,6.12,2.79,9.29.45,2.36,1.13,4.87.79,7.19-.2,1.38-2.12,1.48-3.27,2.03-6.01,2.89-12.21,5.38-18.43,7.8-2.18.85-4.93,1.35-6.3,3.36-.65.95-.13,2.31.25,3.28.54,1.37,1.52,2.49,2.87,3.24,1.38.77,2.71-.49,3.81-1.18,3.77-2.37,7.51-4.85,11.45-6.91,1.81-.95,3.66-1.84,5.56-2.61-1.65,2.8-3.23,5.71-5.26,8.26-3.68,4.62-7.67,9.01-11.81,13.24-2.28,2.33-6.44,5.07-6.49,7.33-.03,1.14,3.07-.19,4.46-.84,2.43-1.15,4.78-2.47,6.83-4.28,2.48-2.2,4.84-4.58,7.01-7.07,2.89-3.32,5.22-7.17,8.44-10.18,1.48-.02.42,4.5.48,6.21.19,5.17,1.08,11.49-.5,15.63-.52,1.37-4.64-.59-5.19,1.05-.56,1.66,1.99,3.22,3.16,4.63,1.78,2.13,3.68,4.26,5.82,5.97,1.2.96,1.72-.97,1.9-1.95.64-3.47,1.37-6.98,1.49-10.5.23-6.94-.11-13.9-.51-20.85-.01-.32-.03-.63-.04-.95Z"/>
  </g>
</svg>