<?xml version="1.0" encoding="UTF-8"?>
<svg id="Layer_1" xmlns="http://www.w3.org/2000/svg" version="1.1" viewBox="0 0 187 187">
  <!-- Generator: Adobe Illustrator 29.6.1, SVG Export Plug-In . SVG Version: 2.1.1 Build 9)  -->
  <defs>
    <style>
      .st0 {
        opacity: .5;
      }
    </style>
  </defs>
  <g class="st0">
    <path d="M75.06,129.08c-8.14-2.89-14.06-10.09-16.4-19.95-1.06-4.48-1.36-11.88-.48-11.88.29,0,1.07,2.03,1.74,4.51,1.45,5.43,3.92,10.54,6.31,13.03,3.97,4.15,13.8,5.77,19.46,3.22,4.41-1.99,6.2-6.72,4.28-11.32-1.48-3.56-4.85-4.75-11.11-3.93,0,0-3.84-4.11-5.06-11.4l3.94.35c4.74.43,8.32-.61,10.18-2.96,1.75-2.2,1.71-3.06-.23-5.3-2.8-3.24-7.84-2.42-18.03,2.94l-5.14-8.56,2.16-1.63c5.4-4.09,14.78-6.14,20.12-4.39,4.86,1.59,8.43,7.92,7.48,13.25-.64,3.61-3.56,8.66-5.8,10.07l-1.94,1.22,2.68,1.2c4.55,2.04,7.33.48,10.65-5.98,4.59-8.93,7.57-11.25,14.5-11.26,3.23,0,4.38.33,6.73,1.97,5.87,4.09,9.07,12.56,8.37,22.16-.89,12.16-6.69,19.54-15.36,19.54-4.76,0-7.82-1.66-10.26-5.55-2.14-3.42-3.11-10.19-1.88-13.17.59-1.43.7-1.48.74-.33.07,2.1,2.48,5.52,4.69,6.65,5.42,2.78,13.2-.71,16.28-7.32,2.34-5.02,1.08-14.69-2.12-16.4-.67-.36-2.33-.65-3.69-.65-2.88,0-5.15,2.06-8.32,7.57-1.1,1.9-2.94,4.36-4.1,5.47-1.88,1.79-2.56,2-6.33,2h-4.22l1.36,3.01c1.95,4.31,1.86,11.3-.21,15.56-1.82,3.76-6.04,7.57-9.41,8.5-3.28.91-8.63.79-11.56-.25ZM90.94,70.89c-1.87-3.16-3.01-9.07-1.76-9.07,1.47,3.17,4.48,5.99,7.7,7.96,5.79,2.79,11.66,1.66,18.08-3.46,1.41-1.13,2.66-1.92,2.78-1.77,1.57,2.42,4.28,4.39,5.17,7.19,0,1.18-5.13,4.59-9.18,6.1-10.03,2.87-16.86,1.74-22.79-6.95ZM95.99,63.58l6.53-7.2,7.26,6.68c-2.48,2.03-4.28,5.19-7.11,6.78-2.24-1.64-5.59-3.58-6.68-6.27Z"/>
  </g>
</svg>