<?xml version="1.0" encoding="UTF-8"?>
<svg id="Layer_1" xmlns="http://www.w3.org/2000/svg" version="1.1" viewBox="0 0 187 187">
  <!-- Generator: Adobe Illustrator 29.6.1, SVG Export Plug-In . SVG Version: 2.1.1 Build 9)  -->
  <defs>
    <style>
      .st0 {
        opacity: .5;
      }
    </style>
  </defs>
  <g class="st0">
    <path d="M87,53.7c-21.73.41-39.23,18.18-39.23,40s17.93,40.01,40.01,40.01c10.33,0,19.74-3.92,26.84-10.35-5.01,2.88-10.81,4.52-17,4.52-18.86,0-34.16-15.3-34.16-34.16s15.3-34.16,34.16-34.16c6.23,0,12.08,1.67,17.11,4.59-7.11-6.49-16.57-10.46-26.96-10.46-.26,0-.52,0-.78,0Z"/>
    <path d="M140.25,93.72l-34.43,11.19,21.28-29.29v36.2l-21.28-29.29,34.43,11.19Z"/>
  </g>
</svg>