<?xml version="1.0" encoding="UTF-8"?>
<svg id="Layer_1" xmlns="http://www.w3.org/2000/svg" version="1.1" viewBox="0 0 187 187">
  <!-- Generator: Adobe Illustrator 29.6.1, SVG Export Plug-In . SVG Version: 2.1.1 Build 9)  -->
  <defs>
    <style>
      .st0 {
        stroke-width: 3.3px;
      }

      .st0, .st1, .st2, .st3 {
        stroke: #000;
      }

      .st0, .st2 {
        fill: none;
        stroke-linecap: round;
        stroke-linejoin: round;
      }

      .st1, .st3 {
        fill-rule: evenodd;
        stroke-miterlimit: 10;
      }

      .st2 {
        stroke-width: 1.93px;
      }

      .st3 {
        fill: #fff;
      }

      .st4 {
        opacity: .5;
      }
    </style>
  </defs>
  <g class="st4">
    <path class="st0" d="M95.45,90.94l-.16-33.69s-3.78-5.43-7.73,0v34.24"/>
    <path class="st0" d="M87.32,62.69s-4.11-4.71-7.23.27v9.33"/>
    <path class="st0" d="M80.09,94.02s.06-22.77,0-22.82c-.76-.69-5.27-3.98-7.4,1.18l-.08,38.85c-.09,5.21,2.91,21.31,20.71,21.56,18.84.26,19.94-19.86,19.97-20.11.08-.58-1.71-21.56.66-31.61-.04-.15-11.09-6.46-10.6,12.86v-28.89s-2.63-6.07-7.73-.91"/>
    <path class="st3" d="M92.03,97.71l.96,14.7.98-14.7-.98.14-.96-.14Z"/>
    <path class="st3" d="M95.87,97.96l-2.87,14.44,4.75-13.94-.98-.12-.89-.38Z"/>
    <path class="st3" d="M99.51,99.19l-6.51,13.21,8.2-12.24-.92-.37-.77-.6Z"/>
    <path class="st3" d="M102.71,101.33l-9.71,11.07,11.08-9.7-.79-.59-.58-.78Z"/>
    <path class="st3" d="M105.25,104.22l-12.25,8.18,13.22-6.5-.61-.78-.36-.9Z"/>
    <path class="st3" d="M106.95,107.66l-13.95,4.73,14.45-2.86-.39-.91-.12-.96Z"/>
    <path class="st3" d="M107.7,111.43l-14.7.96,14.7.98-.14-.98.14-.96Z"/>
    <path class="st3" d="M107.45,115.27l-14.45-2.87,13.94,4.75.12-.98.38-.89Z"/>
    <path class="st3" d="M106.22,118.91l-13.21-6.51,12.24,8.2.37-.92.6-.76Z"/>
    <path class="st3" d="M104.08,122.11l-11.07-9.71,9.7,11.08.6-.79.78-.58Z"/>
    <path class="st3" d="M101.19,124.65l-8.18-12.25,6.5,13.22.78-.61.9-.36Z"/>
    <path class="st3" d="M97.75,126.35l-4.73-13.95,2.86,14.45.91-.39.97-.12Z"/>
    <path class="st3" d="M93.98,127.1l-.96-14.7-.98,14.7.98-.14.96.14Z"/>
    <path class="st3" d="M90.14,126.85l2.87-14.44-4.75,13.94.98.12.89.38Z"/>
    <path class="st3" d="M86.5,125.62l6.51-13.21-8.2,12.24.92.37.76.6Z"/>
    <path class="st3" d="M83.3,123.48l9.71-11.07-11.08,9.7.79.6.58.78Z"/>
    <path class="st3" d="M80.76,120.6l12.25-8.18-13.22,6.5.61.78.36.9Z"/>
    <path class="st3" d="M79.06,117.15l13.95-4.73-14.45,2.86.39.91.12.97Z"/>
    <path class="st3" d="M88.26,98.46l4.73,13.95-2.86-14.45-.91.39-.97.12Z"/>
    <path class="st3" d="M84.81,100.16l8.18,12.25-6.5-13.22-.78.61-.9.36Z"/>
    <path class="st3" d="M81.93,102.7l11.07,9.71-9.7-11.08-.6.79-.78.58Z"/>
    <path class="st3" d="M79.79,105.9l13.21,6.51-12.24-8.2-.37.92-.6.76Z"/>
    <path class="st3" d="M78.56,109.54l14.45,2.87-13.94-4.75-.12.98-.38.89Z"/>
    <path class="st3" d="M78.31,113.38l14.7-.96-14.7-.98.14.98-.14.96Z"/>
    <path class="st2" d="M107.77,112.4c0,1.94-.38,3.86-1.12,5.65-.74,1.79-1.83,3.42-3.2,4.79-1.37,1.37-3,2.46-4.79,3.2-1.79.74-3.71,1.12-5.65,1.12s-3.86-.38-5.65-1.12c-1.79-.74-3.42-1.83-4.79-3.2-1.37-1.37-2.46-3-3.2-4.79-.74-1.79-1.12-3.71-1.12-5.65s.38-3.86,1.12-5.65c.74-1.79,1.83-3.42,3.2-4.79,1.37-1.37,3-2.46,4.79-3.2s3.71-1.12,5.65-1.12,3.86.38,5.65,1.12c1.79.74,3.42,1.83,4.79,3.2,1.37,1.37,2.46,3,3.2,4.79.74,1.79,1.12,3.71,1.12,5.65Z"/>
    <path class="st1" d="M101.01,112.55c0,1.04-.2,2.06-.6,3.02-.4.96-.98,1.83-1.71,2.56-.73.73-1.6,1.31-2.56,1.71-.96.4-1.98.6-3.02.6s-2.06-.2-3.02-.6c-.96-.4-1.83-.98-2.56-1.71-.73-.73-1.31-1.6-1.71-2.56-.4-.96-.6-1.98-.6-3.02,0-1.03.2-2.06.6-3.02.4-.96.98-1.83,1.71-2.56.73-.73,1.6-1.31,2.56-1.71.96-.4,1.98-.6,3.02-.6s2.06.2,3.02.6c.96.4,1.83.98,2.56,1.71.73.73,1.31,1.6,1.71,2.56.4.96.6,1.98.6,3.02Z"/>
  </g>
</svg>