<?xml version="1.0" encoding="UTF-8"?>
<svg id="Layer_1" xmlns="http://www.w3.org/2000/svg" version="1.1" viewBox="0 0 187 187">
  <!-- Generator: Adobe Illustrator 29.6.1, SVG Export Plug-In . SVG Version: 2.1.1 Build 9)  -->
  <defs>
    <style>
      .st0 {
        isolation: isolate;
        opacity: .5;
      }
    </style>
  </defs>
  <path class="st0" d="M66.71,53c.28.88.42,1.75.54,2.67.04.29.09.59.13.88.08.53.14,1.06.19,1.59.12,1.07.28,1.82,1.15,2.53.24.16.48.33.72.49.54.4,1.02.88,1.5,1.34.38.36.75.71,1.13,1.06.08.08.17.16.25.25q.48.44,1.1.53c.39-.15.77-.31,1.14-.49,3.67-1.7,7.56-2.63,11.54-3.28.12-.02.24-.04.37-.06,6.18-1.01,12.68-.53,18.74.98.13.03.26.06.39.1,1.76.44,3.44,1.01,5.13,1.7.38.16.77.31,1.16.46,4.07,1.64,8.18,4.12,11.28,7.23.3.27.59.53.89.8,5.35,4.87,9.14,11.9,9.56,19.2.35,7.97-2.24,15.29-7.56,21.23q-.17.19-.35.38c-.29.32-.57.64-.84.97-3.85,4.4-9.61,7.76-15.09,9.63-.13.04-.25.09-.38.13-2.36.81-4.75,1.4-7.19,1.92-.13.03-.26.06-.39.09-1.15.25-2.32.37-3.49.49-.11.01-.22.02-.33.03-3.98.36-7.91.27-11.87-.29-.16-.02-.31-.04-.47-.06-7.44-1.03-14.89-4.26-20.66-9.08q-.13-.1-.25-.21c-4.69-3.91-4.77-3.59-5.34-5.31-.1,0-.13-.32-.24-.32q-.23-.32-.5-.76-.43-.7-.88-1.39c-.76-1.14-1.36-2.34-1.95-3.56-.11-.23-.24-.46-.36-.69-2.95-5.41-3.01-12.71-1.38-18.52,1.14-3.84,2.97-7.32,5.39-10.51.09-.12.18-.23.27-.35.08-.11.16-.21.25-.32.07-.09.15-.19.22-.29.06-.07.13-.13.2-.2h.32c.04-.09.08-.18.12-.27.39-.7,1.02-1.23,1.59-1.8q.2-.2.41-.41c1.51-1.48,3.15-2.68,4.91-3.86q.4-.25.55-.6c-.11-.04-.23-.07-.34-.11-.52-.24-.85-.54-1.26-.93-.21-.2-.43-.41-.65-.6q-.27-.25-.55-.58c-1.03-1.06-2.07-1.07-3.48-1.1-.49,0-.98,0-1.47,0-.33,0-.67,0-1,0-.82,0-1.63,0-2.45,0,.31-2.37,2.04-4.24,3.61-5.95.3-.33.59-.66.88-1,1.13-1.29,3.31-3.78,5.13-3.78ZM71.76,70.19c-2.2,1.1-4.33,2.82-6.02,4.59-.1.1-.19.2-.29.3-1.1,1.07-2.12,2.21-3.05,3.43-.09.12-.18.24-.26.35-3.54,4.53-4.67,9.83-4.61,15.43.12,6.12,3.2,12.17,7.56,16.4.12.12.24.23.36.34,1.59,1.5,3.19,2.91,5.03,4.1q.25.16.49.31c3.06,2.04,6.47,3.45,9.98,4.5.15.04.29.09.43.13,1.05.31,2.05.5,3.14.57q-.54-1.22-3.95-2.58c-1.26-.49-2.42-.9-3.27-2.02-.07-.1-.13-.19-.19-.29-.26-.36-.48-.73-.7-1.12-.08-.15-.17-.31-.25-.46-.83-1.49-1.49-3.04-2.11-4.63-.04-.11-.08-.22-.13-.32-.52-1.34-1.01-2.67-1.37-4.07-.05-.21-.09-.4-.14-.6q-.2-.46-.61-.72t-.83-.38c-.11-.06-.21-.12-.32-.18-1.01-.58-2.01-1.17-2.95-1.85-.38-.29-.75-.57-1.14-.85q-.16-.11-.31-.22c-.21-.15-.43-.3-.64-.46-1.12-.79-1.94-1.56-2.39-2.9q1.57-6.91,5.71-12.99c.22-.36.44-.72.66-1.08.79-1.31,1.59-2.61,2.4-3.9q.15-.25.31-.49c.48-.77.95-1.54,1.46-2.29.09-.13.18-.25.26-.38.16-.23.32-.47.48-.7.37-.51.68-.94.79-1.57.03-.54.06-.91-.31-1.32q-.37-.18-.63-.37c-.19-.14-.37-.27-.56-.41-.1-.07-.2-.14-.29-.21-.55-.4-1.1-.86-1.74-1.09ZM92.47,64.48c-.33,0-.67,0-1,0-.16,0-.32,0-.48,0-1.16,0-2.3.06-3.46.18-2.85.33-8.82.77-10.72,3.15q.28.46.49.73.38.28,1.21.33c1.5.06,2.54.62,3.8,1.43,1.4,1,2.47,2.48,2.8,4.18.23,1.43.78,2.13,1.85,3.05.9.76,1.76,1.55,2.6,2.39q.19.19.37.37c.13.13.25.25.37.38.12.12.24.24.36.37.22.22.44.44.65.66.26.27.52.53.79.79q.32,0,.58-.25c.1-.11.2-.23.29-.34.37-.41.65-.73.7-1.3l-.24-.24.24.08c.05-.21.11-.42.16-.63-.26-.13-.31-.15-.48-.24,0-.02,0-.05,0-.07q.28-.34.64-.38c.13-.01.26-.02.39-.03.14-.01.28-.03.42-.04.3-.02.59-.05.89-.07.14-.01.28-.02.42-.04.24-.02.47-.04.71-.07,1.07-.53,1.69-1.44,2.29-2.44.27-.46.55-.91.87-1.34.98-1.01,2.04-1.52,3.44-1.62,3.56-.03,7.19,1.43,9.79,3.88,2.18,2.33,2.74,5.35,2.73,8.43,0,.36,0,.71,0,1.07,0,.24,0,.47,0,.71q0,.17,0,.34c0,.53,0,1.04-.11,1.57-.55,2.3-2.35,3.8-4.28,4.99-.36.21-.68.42-1.02.66q-.14.36-.16.63c.39.33.77.62,1.22.88.16.08.31.16.46.24.17.09.35.18.52.27,1.6.83,3.15,1.68,4.58,2.8q.24.2.48.39c.78.6,1.53,1.2,2.23,1.9.41.42.83.82,1.28,1.2.77.64,1.27,1.35,1.7,2.25.37.78.7,1.55,1.25,2.22,3.03-4.08,5.13-9.07,5.09-14.21,0-.35,0-.7-.01-1.05,0-.55,0-1.1-.01-1.65-.25-5.85-3.49-11.67-7.65-15.65q-.13-.12-.26-.25c-3.25-3.08-6.86-5.67-11.05-7.31-.52-.19-1.03-.38-1.53-.61q-1.96-.89-6.6-1.87c-.17-.03-.33-.07-.5-.1-2.54-.53-5.03-.71-7.62-.71-.5,0-1,0-1.51,0ZM84.31,79.83c-.48-.31-.78-.45-1.36-.34-.51.17-.93.31-1.47.35-.27,0-.27,0-.53,0-.33,0-.66-.01-1-.03-.42-.14-.83-.23-1.26-.32-.11,1.01-.29,2-.48,3-.06.32-.12.64-.18.96-.38,2.03-.86,3.98-1.68,5.89-.14.32-.28.65-.43.97-.07.16-.14.32-.21.48-.26.6-.44,1.14-.5,1.79.63.63,1.3.67,2.14.68q.21,0,.41,0c.46,0,.92,0,1.39.01.33,0,.67,0,1,0,.88,0,1.76.02,2.63.02.9,0,1.8.01,2.69.02,3.25.03,6.51.05,9.76.05-.16-.16-.31-.32-.47-.47-1.65-1.3-3.55-3.09-4.42-5.05-.07-.55-.04-.86.2-1.36.4-.6.75-1.09.9-1.79-.51-.34-1.02-.68-1.53-1.02-.22-.14-.43-.29-.65-.43-1.02-.68-2.05-1.36-3.06-2.06-.15-.11-.3-.21-.45-.31-.26-.19-.53-.37-.79-.56-.23-.16-.46-.33-.69-.49Z"/>
</svg>