<?xml version="1.0" encoding="UTF-8"?>
<svg id="Layer_1" xmlns="http://www.w3.org/2000/svg" xmlns:xlink="http://www.w3.org/1999/xlink" version="1.1" viewBox="0 0 187 187">
  <!-- Generator: Adobe Illustrator 29.6.1, SVG Export Plug-In . SVG Version: 2.1.1 Build 9)  -->
  <defs>
    <style>
      .st0 {
        fill: none;
      }

      .st1 {
        opacity: .5;
      }

      .st2 {
        clip-path: url(#clippath);
      }
    </style>
    <clipPath id="clippath">
      <rect class="st0" x="54" y="57" width="79.83" height="72.32"/>
    </clipPath>
  </defs>
  <g class="st2">
    <g class="st1">
      <path d="M55.41,57c-.2,0-.38.06-.51.16-1.57,1.26-.6,2.39-.6,2.39,0,0,2.58,2.58,2.88,4.47.3,1.89.4,4.27,3.88,5.76,3.48,1.49,3.18,3.28,3.18,3.28,0,0-.79,2.19,3.48,2.29,2.28-.01,4.57-.02,6.85-.02.86,1.59,3.2,2.39,1.46,2.39-1.89,0-2.25,1.66-2.25,1.66h-7.29s-.36-.06-.36-.42-.67-.36-.67-.36c0,0-1.17-.09-1.17.5v6.36s-.18,1.35,1.35,1.35h10.24v6.04s-1.67.13-2.52.67c-.86.54-.9.77-.5,1.58s1.89,3.65,1.89,5.45v26.47s-.14,2.32,2.82,2.32c3.4,0,3.27-2.14,3.27-2.14v-40.31h26.19v40.31s-.14,2.14,3.27,2.14c2.95,0,2.82-2.32,2.82-2.32v-26.47c0-1.8,1.49-4.64,1.89-5.45.4-.81.36-1.04-.5-1.58-.86-.54-2.53-.67-2.53-.67v-6.04h10.24c1.53,0,1.35-1.35,1.35-1.35v-6.36c0-.59-1.17-.5-1.17-.5,0,0-.68,0-.68.36s-.36.42-.36.42h-7.29s-.35-1.66-2.25-1.66c-1.71,0,.55-.77,1.43-2.32,2.29,0,4.59-.02,6.89-.04,4.27-.1,3.48-2.29,3.48-2.29,0,0-.29-1.79,3.18-3.28,3.48-1.49,3.57-3.87,3.87-5.76.3-1.89,2.88-4.47,2.88-4.47,0,0,.97-1.12-.6-2.39-.69-.56-2.78.5-2.78.5-14.75,8.3-60.08,8.21-72.48,0,0,0-1.38-.69-2.27-.66ZM82.96,75.32c2.46,0,4.92.01,7.38.02v4.73h-5.88s-1.06-2.37-2.95-2.37c-1.73,0,.6-.79,1.46-2.38ZM97.5,75.37c2.47,0,4.94.01,7.41.02.89,1.55,3.14,2.32,1.43,2.32-1.89,0-2.96,2.37-2.96,2.37h-5.88v-4.7Z"/>
    </g>
  </g>
</svg>