<?xml version="1.0" encoding="UTF-8"?>
<svg id="Layer_1" xmlns="http://www.w3.org/2000/svg" xmlns:xlink="http://www.w3.org/1999/xlink" version="1.1" viewBox="0 0 187 187">
  <!-- Generator: Adobe Illustrator 29.6.1, SVG Export Plug-In . SVG Version: 2.1.1 Build 9)  -->
  <defs>
    <style>
      .st0 {
        fill: none;
      }

      .st1 {
        opacity: .5;
      }

      .st2 {
        clip-path: url(#clippath);
      }
    </style>
    <clipPath id="clippath">
      <rect class="st0" x="52" y="42.05" width="83" height="102.45"/>
    </clipPath>
  </defs>
  <g class="st2">
    <g class="st1">
      <path d="M83.47,126.9c4.94-3.01,10.67-4.37,19.29-9.98,7.23-4.7,13.22-8.03,20.6-21.44,11.26-20.45-6.31-33.88-6.31-33.88,0,0,18.47,6.49,17.93,24.69-.54,18.2-8.76,26.29-12.7,30.63-4.16,4.58-6.59,12.4-6.13,12.71l-10.99-9.06c-7.23,4.22-14.53,6.85-21.7,11.19,0,0,1.9,4.17-2.11,5.64-2.51.92-3.82.36-4.5-1.06-.77-1.63-.24-5.26,6.61-9.44Z"/>
      <path d="M103.53,126.9c-4.94-3.01-10.67-4.37-19.29-9.98-7.23-4.7-13.22-8.03-20.6-21.44-11.26-20.45,6.31-33.88,6.31-33.88,0,0-18.47,6.49-17.93,24.69.54,18.2,8.76,26.29,12.7,30.63,4.16,4.58,6.59,12.4,6.13,12.71l10.99-9.06c7.23,4.22,14.53,6.85,21.7,11.19,0,0-1.9,4.17,2.11,5.64,2.51.92,3.82.36,4.5-1.06.77-1.63.24-5.26-6.62-9.44Z"/>
      <path d="M93.5,54.15c-14.35,0-26.01,11.65-26.01,26.01s11.65,26.01,26.01,26.01,26.01-11.65,26.01-26.01-11.65-26.01-26.01-26.01ZM93.5,59.13c11.61,0,21.03,9.42,21.03,21.03s-9.42,21.03-21.03,21.03-21.03-9.42-21.03-21.03,9.42-21.03,21.03-21.03Z"/>
      <path d="M90.33,113.53c-2.77-2.03-6.22-3.82-9.89-5.6,9.99-17.25,9.43-35.56.34-54.24,5.11-2.97,9.35-6.78,12.7-11.43l.08.11c3.34,4.6,7.55,8.37,12.62,11.32-9.09,18.68-9.66,37,.34,54.24-3.66,1.79-7.12,3.57-9.89,5.6v21.4c1.41.95,2.34,2.51,2.34,4.29,0,2.89-2.46,5.23-5.48,5.23s-5.48-2.35-5.48-5.23c0-1.77.93-3.34,2.34-4.29v-21.4Z"/>
    </g>
  </g>
</svg>