<?xml version="1.0" encoding="UTF-8"?>
<svg id="Layer_1" xmlns="http://www.w3.org/2000/svg" xmlns:xlink="http://www.w3.org/1999/xlink" version="1.1" viewBox="0 0 187 187">
  <!-- Generator: Adobe Illustrator 29.6.1, SVG Export Plug-In . SVG Version: 2.1.1 Build 9)  -->
  <defs>
    <style>
      .st0 {
        fill: none;
      }

      .st1 {
        opacity: .5;
      }

      .st2 {
        clip-path: url(#clippath);
      }
    </style>
    <clipPath id="clippath">
      <rect class="st0" x="23" y="60" width="142" height="68"/>
    </clipPath>
  </defs>
  <g class="st2">
    <g class="st1">
      <path d="M79.17,75.04c-.21-.08-.48-.16-.62.05-.13.19.08.41.38.57-.19-.03-.29-.08-.38.08-.13.25.32.6.56.71-.19-.11-.4-.14-.46.05-.08.3,1.05.98,1.74,1.39.32.3,1.29.65,1.8.76.13.03.7.03,1.21.19.05-.38.11-.71.16-1.14.03-.27.05-.54.08-.79-.24-.27-.48-.54-.64-.82,0-.03-.03-.03-.03-.05l-.05-.05-.03-.03-.16-.16c-.05-.05-.46-.44-.83-.52-.35-.08-.67,0-.67,0-.24-.08-.86-.38-1.26-.57,0,0-.67-.3-.83-.14-.13.14-.16.3.03.46ZM94.96,117.48h.11c.29-.03.54-.22.78-.52,0-.03.03-.03.03-.05l-.67-8.04c-.32.06-.64.06-.96.08v1.63c0,2.53.03,5.2.03,6.51.19.22.43.35.7.38ZM92.49,76.4c.13.05.29.08.4.08s.19-.03.21-.11c.16-.27,2.76-4.47,4.13-5.39-.19-.38-.32-.82-.51-1.39-.03-.08-.05-.14-.05-.22-.11.54-.48,1.04-1.45,1.14-.32-.03-.99-.63-1.58-.87-.05.19-.13.38-.13.57.08.03.16.08.24.11,0,.08.03.16.03.25h-.27c-.72,2.86-1.45,4.71-1.53,5.26-.03.19-.03.27.03.3.13.14.24.16.48.27ZM94.37,121.54c.13.14.29.22.46.27.19,0,.38,0,.56-.03.24-.08.46-.24.64-.46l-.27-3.27c-.19.11-.38.16-.59.19-.08,0-.16.03-.21.03h-.03c-.19,0-.38-.06-.56-.11v3.38ZM81.1,86.48h.54s.08,0,.11-.03c.03,0,.08,0,.11-.03.03,0,.08-.03.11-.03s.08-.03.11-.03.08-.03.11-.03.08-.03.11-.03.08-.03.11-.03.05-.03.11-.03c.03-.03.05-.03.11-.05.03-.03.05-.03.11-.05.03-.03.05-.03.11-.05.03-.03.05-.03.08-.05.03-.03.05-.03.08-.05.03-.03.05-.03.08-.05s.05-.05.08-.05c.03-.03.05-.05.08-.05l.08-.08.08-.08.08-.08.08-.08.08-.08.08-.08.08-.08s.05-.05.05-.08c.03-.03.05-.08.08-.11,0-.03.03-.03.03-.05,0,0-.43-.05-.72-.05s-.51.05-.56.08l-.05.05s-.05.05-.11.08c-.03.03-.05.03-.08.05-.03.03-.08.03-.11.05-.03.03-.05.03-.08.05-.03.03-.08.03-.11.05-.03,0-.05.03-.08.03-.03.03-.08.03-.11.03s-.05.03-.08.03-.08.03-.11.03-.05.03-.11.03c-.03,0-.08,0-.11.03h-.4c-1.26-.05-2.22-1.12-2.17-2.4,0-.08,0-.16.03-.25v-.05c0-.05.03-.11.03-.16,0-.03,0-.05.03-.05.03-.05.03-.11.05-.16,0-.03.03-.05.03-.05.03-.05.03-.08.05-.14,0-.03.03-.05.03-.08.03-.05.05-.08.05-.14,0-.03.03-.05.05-.05.03-.03.05-.08.08-.11.03-.03.03-.05.05-.05.03-.03.05-.08.08-.11l.05-.05.11-.11s.05-.03.05-.05c.03-.03.08-.05.11-.08.03-.03.05-.03.05-.05.03-.03.08-.05.11-.08.03-.03.05-.03.08-.05.03-.03.08-.05.11-.05s.05-.03.08-.03c.05-.03.08-.03.13-.05.03,0,.05-.03.08-.03.05-.03.08-.03.13-.05.03,0,.05-.03.08-.03.05,0,.08-.03.13-.03h.08c.05,0,.08,0,.13-.03h.24c.72.03,1.34.38,1.74.93.35.03.83.11,1.21.27-.43-1.23-1.55-2.12-2.89-2.18h-.38c-.05,0-.13,0-.19.03-.05,0-.08,0-.13.03-.05,0-.13.03-.19.03s-.08.03-.13.03c-.05.03-.11.03-.19.05-.03.03-.08.03-.11.05l-.16.08s-.08.03-.11.05l-.16.08s-.08.05-.11.05c-.05.03-.11.05-.13.11-.03.03-.08.05-.11.08-.05.03-.08.08-.13.11-.03.03-.05.05-.11.08l-.13.14-.08.08c-.03.05-.08.08-.11.14-.03.03-.05.05-.08.11-.03.05-.05.11-.11.16-.03.03-.05.08-.08.11l-.08.16s-.05.08-.05.11l-.08.16s-.03.08-.05.11c-.03.05-.03.14-.05.19,0,.03-.03.08-.03.11-.03.08-.03.14-.05.22,0,.03,0,.05-.03.11-.03.11-.03.22-.03.33,0,1.83,1.37,3.35,3.14,3.41ZM104.9,119.6c.11,0,.24-.03.35-.05.21-.08.4-.25.56-.44l-1.04-3.4c-.19.19-.4.35-.64.46h-.05c-.19.06-.38.11-.56.11h-.03l1.02,3.21c.08.06.24.11.4.11ZM102.27,116.88c-.11.03-.21.03-.32.03h-.05c-.11,0-.24-.03-.35-.06l.83,3.13c.24.19.51.33.75.33.05,0,.11,0,.16-.03.29-.05.54-.24.72-.52l-1.02-3.27c-.19.19-.46.33-.72.38ZM78.58,94.46h6.4c-.48,1.17-.78,2.48-.78,3.84,0,5.42,4.34,9.83,9.67,9.83s9.67-4.41,9.67-9.83c0-1.36-.27-2.67-.78-3.84h5.9c11.52,0,13.45-6.21,13.45-6.21h-22.99c-.11,0-.19,0-.29.03.19-2.4.38-4.77.48-6.86-.46,1.99-1.05,4-1.39,5.69-.83,4.03-3.89,13.29-3.89,13.29-.21.76-.46,1.17-.88,1.2-.54-.03-.96-.71-1.47-1.72-.48-1.04-1.02-2.42-1.55-3.98-.32-.9-.64-1.85-.94-2.83l-.08.74c-.32,3.54-.54,6.7-.78,8.69,1.21,1.77,3.24,2.94,5.55,2.94s4.23-1.12,5.47-2.81c-.03-.19-.05-.41-.08-.6,0-.03,0-.08-.03-.11-.05-.46-.13-.9-.19-1.34,0-.05,0-.08-.03-.14-.05-.44-.11-.87-.13-1.28v-.11c-.05-.44-.08-.84-.11-1.25v-.03c0-.08,0-.16-.03-.25v-.05c-.16-1.99-.19-3.81-.13-5.53,1.5,1.17,2.57,2.86,2.92,4.82,0,.03,0,.05.03.05.03.14.05.3.05.44v.03c.03.14.03.25.03.38v.11c0,.16.03.33.03.49v.52c0,.08,0,.16-.03.25,0,.05,0,.11-.03.14,0,.08-.03.16-.03.22s-.03.11-.03.14c-.43,3.9-3.73,6.92-7.69,6.92s-7.4-3.16-7.72-7.19c-.05-.33-.08-.68-.08-1.04,0-2.42,1.07-4.6,2.79-6.05-.46-1.42-.94-2.81-1.37-3.98h-22.38c0,.05,1.93,6.27,13.45,6.27ZM92.22,80.59s2.55-8.01,5.39-8.01c.11,0,.21,0,.32.03.13.03.64.27.75.3l.05-.33c-.29-.22-1.05-.71-1.23-1.14-1.23.87-3.4,4.2-4.13,5.42-.05.11-.21.27-.54.27-.19,0-.38-.05-.56-.14-.27.68-.54,2.48-.75,3.27-1.61-.63-6.46-3.08-7.48-3.49-.08.87-.19,1.91-.35,2.53,0,.82,2.41,2.4,2.49,3.38l6.03-2.1ZM102.11,62.18l-.62.33-.24-.68-.72.35-.4-.68-.67.35-.32-.6-.62.3-.32-.54-.62.3-.35-.65-.62.3-.32-.6-.67.33-.4-.68-.7,3.62,6,1.74,1.58-3.19ZM100.42,65.61l-5.92-1.74-.16.52,5.9,1.77.19-.54ZM93.99,66.37s1.61.46,2.6,1.66h-.03s.03.11.08.3c.08.25.19.71.35,1.2.16.54.59,1.47.59,1.44.11.35.43.71.43.71.32.33.72.46,1.31.65h.03s.05,0,.08.03h.24s.03,0,.05-.03t.05-.03s.03-.03.05-.03.03-.03.05-.03.03-.03.05-.03.03-.03.05-.03.03-.03.05-.03.03-.03.05-.03.03-.03.05-.05l.05-.05.05-.05.05-.05.05-.05.05-.05.05-.05.05-.05.05-.05s.03-.05.05-.05c.03-.03.03-.05.05-.05.03-.03.03-.05.05-.08.03-.03.03-.05.05-.05.03-.05.05-.08.08-.14.03-.03.03-.05.05-.08.03-.03.03-.05.05-.08,0-.03.03-.05.03-.08s.03-.05.03-.08.03-.05.03-.08.03-.05.03-.08.03-.05.03-.08.03-.05.03-.08.03-.05.03-.08.03-.05.03-.08.03-.05.03-.08.03-.05.03-.08.03-.05.03-.08.03-.05.03-.08.03-.05.03-.08,0-.05.03-.08c0-.03,0-.05.03-.08v-.68c-.03-.22-.08-.38-.21-.54-.78-1.01-.7-1.36-1.15-2.21-.03-.05-.05-.08-.08-.14l-5.63-1.55h-.08c-.13.11-.56-.03-.64,1.06,0,.14.08.27.21.38.08.11.13.14.19.16ZM143.19,93.32c.64-.05,1.42-.33,1.71-1.01.27-.6-.13-.98-.67-1.2l-21.92-1.44c-.11.16-.22.33-.35.52l21.22,3.13ZM97.5,87.05c.21-1.01.48-2.12.78-3.27.94-3.7,2.01-7.93.88-9.81-.29-.49-.75-.79-1.37-.93-.08-.03-.16-.03-.24-.03-2.06,0-4.31,5.58-4.98,7.74-.03.14-.13.22-.27.27l-6.24,2.18c-.05.16-.21,1.44,3.14,7.22,1.15,1.99,1.9,3.05,2.47,3.84.75,1.06,1.21,1.72,1.85,3.46.19.49.29,1.01.38,1.5,1.05-3,2.89-8.69,3.62-12.18ZM85.82,83.18l-.08-.08c-.43-.08-.99-.49-1.39-.68-.32-.16-1.37-.41-1.77-.27-.27.11-.59.16-.64.82-.03.49.05.87.05,1.17,0,.11.35.52.51.68,1.42-.46,2.97.76,3.78.6-.35-.54-.8-2.1-.46-2.23ZM88.9,90.62c-.24-.38-.43-.76-.64-1.12,1.21,3.49,2.55,7.95,3.67,10.3.48,1.01.96,1.61,1.21,1.55.13.03.35-.19.54-.76-.03-.68-.16-1.8-.51-2.75-1.07-3-1.58-2.62-4.26-7.22ZM93.21,69.29c.46.03.96.35,1.42.65.21.14.48.33.62.35.48-.05.8-.25.99-.54.27-.44.21-1.01.13-1.33-.03-.11-.05-.19-.05-.19,0-.03-.03-.05-.03-.05-.59-.84-1.37-1.06-1.9-1.23-.16-.05-.32-.11-.46-.16v.57s0,.25-.16.6c-.16.33-.78,1.2-.83,1.31l.21.05s.03-.03.05-.03ZM94.5,67.57l.03.03.86.52-.11.19-.46-.33s-.21.27-.32.19c-.05-.05-.32-.35,0-.6ZM97.31,121.59h.05c.24-.03.43-.14.59-.33l-.51-3.32c-.11.05-.24.08-.4.11h-.16c-.21,0-.43-.06-.64-.16l.27,3.3c.21.27.51.41.8.41ZM90.54,121.65l.8.08c.24-.11.43-.35.56-.6l.16-3.02c-.16.08-.38.14-.62.16h-.05c-.11,0-.24-.03-.35-.06-.13-.03-.24-.08-.35-.14l-.16,1.31-.24,2.07c.08.05.16.14.24.19ZM92.6,108.87c-.32-.03-.62-.08-.91-.16l-.94,8.28c.13.19.29.35.54.41.05,0,.13.03.19.03.35-.03.56-.27.72-.55l.4-8.01ZM93.13,121.81c.32-.05.59-.24.78-.49v-3.24c-.24.14-.51.19-.78.19h-.03c-.19,0-.35-.06-.54-.11l-.16,2.97-.03.46c.11.08.24.16.38.19.11.03.24.03.38.03ZM90.43,116.69l.91-8.06c-.38-.08-.72-.22-1.07-.33l-1.42,8.15c.13.3.29.57.64.65.05,0,.11.03.13.03.35-.03.62-.16.8-.44ZM88.66,121.4c.13.03.27.06.38.06.35-.03.64-.22.86-.52l.38-3.13c-.19.08-.38.11-.56.14h-.05c-.11,0-.21,0-.29-.03-.27-.06-.51-.19-.67-.33l-.56,3.19c.11.27.24.52.54.63ZM34.98,98.14l9.67-2.12c-.43-.22-.7-.54-.88-.84l-9.89,1.66c-.35.33-.24.71-.08.9.16.14.54.38,1.18.41ZM86.89,120.99c.05,0,.11.03.16.03.19,0,.38-.05.54-.16l.59-3.32c-.08,0-.13.03-.21.03-.11,0-.19,0-.29-.03h-.05c-.29-.08-.54-.24-.7-.44-.03.03-.08.03-.13.03l-.4,1.88-.27,1.25s.03.05.05.11c.21.3.4.55.72.63ZM93.88,110.59v-1.63c-.32,0-.64-.03-.94-.05l-.46,8.23c.16.19.38.3.59.3.35,0,.62-.19.8-.44.03-1.33,0-3.92,0-6.4ZM42.27,92.63c-.08-.16-.11-.33-.13-.49l-10.48.93c-.29.27-.38.63-.27.84.13.35.56.74,1.23.79l10.37-1.17c-.32-.22-.56-.52-.72-.9ZM33.75,96.53l9.89-1.66s-.03-.05-.03-.08c-.11-.3-.11-.6,0-.9-.08-.03-.16-.08-.24-.11l-10.69,1.23c-.35.33-.38.79-.21,1.01.27.33.67.49,1.29.52ZM96.7,108.54l1.26,8.15c.16.16.38.3.62.3h.05c.35,0,.59-.19.78-.44l-1.66-8.33c-.38.14-.7.24-1.05.33ZM87.86,116.72h.13c.19,0,.35-.08.54-.22l1.45-8.34c-.32-.14-.64-.27-.94-.44l-1.85,8.28s.03.08.05.11c.16.3.32.52.62.6ZM145.58,89.64c.05-.3-.11-.6-.35-1.39h-22.27l-.08.25c-.03.05-.13.41-.4.9l21.57,1.42c.7-.16,1.42-.52,1.53-1.17ZM96.91,117.23h.05c.27-.03.48-.19.67-.46l-1.26-8.14c-.27.08-.56.14-.83.16l.67,8.09c.19.22.43.35.7.35ZM100.32,116.58h.11c.3-.06.51-.27.64-.52l-2.2-8.42c-.29.16-.56.3-.86.44l1.63,8.17c.19.19.4.3.67.33ZM101.25,120.86h.13c.27-.06.48-.22.64-.41l-.56-2.1-.32-1.2c-.19.11-.38.19-.59.25-.08,0-.16.03-.21.03h-.03c-.13,0-.27-.03-.43-.08t-.05.03l.62,3.1c.22.22.48.38.8.38ZM98.39,120.86c.21.27.48.46.83.46h.05c.32,0,.59-.16.78-.35l-.64-3.22-.03-.14c-.24.14-.48.19-.75.19h-.11c-.16,0-.38-.03-.59-.14h-.05l.19,1.31.32,1.88ZM85.55,115.65c.11.25.19.41.32.52.16.06.35.14.54.19.16-.03.27-.08.38-.16l1.93-8.63c-.35-.19-.67-.41-.99-.65l-2.17,8.75ZM84.72,120.5c.16.06.29.08.46.14.16,0,.29-.06.4-.14l.7-3.3c-.19,0-.35-.03-.51-.11-.32-.14-.54-.35-.7-.57-.03,0-.05,0-.11.03l-.78,3.21c.03.05.03.08.05.11.16.25.27.46.48.63ZM83.27,119.9c.16,0,.29-.03.43-.08l.78-3.27c-.16-.03-.32-.05-.48-.14h-.05c-.32-.16-.51-.38-.64-.6l-1.02,3.32s.03.06.03.08c.13.27.21.49.51.63.16.03.29.05.46.05ZM99.19,107.48l2.17,8.36c.19.16.4.24.59.24.05,0,.11,0,.13-.03.27-.05.51-.24.67-.54l-2.71-8.66c-.24.24-.56.44-.86.63ZM108.33,103.07c-.43,0-.89-.14-1.29-.38-.19.14-.43.22-.75.27l.38,1.39c.24.22.56.41.94.46l.11-.03.03.06c.08,0,.16.03.24.03.35,0,.83-.11.94-.44l-.4-1.36h-.19ZM105.38,95.28l1.63,6.4c.32.27.83.54,1.29.54s.75-.14.83-.41l-2.44-6.57-1.31.03ZM110.77,95.22l3.56,6.43c.54.38,1.23.65,1.82.65.4,0,.8-.46.59-.82l-.05-.05s-.03-.03-.03-.06c0,0,.03,0,.03.03l-4.72-6.32c-.4.05-.8.11-1.21.14ZM115.06,94.51l8.12,7.44c.46.25.94.38,1.42.38.11,0,.24,0,.35-.03.43-.08.62-.35.56-.63l-9.62-7.41c-.27.08-.54.16-.83.25ZM108.86,95.28l3,6.46c.51.38,1.18.54,1.66.54.24,0,.56-.08.64-.27l-3.75-6.78c-.48.03-1.02.05-1.55.05ZM113.82,94.81l6.38,7.19c.46.27.99.46,1.61.46h.05c.46,0,.78-.27.72-.6l-7.88-7.27c-.29.08-.56.14-.88.22ZM110.61,104.84c.51,0,.94-.19,1.02-.49l-.67-1.36h-.16c-.46,0-.88-.11-1.29-.3-.16.14-.4.25-.7.3l.4,1.36c.43.36,1.07.49,1.39.49ZM113.77,103.1c-.08,0-.16.03-.24.03-.51,0-1.12-.14-1.66-.41-.19.14-.4.19-.62.25l.72,1.5c.43.25,1.02.38,1.31.38.46,0,1.29-.24.96-.74l.03.03-.51-1.04ZM76.57,104.84c.35,0,1.02-.14,1.45-.49l.48-1.55s-.05-.06-.11-.08c-.4.19-.86.3-1.29.3-.24,0-.54-.06-.8-.16l-.75,1.5c.08.3.51.49,1.02.49ZM107.01,95.28l2.39,6.43c.35.27.86.46,1.37.46.29,0,.67-.11.78-.35l-3.03-6.57-1.5.03ZM116.23,94.16l9.86,7.6c.54.24,1.15.41,1.8.41h.16c.48-.03.62-.33.51-.63l-11.66-7.63c-.24.08-.46.16-.67.25ZM112.32,95.06l5.15,6.86c.4.22.88.41,1.37.41.62,0,.83-.33.78-.63l-6.11-6.84c-.38.08-.78.14-1.18.19ZM120.5,91.76l19.35,5.83c.19.03.38.03.54.03.59,0,1.07-.16,1.45-.65.38-.52-.05-1.06-.59-1.36l-20.15-4.39c-.19.19-.38.38-.59.54ZM105.35,104.97c.35,0,.86-.14,1.05-.44l-.4-1.55c-.62,0-1.69-.25-2.41-.65-.05.14-.11.27-.19.41l.43,1.72c.43.33,1.15.52,1.53.52ZM102.14,104.84c.21.05.4.08.56.08.27,0,.72-.11.86-.38l-.35-1.39c-.32.6-.67,1.17-1.07,1.69ZM117.2,93.78l12.14,7.93c.35.14.7.19,1.02.19.21,0,.43-.03.62-.11.32-.14.48-.38.38-.65l-13.69-7.57c-.13.08-.27.16-.46.22ZM145.63,91.22c.11.19.16.38.19.6l9.62.93c.88-.08,1.21-.57,1.31-.84.11-.27.08-.74-.35-1.04l-10.21-.52c-.16.3-.38.52-.64.71,0,.05.03.11.08.16ZM146.38,89.77c-.03.11-.05.19-.08.3l9.89.49c.78-.25.86-.98.91-1.28,0-.57-.32-.87-.62-1.01h-10.42c.03.05.03.11.05.14.19.54.32.93.27,1.36ZM143.54,94.51c.11-.33-.13-.65-.54-.93l-21.25-3.13c-.13.16-.27.33-.43.49l20.79,4.52c.62-.03,1.18-.27,1.42-.95ZM118.03,93.4l14.04,7.79c.4.11.8.19,1.12.19.11,0,.21,0,.29-.03.75-.22.78-.6.48-.95l-15.3-7.36c-.21.14-.43.25-.64.35ZM118.97,92.88l16.11,7.74c.13.03.29.03.43.03.16,0,.32-.03.48-.06.83-.16,1.45-.52,1.26-.93l-17.82-7.08c-.13.11-.29.22-.46.3ZM119.72,92.39l17.58,7c1.02-.05,1.69-.14,1.8-.19,1.21-.57.75-1.12.05-1.5l-18.95-5.69c-.13.14-.29.25-.48.38ZM122.45,104.84c.43,0,1.05-.14.96-.49l-1.26-1.12c-.08,0-.16.03-.24.03h-.05c-.64,0-1.29-.16-1.88-.49-.11.11-.24.16-.4.25l1.1,1.42c.59.3,1.39.41,1.77.41ZM139.9,104.32c.27,0,.54-.03.75-.08.64-.24.7-.6.24-.98l-4.13-2.02c-.19.05-.38.11-.59.16-.21.06-.43.06-.64.06-.24,0-.48-.03-.72-.08-.08.14-.19.27-.38.41l3.83,2.26c.51.19,1.1.27,1.63.27ZM103.93,95.28c.29.98.43,1.99.43,3.02,0,.54-.11,1.23-.21,1.85l.4,1.72c.48.16,1.04.3,1.42.3.43,0,.67-.14.75-.35l-1.66-6.51-1.12-.03ZM130.41,104.43l-2.09-1.47c-.08.03-.16.03-.27.03h-.19c-.7,0-1.31-.16-1.88-.38-.19.22-.48.38-.83.49l1.53,1.04c.94.6,1.85.74,2.84.74.43,0,.97-.14.89-.44ZM136.36,104.73h.21c.78-.06,1.07-.44.78-.82l-3.27-1.94c-.13.06-.27.11-.43.16h-.05c-.13.03-.29.03-.43.03-.38,0-.8-.08-1.21-.19-.11.16-.27.3-.43.41l3.03,1.99c.56.22,1.21.35,1.8.35ZM132.93,105h.38c.46-.03.8-.3.64-.63l-2.71-1.77c-.27.08-.54.14-.86.14-.4,0-.8-.08-1.26-.22-.11.14-.27.24-.43.35l2.68,1.91c.43.11.94.22,1.56.22ZM143.03,103.67c.32,0,.59-.05.8-.14.38-.24.24-.74-.35-1.09l-5.12-2.29c-.11,0-.21.03-.32.03-.11.38-.43.71-.94.95l5.04,2.45c.32.03.62.08.88.08ZM154.71,96.01c.16-.22.13-.68-.24-1.04l-9.7-1.33c-.16.11-.32.19-.48.25.08.25.11.49.05.74l9.19,1.91c.56-.03.94-.22,1.18-.52ZM153.38,97.7c.19-.19.27-.6-.13-.93l-8.98-1.85c-.19.41-.48.84-1.05,1.12l8.58,2.23c-.11-.08-.24-.16-.43-.22.29.08.56.11.78.11.64,0,1.07-.27,1.23-.46ZM149.11,100.75c.19-.19.32-.41.24-.65l-7.21-2.32c-.38.38-.89.6-1.5.65v.03c0,.14-.03.25-.05.38l6.27,2.45c.16.03.35.03.51.03.72-.03,1.34-.19,1.74-.57ZM151.74,99.36c.19-.14.35-.44.27-.71l-9.3-2.42c.08.41,0,.84-.24,1.2-.03.03-.05.08-.08.11l6.65,2.15c.38.08.72.11,1.04.11.8,0,1.39-.25,1.66-.44ZM145.31,102.69c.59,0,1.12-.11,1.39-.35.29-.27.27-.54,0-.82l-6.19-2.42c-.19.33-.54.6-1.04.84-.08.03-.16.08-.51.14l5.84,2.61h.51ZM109.94,107.59c.3,0,.67-.11.89-.33l-.48-1.63c-.32-.03-.75-.14-1.15-.33-.45.33-1.02.35-1.21.35h-.03l.32,1.14c.48.49,1.31.79,1.66.79ZM107.15,107.59c.32,0,.67-.08.83-.33l-.43-1.63c-.29-.06-.59-.14-.83-.27-.4.3-.94.41-1.34.41-.35,0-.96-.11-1.5-.38-.05.03-.11.05-.16.11,1.15.52,2.36,1.31,3.43,2.1-.03,0-.05-.03,0,0ZM113.15,107.51c.38,0,.75-.16.78-.54l-.67-1.36c-.32,0-.88-.11-1.39-.33-.29.22-.7.33-1.15.35l.32,1.06c.43.46,1.31.82,2.12.82ZM103.85,101.54c.11.05.22.14.35.19l-.22-.87c-.08.43-.13.74-.13.68ZM125.99,104.87c.38,0,.75-.08.83-.27l-2.06-1.42h-.16c-.51,0-1.02-.14-1.53-.35-.16.16-.35.27-.56.35l1.61,1.39c.7.25,1.5.3,1.88.3ZM155.81,93.89c.11-.22.03-.57-.29-.84l-9.75-.93c-.03.16-.05.35-.13.52-.13.3-.32.54-.54.74l9.54,1.31c.64-.08,1.07-.44,1.18-.79ZM119.21,104.76c.46,0,.94-.16.96-.46l-.94-1.2c-.13.03-.27.06-.43.06-.62,0-1.21-.22-1.66-.46-.19.19-.46.33-.72.38l.94,1.25c.51.33,1.47.44,1.85.44ZM117.09,104.46l-1.02-1.36c-.46,0-.96-.14-1.45-.35-.16.14-.35.22-.54.27l.78,1.47c.32.16.7.27,1.18.27.46,0,.91-.08,1.05-.3ZM116.29,107.59c.35,0,.72-.16.83-.44l-.86-1.58h-.27c-.59,0-1.04-.14-1.42-.3-.29.19-.67.3-.91.33l.64,1.28c.54.38,1.26.71,1.98.71ZM34.37,98.87c-.62-.14-.96-.44-1.13-.6-.11-.11-.19-.25-.27-.38l-4.34.87c-.24.3-.16.74.16,1.01.29.27.88.46,1.53.49l4.1-1.03c-.03-.11-.05-.22-.05-.35ZM85.79,121.43c-.19.08-.4.14-.62.14h-.05c-.21,0-.43-.06-.64-.14-.21-.08-.38-.19-.51-.33l-.91,3.76c.11.79.51,1.5.75,1.58.59.27,1.21-.87,1.34-1.85,0,.05-.03.14-.03.19l.67-3.35ZM87.67,121.84c-.21.08-.4.11-.62.11-.11,0-.21,0-.35-.03h-.05c-.24-.06-.43-.16-.59-.3l-.83,4.14c.19.65.56,1.17.8,1.23.27.05.8-.16,1.1-.98l.67-4.03c-.05-.08-.08-.11-.13-.14ZM70.71,106.8l.67-1.23h-.21c-.62,0-1.07-.11-1.39-.33-.43.16-.88.25-1.23.27l-1.05,1.36c-.05.35.32.65,1.02.65.75,0,1.53-.27,2.2-.74ZM89.78,122.22c-.24.11-.48.16-.75.16h-.05c-.11,0-.24,0-.35-.03h-.05c-.21-.06-.4-.14-.56-.25l-.67,4c.13.71.48,1.36.8,1.39.51.11,1.05-.43,1.26-1.53l.38-3.76ZM85.87,107.1c.05,0,.08,0,.13-.03l-.05.16v.03l-2.22,7.22c.03.22.08.44.16.63.11.24.19.44.43.54.11.05.24.08.35.08v-.03l.05.03c.19,0,.35-.08.48-.16l2.22-8.85c-.54-.44-1.05-.93-1.5-1.44-.4.14-.94.35-1.26.44-1.31.63-2.73,1.58-3.89,2.48-1.31,1.44-2.49,3.32-3.22,5.58-.72,2.26-1.72,6.65-5.55,6.35,2.25-2.07-.75-5.29-2.97-3.24-1.74,1.61-1.39,4.58,1.61,5.07,1.21.22,6.14,1.04,8.12-5.72,1.85-6.1,4.88-8.34,7.1-9.13ZM83.7,120.78c-.13.03-.29.05-.43.05-.27,0-.54-.05-.8-.16h-.05c-.21-.11-.38-.22-.51-.35l-.88,2.89c-.21,1.06.21,2.21.51,2.32.43.19.91.05,1.26-.71l.96-3.95s-.03-.06-.05-.08ZM91.07,122.71h-.05c-.13,0-.27-.03-.4-.06h-.05.03c-.21-.05-.38-.14-.54-.22l-.46,4.22c.19.74.56,1.2.83,1.23.43.14.83-.52,1.07-1.33l.32-4.09c-.19.16-.46.25-.75.25ZM95.33,122.76c-.08.03-.16.03-.24.03h-.05c-.27,0-.51-.08-.75-.19l-.16,4.5c.29.65.8.95,1.05.9.35,0,.99-.52,1.21-1.53l-.29-3.95c-.27.11-.51.19-.75.25ZM97.5,122.52h-.21c-.32-.03-.62-.11-.88-.24-.03.03-.05.03-.08.06l.35,4.52c.24.54.64.84.99.82.24-.03.75-.46.94-1.31l-.48-4.06c-.19.11-.38.19-.62.22ZM92.95,122.74h-.03c-.29,0-.56-.08-.8-.22l-.35,4.19c.16.79.59,1.23.94,1.23.67.03,1.05-.74,1.18-1.58l.16-3.92c-.35.19-.72.3-1.1.3ZM49.13,104.87c-.62.16-1.26.25-1.82.25-.35,0-.67-.03-.94-.11h-.05s-.05-.03-.08-.03l-2.09,1.2c-.03.41.59.71,1.39.71.78.05,1.88-.14,2.84-.55l1.47-.95c-.32-.11-.56-.3-.72-.52ZM45.38,104.29c-.46.11-.86.16-1.23.16-.43,0-.83-.08-1.13-.22l-.05-.03-.05-.03s-.03-.03-.05-.05l-1.96,1.01c-.13.35.38.65.91.79.46.14,1.31.16,2.06-.05l1.93-1.12c-.21-.14-.35-.3-.43-.46ZM68,105.55c-.27,0-.83-.03-1.26-.35-.59.27-1.23.38-1.66.41l-1.05,1.31c-.05.41.72.57,1.26.57s1.07-.16,1.58-.41l1.15-1.53h-.03ZM39.51,102.09c-.83-.05-1.5-.3-1.98-.76-.11-.11-.21-.22-.29-.33l-3.56,1.25c-.43.46.11,1.01.78,1.31.29.14,1.07.3,1.85.3l3.27-1.44c0-.08-.05-.19-.05-.33ZM99.32,122.25h-.13c-.21,0-.46-.06-.72-.16-.03.03-.08.06-.11.08l.51,4.39c.21.52.59.84.91.82.59,0,.91-.65,1.02-1.44l-.51-3.92c-.29.14-.62.25-.96.25ZM37.05,100.59c-.83,0-1.58-.24-2.06-.6-.16-.11-.27-.27-.38-.41l-3.89.98c-.16.33,0,.76.35,1.09.35.33,1.05.49,1.69.54l4.29-1.53s0-.06,0-.08ZM42.41,103.48c-.19.03-.35.03-.51.03-.86,0-1.5-.19-1.9-.54l-.16-.16-2.71,1.17c-.43.38.19.87.86,1.06.56.19,1.42.19,2.2.08l2.41-1.25c-.11-.11-.16-.25-.19-.38ZM61.19,105.66c-.54,0-.96-.14-1.26-.35-.59.22-1.15.33-1.66.35l-1.69,1.14c.03.33.67.63,1.31.63.29,0,.94-.06,1.61-.3l1.69-1.47ZM63.44,105.28c-.56.22-1.18.3-1.61.35l-1.53,1.31c0,.38.78.52,1.63.52.43,0,.99-.14,1.53-.38l1.13-1.42c-.32-.03-.8-.11-1.15-.38ZM52.67,105.25c-.62.19-1.26.3-1.85.3h-.27c-.08,0-.13,0-.21-.03l-1.93,1.23c.13.27.62.44,1.13.46.46.03,1.5-.11,2.41-.44l1.5-1.06c-.32-.06-.59-.22-.78-.46ZM56.45,105.36c-.59.25-1.29.44-2.17.44h-.21l-1.55,1.06c.05.3.54.52,1.13.52.29,0,1.1-.08,1.85-.3l2.09-1.42c-.24.03-.75-.03-1.13-.3ZM164.76,88.25h-7.16c.16.27.27.6.27,1.01v.14c-.08.57-.27.98-.54,1.28l6.75.41c.48-.3.8-.82.88-1.44.11-1.01-.21-1.39-.21-1.39ZM152.71,99.34c-.11.27-.27.49-.51.68-.38.3-.96.49-1.61.57l4.34,1.64c.72,0,1.58-.16,1.98-.54.4-.35.54-.82.32-1.17l-4.53-1.17ZM102.33,121.4c-.24.19-.51.3-.8.35-.08,0-.19.03-.27.03h-.03c-.16,0-.35-.03-.56-.08-.05.06-.08.08-.13.11l.56,4.19c.27.49.67.82,1.02.76.51-.08.96-1.09.88-2.02l-.67-3.35ZM144.67,103.75c-.11.16-.24.33-.4.44l-.05.03-.05.03c-.32.14-.7.22-1.13.22-.38,0-.8-.05-1.23-.16,0,.03-.03.03-.03.05l2.71,1.61c.64.11,1.31.11,1.71-.03.64-.14,1.23-.54.78-.98l-2.3-1.2ZM150.8,103.86l-3.21-1.42c-.08.19-.19.35-.35.49-.4.38-1.05.54-1.9.54-.11,0-.21,0-.32-.03l3.16,1.66c.67.06,1.39.06,1.88-.14.7-.19,1.34-.74.75-1.12ZM141.5,104.65c-.16.14-.35.24-.62.35h-.05c-.27.08-.59.11-.94.11-.56,0-1.23-.11-1.82-.25,0,0,0,.03-.03.03l2.84,1.85c.59.14,1.15.19,1.61.14.91,0,1.55-.35,1.37-.85l-2.36-1.39ZM154.29,97.59c-.05.27-.16.52-.35.71-.16.16-.51.46-1.13.6v.08l5.04,1.28c.56-.05,1.07-.25,1.34-.49.32-.27.4-.68.16-.98l-5.07-1.2ZM32.87,97.21c-.4-.14-.75-.35-1.02-.65v-.05l-.03-.03c-.13-.19-.21-.41-.24-.63l-4.66.71c-.38.3-.59.87-.21,1.31.29.33.72.57,1.23.65l4.93-1.01v-.3ZM74.38,103.1c-.27,0-.51-.05-.72-.14l-.78,1.47c.13.27.67.38.99.38s.88-.14,1.31-.38l.86-1.74c-.54.27-1.15.41-1.66.41ZM163.05,91.46h.05l-5.6-.35c.11.38.08.79-.03,1.06-.08.22-.3.71-.91,1.06.03.05.03.08.03.14l6.49.52c.51-.22.91-.57,1.07-.93.27-.65-.27-1.42-1.1-1.5ZM162.49,94.21l-5.81-.46c0,.16-.05.33-.11.49-.16.38-.48.79-.99,1.04.03.05.03.14.03.19l6,.93c.46-.08.91-.27,1.31-.68.35-.54.08-1.2-.43-1.5ZM150.08,100.78c-.08.19-.21.41-.4.57-.48.44-1.13.71-1.93.76l4.02,1.77c.75-.03,1.5-.16,1.79-.3.59-.27,1.1-.74.89-1.17l-4.37-1.63ZM118.62,116.88c-2.22-2.04-5.2,1.17-2.98,3.24-3.83.27-4.82-4.09-5.55-6.35-.75-2.34-1.96-4.28-3.35-5.75-1.23-.93-2.65-1.83-3.91-2.29h-.13c-.16,0-.8-.03-1.21-.11-.35.38-.72.71-1.12,1.04l2.71,8.69c.13.08.27.11.43.11.11,0,.21-.03.3-.06.32-.14.54-.38.67-.74l-2.25-7.41c.19.08.35.16.54.25.03,0,.05.03.05.03,2.06,1.09,4.53,3.46,6.06,8.72,1.98,6.76,6.91,5.94,8.12,5.72,3.03-.54,3.38-3.49,1.64-5.09ZM120.41,106.61l-.8-1.09c-.16.03-.29.03-.4.03-.05,0-.96,0-1.77-.3-.19.14-.43.22-.72.27l.72,1.36c.64.44,1.39.68,2.09.68.94,0,1.31-.55.78-1.04,0,0,.05.05.11.08ZM106.13,120.09c-.16.11-.32.22-.48.27l-.03.03h-.03c-.21.08-.43.11-.64.11h-.16v.03l-.21.08h-.03l-.08.08,1.1,4.28c.24.22.51.3.83.19.56-.25.88-.9.7-2.04l-.97-3.02ZM137.75,105.17c-.29.22-.67.33-1.12.35h-.27c-.59,0-1.23-.11-1.85-.3-.03.03-.05.08-.08.11l2.36,1.66c.67.16,1.34.22,1.66.22.78-.06,1.55-.44.96-.98l-1.66-1.06ZM104.23,120.88c-.21.14-.46.24-.72.3-.13.03-.24.06-.35.06h-.05c-.11,0-.21-.03-.35-.06t-.05.03l-.13.03.86,4.47c.27.3.59.44.78.38.48-.11.94-.68.86-1.82l-.83-3.38ZM123.82,106.58l-.8-1.01c-.24.06-.46.06-.56.06-.32,0-1.21-.08-1.98-.44-.13.11-.3.16-.46.22l1.29,1.74c.46.22.94.35,1.42.35.7,0,1.79-.27.99-1.01.03.03.08.05.11.08ZM129.93,105.66c-.16.03-.29.03-.38.03-.7,0-1.47-.05-2.31-.38-.11.11-.27.16-.43.22l1.93,1.69c.56.16,1.1.22,1.37.22.75,0,1.47-.38,1.29-.76l-1.47-1.01ZM134.11,105.57c-.21.11-.48.19-.78.22h-.43c-.88,0-1.61-.19-2.17-.44-.11.08-.21.14-.32.16l2.41,1.63c.64.16,1.29.22,1.56.22.83,0,1.47-.46.94-.93.08.03.13.08.21.11l-1.42-.98ZM126.36,105.63c-.11.03-.24.03-.38.03-.27,0-1.29-.03-2.22-.38-.11.08-.21.14-.35.19l1.31,1.66c.48.22.96.33,1.37.33.96,0,1.85-.19,1.58-.68l-1.31-1.14ZM155.6,95.82c-.03.25-.11.49-.24.65l-.03.03-.03.03c-.27.33-.62.54-1.02.65l5.68,1.33c.54-.08.99-.35,1.29-.68.35-.38.21-.84-.08-1.17l-5.57-.84ZM31.63,95.25c-.51-.25-.83-.63-.99-1.04-.08-.14-.11-.3-.11-.46l-4.88.38c-.59.25-.96.98-.56,1.53.29.33.64.52,1.02.63l5.47-.82c.03-.08.03-.14.05-.22ZM54.09,100.26c-.43.38-.54.85.32,1.09.08.03.19.03.29.03.27,0,.62-.05.94-.14l13.96-7.63c-.24-.11-.48-.22-.7-.35l-14.82,7ZM62.4,101.71c-.05.27.16.52.56.63.11.03.24.03.35.03.35,0,.7-.08,1.05-.22l-.03-.03,8.28-7.49c-.24-.05-.46-.11-.7-.19l-9.51,7.27ZM56.56,101.11c-.13.27.03.57.35.71.19.08.4.11.62.11.29,0,.62-.05.94-.16l12.09-7.74c-.21-.08-.4-.16-.59-.25l-13.4,7.33ZM59.4,101.51c-.13.33,0,.63.48.65h.16c.64,0,1.26-.19,1.8-.41l9.75-7.41c-.24-.08-.46-.14-.67-.22l-11.52,7.38ZM48.97,97.57c-.8.41-1.5.98-.16,1.63.11.05.7.11,1.63.16l17.31-6.84c-.19-.14-.35-.25-.51-.38l-18.28,5.42ZM46.86,95.52c-.62.27-1.13.87-.75,1.44.35.52.86.65,1.45.65h.24l19.16-5.67c-.21-.16-.4-.35-.59-.52l-19.51,4.09ZM38.07,100.75c.43.38,1.02.54,1.74.54.27,0,.54-.03.83-.08l6.7-2.4c-.05-.14-.05-.25-.05-.38v-.03c-.67-.05-1.18-.3-1.58-.74l-7.85,2.45c-.11.25.03.46.21.63ZM41.87,102.69c.4,0,.83-.05,1.23-.14l5.73-2.51c-.24-.03-.29-.08-.38-.11-.48-.25-.83-.52-1.02-.82l-7.02,2.51c-.16.25-.16.49.08.71.27.25.78.35,1.37.35ZM44.98,93.56c-.43.27-.72.63-.62.95.24.63.72.87,1.26.95l20.47-4.3c-.19-.19-.38-.38-.51-.57l-20.61,2.97ZM35.44,99.36c.27.19.83.44,1.66.44.38,0,.78-.05,1.23-.16-.05.03-.11.05-.13.05l7.24-2.26c-.24-.35-.35-.79-.24-1.2h-.03l-9.86,2.18c-.29.33-.11.76.13.95ZM78.74,101.82c.05.27.38.41.83.41.48,0,.99-.27,1.31-.57l1.66-6.4h-1.34l-2.47,6.57ZM83.7,100.81l-.24,1.04c.16-.05.35-.14.48-.22-.11-.27-.16-.54-.24-.82ZM65.45,101.51c-.35.46,0,.93.59.93h.05c.48,0,.91-.11,1.29-.3l6.57-7.25c-.32-.05-.62-.11-.94-.19l-7.56,6.81ZM79.2,104.84c.54,0,1.05-.22,1.34-.52l.43-1.55s-.08-.05-.11-.05c-.4.22-.86.38-1.29.38-.35,0-.62-.05-.83-.14l-.48,1.55c.19.22.64.33.94.33ZM81.83,104.97c.4,0,1.21-.19,1.58-.63l.48-1.82c-.67.27-1.47.46-1.96.46-.27,0-.48-.03-.67-.11l-.46,1.66c.19.3.7.44,1.02.44ZM81.18,101.84c.11.22.35.33.75.33.32,0,.78-.08,1.21-.22l.43-1.82c-.11-.6-.16-1.2-.16-1.8,0-1.04.13-2.04.43-3.02h-.96l-1.69,6.54ZM70.92,101.62c.13-.11.24-.19.35-.27-.38.35.05.93.51.93.54,0,1.15-.22,1.69-.54l3.64-6.48c-.43-.03-.86-.05-1.26-.08l-4.93,6.46ZM76.31,101.79c.08.27.51.41.8.41.51,0,1.02-.19,1.37-.46l2.44-6.46h-1.55l-3.05,6.51ZM68.29,101.57c.08-.08.19-.14.27-.22-.38.35-.29.98.56.98.4,0,.78-.14,1.15-.3l5.25-6.92c-.43-.05-.83-.11-1.23-.16l-6,6.62ZM77.43,95.25l-3.72,6.65c.03.27.38.38.67.38.48,0,1.1-.16,1.58-.49l3.05-6.51h-.46c-.38,0-.75,0-1.13-.03ZM50.71,99.58c-.32.44.32.84,1.21,1.01.16.03.32.06.48.06h.19l16-7.57c-.19-.11-.38-.22-.54-.33l-17.34,6.84ZM84.48,104.92c.16,0,.67-.3.91-.38-.48-.65-.86-1.36-1.18-2.12l-.56,2.18c.19.24.59.33.83.33ZM43,92.31c.29.65.96.93,1.58,1.01l20.79-3c-.13-.19-.27-.38-.38-.54l-21.25,1.36c-.59.16-1.02.54-.75,1.17ZM43.83,90.78l21.01-1.33c-.29-.52-.43-.9-.43-.95l-.08-.25h-21.63c-.27.76-.4,1.09-.35,1.39.08.63.78.98,1.47,1.14ZM83.7,105.57c-.13-.05-.27-.11-.38-.19-.54.27-1.15.38-1.5.38-.4,0-.88-.11-1.26-.35l-.51,1.88c.16.16.4.25.64.27.91-.68,1.96-1.42,3-1.99ZM79.84,106.72l.35-1.25c-.29.11-.62.16-.96.16-.19,0-.78-.03-1.21-.35-.05.03-.13.05-.19.08l-.59,1.91c.21.19.56.3.83.3.38.03,1.26-.3,1.77-.85ZM74.86,107.51c.86,0,1.82-.41,2.2-.93l.32-1.06c-.32.08-.59.11-.8.11-.51,0-.94-.14-1.26-.35-.13.05-.27.11-.38.14l-.83,1.66c.08.3.43.44.75.44ZM29.73,90.97c.03-.08.08-.16.11-.25-.24-.3-.46-.71-.54-1.31v-.14c0-.41.11-.74.27-1.01h-6.35s-.32.38-.19,1.44c.08.71.46,1.23,1.02,1.53l5.68-.27ZM30.62,93.23c-.59-.35-.83-.84-.91-1.06s-.11-.52-.08-.82l-5.09.22c-.59.25-.91.84-.7,1.39.13.35.51.68.94.9l5.76-.46c.05-.08.05-.14.08-.16ZM30.99,90.54l10.61-.54c-.03-.08-.05-.16-.05-.25-.05-.44.05-.82.24-1.36.03-.05.03-.08.05-.14h-11.15c-.29.14-.62.44-.62,1.01.05.33.13,1.06.91,1.28ZM43.35,103.5c.21.11.48.14.8.14.38,0,.8-.08,1.26-.19l5.01-2.59c-.27-.19-.46-.44-.54-.71-.19,0-.32-.03-.46-.03l-6.16,2.7c-.19.27-.16.52.08.68ZM30.8,90.86c-.43.3-.46.76-.35,1.04.11.3.43.79,1.37.84l10.32-.9c0-.22.08-.44.19-.63.03-.05.05-.11.11-.16-.29-.19-.51-.44-.67-.76l-10.96.57ZM71.7,107.59c.78,0,1.55-.38,2.12-.82l.62-1.23c-.24.06-.43.06-.56.06-.11,0-.78,0-1.26-.35-.21.11-.48.19-.78.25l-.91,1.72c.13.22.46.38.78.38ZM59.64,104.57l2.52-1.72c-.11-.05-.19-.14-.27-.22-.54.22-1.18.38-1.88.38h-.19c-.19,0-.35-.03-.48-.08l-2.52,1.77c.16.14.51.22.8.22.7-.06,1.37-.11,2.01-.35ZM53.88,104.97h.38c1.26,0,2.14-.44,2.81-.9-.11.06-.16.14-.21.19l2.22-1.55c-.11-.08-.19-.16-.27-.24-.43.14-.86.22-1.26.22-.32,0-.64-.05-.91-.16h-.03c-.05-.03-.08-.05-.13-.05l-3.27,2.1c.05.25.32.41.67.41ZM46.56,104.24c.21.06.46.08.75.08.7,0,1.58-.16,2.25-.44l3.81-2.21c-.11-.08-.16-.19-.21-.27-.24.06-.48.08-.72.08-.21,0-.43-.03-.64-.05-.4-.08-.78-.19-1.05-.35l-4.56,2.37c-.29.3-.19.6.38.79ZM50.61,104.73h.21c1.02,0,2.09-.35,2.79-.76-.05.03-.11.08-.16.11l2.73-1.77c-.11-.08-.19-.19-.27-.3-.4.11-.83.19-1.21.19-.16,0-.29,0-.43-.03h-.05c-.27-.08-.46-.16-.62-.27l-3.89,2.26c-.05.3.27.55.88.57ZM68,104.76c.35,0,1.21-.08,1.72-.35l1.21-1.58c-.05-.03-.11-.08-.13-.11-.46.25-1.05.46-1.66.46-.4,0-.72-.11-.99-.27l-1.1,1.39c-.03.3.48.46.96.46ZM71.16,104.76c.59,0,1.05-.16,1.42-.41l.83-1.53s-.08-.06-.11-.08c-.51.22-1.05.35-1.53.35-.21,0-.4-.05-.59-.14l-1.1,1.47c.08.25.56.33,1.07.33ZM61.19,104.87c.43,0,1.5-.08,2.28-.46l1.61-1.39c-.08-.06-.16-.14-.24-.19-.51.22-1.05.35-1.53.35-.16,0-.32,0-.48-.03h-.03c-.13-.03-.24-.06-.35-.11l-2.12,1.44c-.03.25.43.38.86.38ZM64.73,104.84c.38,0,1.13-.11,1.74-.41l1.23-1.55c-.54.25-1.07.38-1.63.38h-.05c-.21,0-.43-.06-.62-.11l-1.58,1.36c.11.22.56.33.91.33Z"/>
    </g>
  </g>
</svg>